<mxfile host="app.diagrams.net" modified="2024-04-30T17:10:01.576Z" agent="Mozilla/5.0 (Windows NT 10.0; Win64; x64; rv:125.0) Gecko/20100101 Firefox/125.0" etag="hrynq1tYz9FGsXo9iKwz" version="24.3.1" type="device">
  <diagram id="f106602c-feb2-e66a-4537-3a34d633f6aa" name="Page-1">
    <mxGraphModel dx="1235" dy="624" grid="1" gridSize="10" guides="1" tooltips="1" connect="1" arrows="1" fold="1" page="1" pageScale="1" pageWidth="1169" pageHeight="827" background="none" math="0" shadow="0">
      <root>
        <mxCell id="0" />
        <mxCell id="1" parent="0" />
        <mxCell id="Lif8JBEafslfNm7ranTe-4" value="&lt;div align=&quot;center&quot;&gt;&lt;b&gt;&lt;font style=&quot;font-size: 16px;&quot;&gt;Web application diagram - MERN Estate&lt;/font&gt;&lt;/b&gt;&lt;/div&gt;" style="fillColor=#4DA1F5;strokeColor=none;shadow=1;gradientColor=none;fontSize=14;align=center;spacingLeft=50;fontColor=#ffffff;html=1;" parent="1" vertex="1">
          <mxGeometry x="70" y="500" width="890" height="40" as="geometry" />
        </mxCell>
        <mxCell id="Lif8JBEafslfNm7ranTe-6" value="" style="strokeColor=#dddddd;fillColor=#ffffff;shadow=1;strokeWidth=1;rounded=1;absoluteArcSize=1;arcSize=2;labelPosition=center;verticalLabelPosition=middle;align=center;verticalAlign=bottom;spacingLeft=0;fontColor=#999999;fontSize=12;whiteSpace=wrap;spacingBottom=2;html=1;" parent="1" vertex="1">
          <mxGeometry x="120" y="645" width="70" height="70" as="geometry" />
        </mxCell>
        <mxCell id="tdb2UJb3kU6A1UGs4z5R-16" value="" style="image;aspect=fixed;perimeter=ellipsePerimeter;html=1;align=center;shadow=0;dashed=0;spacingTop=3;image=img/lib/active_directory/windows_server.svg;" parent="1" vertex="1">
          <mxGeometry x="134.5" y="655" width="41" height="50" as="geometry" />
        </mxCell>
        <mxCell id="tdb2UJb3kU6A1UGs4z5R-27" value="&lt;font size=&quot;1&quot;&gt;&lt;b style=&quot;font-size: 16px;&quot;&gt;Server Side&lt;/b&gt;&lt;/font&gt;" style="text;html=1;align=center;verticalAlign=middle;resizable=0;points=[];autosize=1;strokeColor=none;fillColor=none;" parent="1" vertex="1">
          <mxGeometry x="105" y="760" width="110" height="30" as="geometry" />
        </mxCell>
        <mxCell id="tdb2UJb3kU6A1UGs4z5R-24" style="edgeStyle=orthogonalEdgeStyle;rounded=0;orthogonalLoop=1;jettySize=auto;html=1;exitX=0.75;exitY=0;exitDx=0;exitDy=0;entryX=0;entryY=0.5;entryDx=0;entryDy=0;" parent="1" target="tdb2UJb3kU6A1UGs4z5R-17" edge="1">
          <mxGeometry relative="1" as="geometry">
            <mxPoint x="368.75" y="200" as="sourcePoint" />
          </mxGeometry>
        </mxCell>
        <mxCell id="j-iSR3cCKwgXwYgSjLxv-30" style="edgeStyle=orthogonalEdgeStyle;rounded=0;orthogonalLoop=1;jettySize=auto;html=1;entryX=0;entryY=0.75;entryDx=0;entryDy=0;fontFamily=Helvetica;fontSize=12;fontColor=default;" edge="1" parent="1" source="j-iSR3cCKwgXwYgSjLxv-8" target="j-iSR3cCKwgXwYgSjLxv-26">
          <mxGeometry relative="1" as="geometry" />
        </mxCell>
        <mxCell id="j-iSR3cCKwgXwYgSjLxv-33" style="edgeStyle=orthogonalEdgeStyle;rounded=0;orthogonalLoop=1;jettySize=auto;html=1;fontFamily=Helvetica;fontSize=12;fontColor=default;" edge="1" parent="1" source="j-iSR3cCKwgXwYgSjLxv-8" target="j-iSR3cCKwgXwYgSjLxv-32">
          <mxGeometry relative="1" as="geometry" />
        </mxCell>
        <mxCell id="j-iSR3cCKwgXwYgSjLxv-8" value="" style="shape=image;verticalLabelPosition=bottom;labelBackgroundColor=default;verticalAlign=top;aspect=fixed;imageAspect=0;image=data:image/png,iVBORw0KGgoAAAANSUhEUgAAAOIAAADfCAMAAADcKv+WAAAA1VBMVEUWHS0WvssVHi0XHSwVHi4WvsoYHC0WHS8XvcwWvskWHisWHCwWvc0YHC8UHy0ZHC0QFCMXGCkieYUkvMcSESUUEiMhipcrtMEQEycouccNIS8rnqwWHTEVGCYnk54VHyoKKDkQO0scYm0WTVkPM0EVQU8LGi4PCyMIEyYJIDILECMkmKcrrbsIHC0JDh0VUmEif4wQDikfbHgIJzIPND0URlkUUlwaYHINLD8lrLUiT18IHzUcW2wVFiAos8UOFi0OABklkKMdcHofhI0iOUkNO0MXUWTrtrP8AAAMM0lEQVR4nO2cC1fbOhKAbckvyY9Yfjuu47xJHNOk6aUhvZRu293+/5+0IwO90IVgh3tNOKvvlJTD4RBNZkbz0MiSJBAIBAKBQCAQCAQCgUAgEAgEAoFAIBAIBAKBQCAQCAQCgUAgEAgEAoHg/wpd0THGlFIdXhB8KymKgl97VX8j+jtdlxDSMNZs08Sa42CJIkWRJPTaS/u7wBpjYXB2tlicL4fL8/miLMOQ5ViTzNde2t+CxoKz+WzsRausiuPYh68qG0TeeHb+3mW9117eS8C6ojgFOzufeFmcyob8G4Z1nXmT+XtGsVYb7dvDwZoWLtZRTFRCiPW7hLWUsnEdrRehCU762ss9Bp2FQy+WDdUArP9VomHUX4TEm+kH6rz2co/ATKabaxCFqCCJrD6mw1psIsuWP5glDL+l3RVJNmbLbfyYbT4OSaNpALGyR1977Q3RNJRMKqPWUCMsbq7bfk4d+7XX3ghkamix9S0V1t1URPhli2QXAX0bWkRm/nFgGAT+PeaBj9pp/Vmo/vZrcfpJHYI8Lfgjayrbb5Kq0RB2ndMOkRSsNJxVjwbBBoCxjoLi1ENkL//jaAm5IuOL4LRDpO6Y0+wlEspW/Cnkyd9rS/IkOj5fHeeHd1iWf1XqxQmnAYGnvkxEAjLuAny6wSMYpy8w01pESOus3Vmrd+2s6NR1xC73N9Ge59dynZmqauMEoMaChJ0Y4zNsNvFHJOlIsYf/uGx3YPz1BzFuSwoQ7eY/qAvbatKS011iNvFH9M7ByefPZkcJAy7yiQ9CcRm5AsHg4NWCl1ZqlOsSxN+FjdatF2yULbuyVEzPM9m4NUuQzYjjal9dp+kjxeJhoIBWQY9N3rPHPlZRgLranYIrcpttErmKdrPhvCzLxXB05WUpSExa7LXwSaXjhLfsDogHcinsz8y4yrtqV+J+Bg4Idmqlg09L90sOO4YJsOAsmW4h5Wm37Rjp2O0ph5I5WynYMlOvP9pdRdFwrMoquJ4fzRJXk/Bdk9TWaEHdP7dVq30H9mTf+5ofUg+i4WUmW1GpO93IaM4hc4MNP1snTKKaAsWtw7NNTJGk6Tp2Lz2/hR4J3642ffb0G2IaTDPVktdgpx3ke9hG+cy3iJx6/RAipC4pv96VyyjBD8xkXbUxVe6Rq1GIKVX0B82Auslj27T8uVcNsv/ajSOCiG5ELKNau09t4DaiyTSTjRa7K1h9PC4Z6OjBtqNJyHFwMPzh8+jkBV0ICCJKdBkbRjZKntwDdUQp60ctlAjx1CJ+ND1jWLlviWD+ZjjfVUS1VJIOOwqKmvNlTaxsmmP9qZodg0NSe75pIyNEV9m43owCl90TxGFu/yqru1+WHJVdbaf6l4GcXR7YHGqw4iw2VhtbrYkHu2kZhCFjeRgEwWLm7eGnBs8N05HZkYh6MU/3l+xQpOaAF6HSaykgd18rraLv4/Vkvd55g70v1+GHp4pR0FlbMl/H07x4rszjgVwJPKtlSWkRQuqipW7qWXdblgGeOmXvOtIiXmwukoI6z2gR1V+l107Em14l4ac/YJuwCRl1KghfxEsc2pGISP+8aBiesGT+61aPbX3yd9Rs3t0RLNLmWsNPE7Z/84y3P17YAQHSSf7PivUA/JyNPuTMe7EKwQi2boctngcZ2/NgKfxuvFjIwflJn6LjYAvpV51sH6dByPeHpn7CvUjwx+AqNay24eMvrGrEiidTqdOg+PKzIsaxMpL9LKH4tLUIJWUyyohxpIjVJFEk5WBT4BTAbBi1dUVi8NxUrmaJdPonkQDO59sYsvI2TR2efJPBJXs2WTwRlF4wGpB2mlQtf7sosNZZT+plYElhi11V98wPl1jGrXiQg69mrmlj7LwNLUp8MiDhA0h1N+qAkIas8mzcItXV/Lmq9NTQJUrdobd/ZvSB8PMcS92Pl8FJpzSPgSmyEQ2Xu+ygT1pQRKWDT4swp13VwAhJGqJS7RAIKaAKiiUK60WItxjrX2gGxG9Hl0z2frpdxTenWffmydS7b9PVbhiEWLI7m9LFAMI9/Z2tmTQPWI0JcmLEX474i1rPLf9ce4MqNcjtQY8BGR6QVgPv8zz40nEghLBEe4wlbr8/HM0m65/r9WQ2mg6XiyDQTK7Cli6D+Okdzt2gHM4+jb9vNlEU/fix8cbr0TIp3dzsPh1loftxNvYGWeXf7HiWrPppvF9tdrNlmCPziHpcU5BmS+aXPATcMAzOgiDMsSPZCrhFZwaKePcdJ4vRdnDXvie/WhQqH8skfvVtNzp3QZe2pDTNs7gEGNfD/1gzwUPNugoFNJ23+LvLuE0dNpbycrzynyyECCEG8Ve7acL4Kk+73nkERPNyBFGMHGgu8WYgqDaOZknyRjLJ+5juNIrrsQrrUPLMT4SJmg4ugrd1SwFchS2/8wk3Q23QPuO/wYeFuUO+FXr22Swjrc6zDXm/nbO3Y6zmgo97tzl0UfkYzmoUvgkZMZewrtFbDSXwGRUjvirfgkdSh81XR463Ed97TxWqn/gdMJ2dZ9ajty2eVaSlEjJYMNThON5R4MVKroe+2sOPTNVsaCLppPtlZvmNh4qjWoI3x4LVND9hO0W6k3jy4xe7mnM9cyHPRI2NFXWWd9fvFqx9or5QRDmelFqv8ZbT0UDULQqbVn+V38dC1OuJ28obuxQyGfBR37ZTpb9hEaOVjOiPfkc7sI6KZPwro4FQrtbtBiLX1xLb7LAqt1XXbuCPlM9gj7x5JwLyawl0ub/JqXmmwgMAH54A1zxCs2o8CRr4o4ILOszGXfVLFRpseQ9aro8tib/PvkWbTcQbGqTxta87CNfj800dvTDnUTzqSkTdvKz4UUldGmXe5HKeBEEQlslwthvEN7lAY3M1uIyhztsUT/U7MOhYo1838mrRVaZAA6+2UHCk6MIJmXbrSKbGEne6zXibvpU243VgIt1+chrQtqXe+Q/L2iZd1Sd0WBHC54GjUcnYg5EFm5plfxtD9tKq/EivQlo8ecBrIwdKGvgkpl3dm8Lh2CCWpe4nYc6N6/7bUkdXcDCNiNxuIjrdftCKJ9v2RfLnilhk8N7pREQk4fOMp6abZajrGn74gAFd56ow3XGbgWjwR8uI5rmt20pxb29VFF3is1747KKyDOJ/6mhqCJlsYlhQ0x5yfZTMqja3ajnVxRmWFA12lrs/zJuRDmYuH1iFHbyaY60bQ8XlxpL9SXDocg8qwiW/g9JCQn4NYFgWkIeiu/uYtEB2Hi7GFT9mswhsNt00tbDZr+T96JmZzx7UywNw2BYiqqrlb6ZnLuvdDpaZuBcky3FVX0IiRjU0u+l/Y5x/UuNZiJB9yGh0RHG54ktvrEk+cqn62ffZEsKs65ZJMr+sn8ZhqHVyuC3BTrs4iXK0cJOum6TOurmAbbCVsXJBLTnOBtHGg2zpblS4VnI17+4Eo59dBU9G6XtgB4Ottgoev+Spp2ll+X6xNg676i5r+sX3stkUVqHU/thWPqO+LaZyu703zJAtOmu86ujf/Wa3H/X6pvSgXnUbEfnBwcNgoxLD/093Mxm9v/b0Buhm/5t6O7f9EtTtew11lYL3WpXdWMn730jrSxi/YZDBV63NJ9sphWL2o6O2nHuQakgldKIy8tCpzTfGcU3zWjz4eNKL4HSfzMBB+Yfvx3eyIEFKf7JTfwwVQl93/rHGasjGOKAn/rw0h2LNXcfH9iPTsUuld6c/S0uTSyg8VKu5ufLjIKjGSPyzy4sXLwAVvXLLB1PU5m0r/kKyy6A4cT+8Bap5Go4yPn7TWI2gcN9b5LR499qrbwTVEDXNcnzd+DgSfs1ajQIKSWDx2qtvjC7hsM+HhS1Lffr5E5CP8uejwUdRjcu3NivMMYPh98qHCvfgsZ1hWX62m4enfUj+BBo1P8yhlOfPnTwgYrVZLxL67rRTmifg50taXg7Xmyq+e77PA+mIGmebq2HIkC69SQnvMPNgPhp737LqOvVvTuwMI42r/cC7ms0DdvqBvgHYpHnozofT0WS9vhpfrX9OZtPhPAlz3Pxg/KTRdRsCiYMppjljCWMsZEwz4YcFfSOPmXwODE5JETgmHxjGfAhXUXTeBce3Y8Nv44KXQCAQCAQCgUAgEAgEAoFAIBAIBAKBQCAQCAQCgUAgEAgEAoFAIBAIBAKBQCAQCAQCwQ3/BR6E4PULgAWnAAAAAElFTkSuQmCC;" vertex="1" parent="1">
          <mxGeometry x="291.7" y="1110" width="60.8" height="60" as="geometry" />
        </mxCell>
        <mxCell id="j-iSR3cCKwgXwYgSjLxv-24" style="edgeStyle=orthogonalEdgeStyle;rounded=0;orthogonalLoop=1;jettySize=auto;html=1;fontFamily=Helvetica;fontSize=12;fontColor=default;" edge="1" parent="1" source="j-iSR3cCKwgXwYgSjLxv-10" target="j-iSR3cCKwgXwYgSjLxv-23">
          <mxGeometry relative="1" as="geometry" />
        </mxCell>
        <mxCell id="j-iSR3cCKwgXwYgSjLxv-10" value="" style="shape=image;verticalLabelPosition=bottom;labelBackgroundColor=default;verticalAlign=top;aspect=fixed;imageAspect=0;image=data:image/jpeg,/9j/4AAQSkZJRgABAQAAAQABAAD/2wCEAAkGBw8HEBASDxEVDxUWFxURExUXExYeEhYXFRUWFhcVFhUbHSggHRwlHRcVITEmJTUrMC4uFyAzODUsQygtLysBCgoKDg0OGxAQGy8mICUtMC0tLS0tLS0vKy0tLi0tLS0tLS0tLS0tLS0tLS0tLS0tLS0tLS0tLS0tLS0tLS0tLf/AABEIAOEA4QMBEQACEQEDEQH/xAAcAAEAAgIDAQAAAAAAAAAAAAAABgcBBQIECAP/xAA/EAACAQEEBgUJBgYDAQAAAAAAAQIDBAUGEQcSITFBcRNhgaGxIjM0NVFzg5GzIzJCYnKyFENSU4LBFZLR8P/EABoBAQACAwEAAAAAAAAAAAAAAAAEBQIDBgH/xAAtEQEAAgECBAQFBQEBAAAAAAAAAQIDBBEFITEyEkFRcRMiMzTwQmGBkaGxUv/aAAwDAQACEQMRAD8Ao0AAAAAAAAAAAAAAAAAAAAAAAAAAAAAAAAAAAAAAAAAAAAAAAAAAAAAAAAAAAAAAAAAAAAAAAAAAAAAAAAAAAAAAAAAAAAAAAAAAAAAAAAAAAAAAAAAAAAAAAAAAAAAAAAAAAAAAAAAAAAAAAAAAAAAAAAAAAAAAAAAAAAAAAAAAAAAAAAAAAAAAD72SyVLbNQpQlUk90YptvsRja1axvaXkzEJ5c+jGdWKla6vRN/ggk5LnLd8syqz8WpWdqRv+7RbURHR9L00XuEW7LX1mvwVElnymv9owxcXrM7Xj+nldRE9UCt931rum6denKlJcJLvXtXWi4pet43rO8JETE9HVMnoAAAAAAAAAAAAAAAAAAAAAAAAAMxWtsQEzw5o+tF5ZTtGdmp78mvtZLqi/u9vyK3U8Sx4uVectN80V6LOua5bNcsNSz01D+qW+cv1S3vwKHPqcmad7z/CJa9rdXxv3EVluKOdeflP7tOO2pL/Hgut5Iy0+jy55+WOXq9pjtbo+VwYpsl+rKlPVnxpz2T7ODXIy1Ghy4esbx6vb4rVd+9LroXtDUtFNVI8M96ftjLenyNOHPkwzvSWNbTXorTEejqtY852NuvDfqPLpVy4S7Mn1F9peKUycsnKf8SqZ4nlKDVIOm2mmmtjTW1NcGi05eTe4gAAAAAAAAAAAAAAAAAAAAAZA32HsJ2u/mnTjqU+NWeyH+PGT5dxG1GsxYI+aefowvkrXqtLDuD7LcWUox6Wr/cmtq/Qt0fHrOf1PEMublHKPREvltZuLwt9G7YOpXqRpxXFvuS3t9SImLFfLO1Y3a61m08lcYk0jzr5wsK6OO7pZJa7/AEx3R7dvIvdNwqtPmy859EqmCI52QGvWlXk5Tk5ye1ybbk31tltEREbQkdOjjTm6bTi2mtqaeTT9qZ7Mb9ROcN6Ra1iyhbE68N2usuljz4S7dvWVep4XTJ82PlP+NF8ETzhZd13rQvaGvZ6iqR45b0/ZKL2p8yhz6fJhna8ItqTWeboYgwtZb+TdWGrU4VY7J9v9S5m7T67Lg5RO8ejOmS1VW4jwZarjzll01L+5Bbv1x3x8Os6DT67Fn5RO0+iVTLWyNkxsYAAAAAAAAAAAAAAAAAAHeum6LRe89ShTdR8f6Y9cpbka8uamKvivOzy1ojqs3DmjuhYcp2tq0T36n8mL5fi7dnUUep4ra/y4+Uevmi3zzPKE1bjRjwjGK6lFJdyRU/NefWWjeZlB8R6RqNjzhY0q893SPzS5cZdy62W2m4Va3zZeUejfTBM9ytL0vWve03Ur1HUlwz3JeyK3Jci9xYqY48NI2Sa1iOjpGbIAAAO1YLfWu6aqUKkqUlxi+5+1dTMb0reNrRu8mInqsfDmkiFbVhbkqct3SxXkP9Ud8ea2cil1PCpj5sP9I18HnVPqNWFoipQkpxks0004tdTRS2ralufKUed4RLEmALNemc6GVmqb9i+yk/zRW7mvkyz03FL4+WTnDdTPMdVYX3cVpuSerXpuOf3ZLbCX6Zf63l7hz480b0lKraLdGtyNzJgAAAAAAAAAAAAAACZ4Ewcr9zrV240YvVSWyVRrft4RXtRXa7XfA+WvWf8AGnLl8PKFsWGxUrvgqdGnGnFboxWXa/a+tnOZMt8k73ndDtabdWixJjOy3HnHPpqq/lwe5/nluj3vqJmm4fkzc55Q2UwzZVuIcU2q/n9rPVhvVKOagua/E+t9xf6fSY8EfLH8pdMcV6NJmSWbAAAAAAAAG3uHEVquKWdCp5O+VOW2nLnHg+tZM0Z9NjzRteGNqRbqtHDeOrLfGUKj/h6r2asn5En+Wf8Ap5PmUGp4bkxc6c4/1EvhmvRJbVZoWuDhVhGpF7HGSzT7GQKXtjnes7S1RMwq/HWCY3VF2iy59Hmukpva4ZvJSi+Md2/d4dBoOITm+S/X19UvFl8XKUCLVvAAAAAAAAAAAAAAXxgymqV32RRWX2al2y8p97ZyeutM6i2/sr8s/PKIaS8R2mx1v4alPooOEZScdk5azezW4LYtxZ8L0uOcfxJjeW/BSNt1bl0ksHgytoHJ02uD+QHAAB2rHdte3eZpVKvDyISfekYWyUr3Ts8mYjq2sMGXlNZqyz7XFdzZonW4I/VDH4lfV86+ErxoLOVlq/4x1v25mUavBPS8HxK+rU17POzPVqRlB+yUWn8mb4mJjeJZRO75Hr1kCd6OcS2l2mlZZz6SlJSSUtsoasJSWrLflsyy8Cr4jpcc45ybbTDRlpG26yb7pKvZrRGW1OlUT/6sotLaYzVn90Wk84eejsViAAAAAAAAAAAAAAvvCPoFk91DwRyOt+vb3V+TulW2lX0/4UPGRe8K+hHvKVg7ENLFuAJDo/SleVlzWe2T+VOZE10zGnts15eyV3VoqUZJrNNNNcNxy1LWi8Tv5oMTzecTtVks3BOBKbhC0W2Ou5LWhSf3Unuc1xfVu27eqj13ErVtOPF5eaLlzbTtVYVOnGklGKUUtySyS5JFJNrX680eZ3cJ2mnDY5wXOS/9MoxXnyl54Z9HKnVjV+7JS5NPwPJx3jrEnh/Z8rfYKN4xcK9ONWPsks/k+D5GWPPkxzvSdnsWmOipsdYP/wCCyq0M5UZPJ57ZU29yb4xfB9j6+j0OujP8tu5MxZfFyQ4sG5JNHfrOzfE+lMh8Q+3t+ecNeXslct5+Yre7n+1nMaf6tfdBp1edjs1kAAAAAAAAAAAAAAvvCPoFk91DwRyOt+vb3V+TulW2lX0/4UPGRe8K+hHvKVg7ENLFuAJFo+9ZWXnP6cyHr/t7fnm15eyV3VNz5PwOWr3R7oMdVB4askbdbLNTltjKpBSXtWebXyOw1F/BitaPRYXnaJX8cbvvzVymsdYktFttVakqkqdKnOVJQi2k9V5OUst7bTOp0OlpjxRO3OeadipEViUTJza5UqsqTTi3Frc08n80JiJ6iydHGLKtrqfwtpm6mabpTl9/OKzcJPjszab27PlScT0VYr8WkbeqLnx8t4Tu97FG8qFWjLapxlHk8tj7Hk+wqNPknHkraGik+G0S88yWW87KZ35rFI9HfrOzfE+lMh8Q+3t+ecNeXslct5+Yre7n+1nMaf6tfdBp1edjs1kAAAAAAAAAAAAAAvvCPoFk91DwRyOt+vb3V+TulW2lX0/4UPGRe8K+hHvKVg7ENLFuAJFo+9ZWXnP6cyHr/t7fnm15eyV3VNz5PwOWr3R7oMdXn25bb/x1poVuEJxm+Saz7szsstPHjmvrCxtG8bPQNGrGvGM4NSjJKUWtzTWaaOMtWa2ms9YVsxtOyK4hwDZr4qSqxnKhUltk1k4SftcXx5NFlpuJ3xVito3iG6meaxsi1q0X2qHmq1Kovza0X8smu8n04vhnuiYbY1FZaq04CvKhuoqp1wnB92aZIpxHT2/UzjNSfNrFZbZcFSNV06lCUGnGUoPLPm1kyR4sWas13iYlnvW0bNs9IF5v+dFfDh/4R44dp99/Cx+DRF5ycm29re1k3bZsSLR36zs3xPpTIfEPt7fnnDXl7JXLefmK3u5/tZzGn+rX3QadXnY7NZAAAAAAAAAAAAAAL7wj6BZPdQ8Ecjrfr291fk7pVtpV9P8AhQ8ZF7wr6Ee8pWDsQ0sW4AkWj71lZec/pzIev+3t+ebXl7JXdU3Pk/A5avdHugx1ecGdqskowtjW0XClTa6elwg3k4/olw5PPsIOq0GPPz6T6tV8UWT6waQrvtWWvOVB+ycHl/2jmioycKz17eaPOC0NxQxFYbR9y1UX1dJFP5NkW2kz161n+mE47R5NhSrQrbYSjPk0/A02paOsMNpc2s9j29RjEzAimJcDWa9oylRjGz1t6cVlCT9k4rZt9q289xZaXiWTHO153r/xvpmmOvRTtpoSs05QmnGUW4yT3pp5NHSRaLREwmRO7f6O/Wdm+J9KZE4h9vb884a8vZK5bz8xW93P9rOY0/1a+6DTq87HZrIAAAAAAAAAAAAABfeEfQLJ7qHgjkdb9e3ur8ndKttKvp/woeMi94V9CPeUrB2IaWLcASLR96ysvOf05kPX/b2/PNry9kruqbnyfgctXuj3QY6qSwTcFPEVedOpOVNRpup5OWs/KiuPDadVrdTOnx+OI3Tst/BG6UX3o5oWKz1qtKrVlKEHNJ6rT1Vm1sSe5MgYOK2yZIpasc2qmeZnaVal0ksAc6dR0mnFuLW5p5NdqExE8pEkuDGttuycFKrKtTzSlCb1tme3Vk9qeW7gQtRocOWs8tp/ZqvjrMLrOV22nZB/ZS2kugqN41cvxRhN83FJ+B1PDbTbT13TsM70fLR36zs3xPpTMuIfb2/POHuXslct5+Yre7n+1nMaf6tfdBp1edjs1kAAAAAAAAAAAAAAvvCPoFk91DwRyOt+vb3V+TulW2lX0/4UPGRe8K+hHvKVg7ENLFuAJFo+9ZWXnP6cyHr/ALe355teXsld1Tc+T8Dlq90e6DHVSGBb2jc9tpTm9WEk6U29yUssnyUlF8kdXrcPxcM1jr5J2WvirsvBpTWT2p7OppnJxvWf3hB6SqzEOjivRnKViyqwbzUHJKcc+Cb2Nd50Om4pjtG2TlKVTPG3NGq2Fbwo77JV7IN98cybXV4LdLw2/Er6sUsLXhV3WSr2wa8chOqwx1tH9nxK+qUYX0e2h1YVLYlShFqXR6yc5ZPNJ5bEu8g6rimOKzXHzlqvniI2haMmo5t7Fvb4I56ImZiPVE6qGxdeSva2V6sXnFvVh+mKUU+3LPtOv0uL4WGtFhjrtWIdzR36zs3xPpTNfEPt7fnnDzL2SuW8/MVvdz/azmNP9Wvug06vOx2ayAAAAAAAAAAAAAAX3hH0Cye6h4I5HW/Xv7q/J3SrbSr6f8KHjIveFfbx7pWDsQ0sW4AkWj71lZec/pzIev8At7fnm15eyV3VNz5PwOWr3R7oMdXnA7VZJvhPH9S7Ixo2mLrU0soyXnIL2bdkl3lZq+G1zT468p/xoyYYtzhYV34psF4JdHaIJv8ADJ6svlLLuKXLoc9Otf6R7YrR5NrGrGe6SfJojzjvHlLDafQlVjDfJLm0Ix2ny/x5FZ9GpvHFNgu5PpLRBtfhg9afLKOeXaScehz5J5V/tnGK8+SusXY7qXxGVGhF0aT2Sb85Nex5bl1Lf3F1pOHVwz47c5/4lY8MV5z1Qxlk3JHo79Z2b4n0pkPiH29vzza8vZK5bz8xW93P9rOY0/1a+8INOsPOx2ayAAAAAAAAAAAAAAXXo7vOF4WGlFPyqS6Ka4rL7r5NZfJ+w5jieGaZpt5TzQc9drbvtinCNnxD5Um6VVLVjUW3ZwUo8Vt6mY6TX3wcusFMs1VTiHC9quB/ax1obo1I7ab5vg+pnQafVYs8fLPP0S6ZIt0aUks0j0d03O8rPks8tdvqXRy296IfEJiNPZry9krsqvKMuT8Dlad0e6DHWHnBnbLJgDIBPIA3mAAAbO47gtN+S1aEG0tkpvZTjzl/reac2ox4Y3vLG14r1WphTBNG4ZKrKTrVknlLdCOayerHk2s33HP6viNs0TSvKES+abcod/GV5wuqxV5SeUpRlSpri5TTSy5bX2GrQ4Zy5o28ucsMVfFZRB1awAAAAAAAAAAAAAAd66L2r3PUVShNwluf9Ml7JLijXlxUy18N4eWrFo2lZ+HNIdnvDKFqys9TdrZ/Yy7X93t2dZRanhVqfNj5x/qLfBMc4TKcY14tNKcZLank4tPuaKuJtS3pKPziURvLRzYbZJypudnz2tRacOyLWzsZY4uLZaxtaN2+ue0dW1w3hazYe1nSznOSylObTll7FkskiPqtbkz8p5R+zC+SbdWcZXrG6LHWm3lKUXTpri5zWSy5LOXYe6HDOXNHpHMxV8VlEnVp7AAAAA7FisVW3zVOjCVSb3Ris3z6l1mN71pG9uUPJnbqsbDmjaNPKdulrvf0UX5K/XPjyXzZS6ni36cMfyjX1HlVYFnoQs0VCnFQjHYoxSUUuSKW97Xtvad5R5mbSiuJMe2a6s4UcrTV3ZRf2cX+afHku4s9Nwu+T5r8obqYJnnKrb8vy0X5U1689bLZGK2QivZGP/zL3Dgphr4aQlVrFY2hrTcyAAAAAAAAAAAAAAAMgb24MWWu4slTnrw/tz2w7OMewjZ9Hizd0c/VhbHFk2selCzzS6ahUhLjquMo97TKrJwa36Lf2jzp58pZtelCzQT6KhUnLhrOMY/NNsU4Pb9Vo/gjTz5ygGIcQWi/6inWayWahBfcinvyXt6y30+mx4K7USa0ivRq5Rcd+w3snEAByhFzaSWbexJb2/YkJ5Cb4b0d17fqztTdnhv1f50lyf3e3b1FZqeJ48fy05z/AI03zRHRZl03TZ7nhqWemqa4tfel1ylvZQ59RkzTveUS15t1dLEGKLLcKyqz1p8KUdtR81+Fczbp9DlzdI2j1llTFayrcSY0tV+Zxz6Ck9nRwe9fnlvl3LqOg02hxYecc59UumKtUazJjYwAAAAAAAAAAAAAAAAAAAADKPRa+Criui0RVSi/4mosnJVctaD91u38dvMoNfqdVSZrMbV9YRct7wkt+4dst+w1a8NqWUZx2VI8n7Op5or9PrMuGd4nl6NVclqqtxLga1XNnOC/iKW/WivKivzw3rms1yOg03EMWblPKfRKpmrZ18O4Otd+NSUehpf3JrY/0x3y8Osz1GtxYevOfR7fLWq0sPYUslwrOnHXqcas8nP/AB4RXLvKDU67LmnbfaPREvltZsb0vShdMOktFRU48M976ox3t8iPhwZM07VhjWs2nkrXEekWta84WNOhDdrvzsuXCPe+tF7puF0pzyc5/wASqYIjqgtSbqNuTbb2tt7W3xbLXbblDe4gAAAAAAAAAAAAAAAAAAAAAAAH2stpnZJKdOTpyW1Si2mu1HlqxaNrRuTG6w8N6SctWnbl1dNFbec4Lxj8im1PCon5sX9I18H/AJWJZbTTtkFOlNVIvdKLzT7Skvjtjna0bSjTWY6uVarGzxcpyUIxWbbaUUuts8rW152rzl5ETPRAsSaR6dDWhYkqkt3SyXkL9Md8ub2cy503CZ7ss/wk00//AKVveF4Vrym6lepKrJ8ZPuS3JdSLulK0jasbJMREcodUyegAAAAAAAAAAAAAAAAAAAAAAAAAAAO5YL0tF2vOhWnS9urJpPmtz7TC+Ol42tG7yYierneF8Wm8vP1p1VwUpPVXKO48x4cePtiIeRWI6OgbGQAAAAAAAAAAAAAAAAAAAAAAAAAAAAAAAAAAAAAAAAAAAAAAAAAAAAAAAAAAAAAAAAAAAAAAAAAAAAAAAAAAAAAAAAAAAAAAAAAAAAAAAAAAAAAAAAAAAAAAAAAAAAAAAAAAAAAAAAAAAAAAAAAAAAAAAAAAAAAAAAAAAAAAAAAAAAAAAAAAAAAAAA//2Q==;" vertex="1" parent="1">
          <mxGeometry x="454.6" y="650" width="60" height="60" as="geometry" />
        </mxCell>
        <mxCell id="j-iSR3cCKwgXwYgSjLxv-36" style="edgeStyle=orthogonalEdgeStyle;rounded=0;orthogonalLoop=1;jettySize=auto;html=1;entryX=1;entryY=0.5;entryDx=0;entryDy=0;fontFamily=Helvetica;fontSize=12;fontColor=default;" edge="1" parent="1" source="j-iSR3cCKwgXwYgSjLxv-11" target="j-iSR3cCKwgXwYgSjLxv-26">
          <mxGeometry relative="1" as="geometry" />
        </mxCell>
        <mxCell id="j-iSR3cCKwgXwYgSjLxv-38" style="edgeStyle=orthogonalEdgeStyle;rounded=0;orthogonalLoop=1;jettySize=auto;html=1;fontFamily=Helvetica;fontSize=12;fontColor=default;" edge="1" parent="1" source="j-iSR3cCKwgXwYgSjLxv-11" target="j-iSR3cCKwgXwYgSjLxv-37">
          <mxGeometry relative="1" as="geometry" />
        </mxCell>
        <mxCell id="j-iSR3cCKwgXwYgSjLxv-11" value="" style="shape=image;verticalLabelPosition=bottom;labelBackgroundColor=default;verticalAlign=top;aspect=fixed;imageAspect=0;image=data:image/png,iVBORw0KGgoAAAANSUhEUgAABAAAAAQACAIAAADwf7zUAAAABGdBTUEAALGPC/xhBQAAACBjSFJNAAB6JgAAgIQAAPoAAACA6AAAdTAAAOpgAAA6mAAAF3CculE8AAAAB3RJTUUH5QQXCCkgwygH7AAAAAZiS0dEAAAAAAAA+UO7fwAAUm5JREFUeNrs3XmcnQVh7+GbhSSsgiCiqHVBUVHArVZFrQvUpVL1XvelWq229Wp7a7GamUz2BUIgC4EESCCELYGwEwgQQtiXObOf2dfMvu9z5qy5B+j1thbCJJkkZ3l+n+eP+2lvFWfe9/h+55z3vP/jf8zOBwAAsoUfAQAACAAAAEAAAAAAAgAAABAAAACAAAAAAAQAAAAgAAAAAAEAAAAIAAAAQAAAAAACAAAABAAAACAAAAAAAQAAAAgAAABAAAAAAAIAAAAQAAAAgAAAAAAEAAAAIAAAAAABAAAAAgAAABAAAACAAAAAAAQAAAAgAAAAAAEAAAAIAAAAQAAAAAACAAAAEAAAAIAAAAAAAQAAAAgAAABAAAAAAAIAAAAQAAAAgAAAAAAEAAAAIAAAAAABAAAACAAAAEAAAACAAAAAAAQAAAAgAAAAAAEAAAAIAAAAQAAAAAACAAAAEAAAAIAAAAAABAAAACAAAAAAAQAAAAIAAAAQAAAAgAAAAAAEAAAAIAAAAAABAAAACAAAAEAAAAAAAgAAABAAAACAAAAAAAEAAAAIAAAAQAAAAAACAAAAEAAAAIAAAAAABAAAACAAAAAAAQAAAAgAAABAAAAAgAAAAAAEAAAAIAAAAAABAAAACAAAAEAAAAAAAgAAABAAAACAAAAAAAQAAAAgAAAAQAAAAAACAAAAEAAAAIAAAAAABAAAACAAAAAAAQAAAAgAAABAAAAAAAIAAAAQAAAAIAD8CAAAQAAAAAACAAAAEAAAAIAAAAAABAAAACAAAAAAAQAAAAgAAABAAAAAAAIAAAAQAAAAIAAAAAABAAAACAAAAEAAAAAAAgAAABAAAACAAAAAAAQAAAAgAAAAAAEAAAAIAAAAEAAAAIAAAAAABAAAACAAAAAAAQAAAAgAAABAAAAAAAIAAAAQAAAAgAAAAAAEAAAACAAAAEAAAAAAAgAAABAAAACAAAAAAAQAAAAgAAAAAAEAAAAIAAAAQAAAAAACAAAABAAAACAAAAAAAQAAAAgAAABAAAAAAAIAAAAQAAAAgAAAAAAEAAAAIAAAAAABAAAACAAAABAAAACAAAAAAAQAAAAgAAAAAAEAAAAIAAAAQAAAAAACAAAAEAAAAIAAAAAABAAAAAgAAABAAAAAAAIAAAAQAAAAgAAAAAAEAAAAIAAAAAABAAAACAAAAEAAAAAAAgAAAAQAAAAgAAAAAAEAAAAIAAAAQAAAAAACAAAAEAAAAIAAAAAABAAAACAAAAAAAQAAAAIAAAAQAAAAgAAAAAAEAAAAIAAAAAABAAAACAAAAEAAAAAAAgAAABAAAACAAAAAAAHgpwAAAAIAAAAQAAAAgAAAAAAEAAAAIAAAAAABAAAACAAAAEAAAAAAAgAAABAAAACAAAAAAAEAAAAIAAAAQAAAAAACAAAAEAAAAIAAAAAABAAAACAAAAAAAQAAAAgAAABAAAAAgAAAAAAEAAAAIAAAAAABAAAACAAAAEAAAAAAAgAAABAAAACAAAAAAAQAAAAgAAAAQAAAAAACAAAAEAAAAIAAAAAABAAAACAAAAAAAQAAAAgAAABAAAAAAAIAAAAQAAAAIAAAAAABAAAACAAAAEAAAAAAAgAAABAAAACAAAAAAAQAAAAgAAAAAAEAAAAIAAAAwI8AAAAEAAAAIAAAAAABAAAACAAAAEAAAAAAAgAAABAAAACAAAAAAAQAAAAgAAAAAAEAAAACAAAAEAAAAIAAAAAABAAAACAAAAAAAQAAAAgAAABAAAAAAAIAAAAQAAAAgAAAAAABAAAACAAAAEAAAAAAAgAAABAAAACAAAAAAAQAAAAgAAAAAAEAAAAIAAAAQAAAAIAAAAAABAAAACAAAAAAAQAAAAgAAABAAAAAAAIAAAAQAAAAgAAAAAAEAAAAIAAAAEAAAAAAAgAAABAAAACAAAAAAAQAAAAgAAAAAAEAAAAIAAAAQAAAAAACAAAAEAAAAIAAAAAAAQAAAAgAAABAAAAAAAIAAAAQAAAAgAAAAAAEAAAAIAAAAAABAAAACAAAAEAAAACAAAAAAAQAAAAgAAAAAAEAAAAIAAAAQAAAAAACAAAAEAAAAIAAAAAABAAAACAAAABAAAAAAAIAAAAQAAAAgAAAAAAEAAAAIAAAAAABAAAACAAAAEAAAAAAAgAAABAAAAAgAAAAAAEAAAAIAAAAQAAAAAACAAAAEAAAAIAAAAAABAAAACAAAAAAAQAAAAgAAAAQAH4EAAAgAAAAAAEAAAAIAAAAQAAAAAACAAAAEAAAAIAAAAAABAAAACAAAAAAAQAAAAgAAAAQAAAAgAAAAAAEAAAAIAAAAAABAAAACAAAAEAAAAAAAgAAABAAAACAAAAAAAQAAAAIAAAAQAAAAAACAAAAEAAAAIAAAAAABAAAACAAAAAAAQAAAAgAAABAAAAAAAIAAAAEAAAAIAAAAAABAAAACAAAAEAAAAAAAgAAABAAAACAAAAAAAQAAAAgAAAAAAEAAAACAAAAEAAAAIAAAAAABAAAACAAAAAAAQAAAAgAAABAAAAAAAIAAAAQAAAAgAAAAAAEAAAACAAAAEAAAAAAAgAAABAAAACAAAAAAAQAAAAgAAAAAAEAAAAIAAAAQAAAAAACAAAABAAAACAAAAAAAQAAAAgAAABAAAAAAAIAAAAQAAAAgAAAAAAEAAAAIAAAAAABAAAAAgAAABAAAACAAAAAAAQAAAAgAAAAAAEAAAAIAAAAQAAAAAACAAAAEAAAAIAAAAAAAQAAAAgAAABAAAAAAAIAAAAQAAAAgAAAAAAEAAAAIAAAAAABAAAACAAAAEAAAACAAPBTAAAAAQAAAAgAAABAAAAAAAIAAAAQAAAAgAAAADgkpuTkz8orOG5e4cuOn1948qKiNy0tnrhTFhcl/6/++K+QdMzcgqk5frYIAACAI2F6buCNS4rfvrz0A6uCZ68Onr+xOunCzbXf31L/w631P7m94d8fbFm0q/1lSx5rX/9897ay/onbmN+zbHf7H/8VkvIeaf27bY3Jf/Gk722p/+qmmuS/4xc3Vn9yXWXyHyDp7ctLkv9IydKYMSfgF4QAAAA4KG9YXPzhK8q/fmNt8ip8/s62S5/ouLGo967y/sfqh59oGG7qDyf1jEbjib2HYcl/m86RaPLfsbE/XNI+lvwHSEr+wyT/ka4P9Fz2ZOfSx9p/dU/Tz+9o/NbNdV/YUP3B1cF3LC+d4g0EBAAAwD68bkFh8ur5n+/bc12gZ2fdUEHraENfuGskGjs8l/kHt/5QrHs0umcgXNkVeqFl9MnG4bsrBjYX9i7e1fYPdzX9zeba915eNivPewUIAAAgWz+1Py03cNScwCmLi87fWP2HHS0P1wzW9413DkeHxmPRdLjin8hiicRYJD7wUhs0D0aqukMP1w6ueKLjx7c1nLUyOGNOYHpuYFqOKkAAwORJ/rfLsfMKjst0pywqOm1pcZZ468Ul715Rmg2S/0nT6PeSPAhfuoHyoI5kH6TO/Iv+2fkz8178KP+Zl5V986a6K57pKm4fC8cy5Fr/AJYMg3srB+Y+0vaZqyvfdWnp6xcWHeUsQACQDZIXDV+7oeYHW+sPhV/c2Zh8Yf3PN3VlpA35Pft1r1ta21k3VN4VygaP1A6m0e9lY37P0t0HeyT/5r49+zidv3dr/RdfugXzI2vLj55b4MUzvczKKzhjRdlXN9X82/bmLSV99b3hWDx7r/tfcckWuuq57n+8u+mvrqt+7+VlehgBQCZLvsy1DUW89JvZa96F+fJ9n/dXDbxjeakXz3S57v/YlRU/vb1h+RMd26sGvdq/9keG4omWwcjDtYOXPN7+3Vvrz1QCCAAy0tmrg/4OZGYTX89o9Nw15V48U9yfXVLyizubbi/rK2ob7UyTu3hTaskfWLIEntkzcl2g5wdbGk5dUuygQgCQOc5ZE/RCb2YTXyKx98+vrPDimYKm5uQfM7fg89dWXR/oqeoODYRc9k/Oe1+9Y7HqnvFrXuj+7DVVyZ+wm4YRAAgAM8u6fWKdAEghM+cE3rys+GNryxc82tbYP+74PKSr6Aotf6Ljk+sqT1ta7I5hBAACwMyyZd+4sXaqRyylgGPnFXxyXcWv791zb+VAfyjmyDxsS/60t5X1/3RbY/K/Q2d6tgACAAFgZhm/f7y7aVqui54j6fULi764sXrFkx2lHWMRH/Q5Qhscjz3ZOLxsd/tnr6lyrzACAAFgZgKAQ/Xdzd/fUn9TcW9ldyjq0j8FlvwtBDtD1xf0XHBdtW/IRQAgAMxMADBpN/ieML/wB1santkz0jsWdemfghnQORx9uHbwmzfVzpgTmOKgFQAgAMwsk/are/YIgMNmVl7B2auDs3e01PSMu+xPiz3eOJzMgDctLT7KaSIAQACYWWZs4aNtrmwOg+m5gfevLPvt9ubK7pCjLr02Eo7fXdH/w63171heOsUd8wIABICZpfuueaHbLY+H1LTcwJmXlf3L/c2P1A6FY/7sn67rGY3eXd7/t7c3vH5hkaNaAIAAMDMBwCs7YX7hz+9oTF76D4Rc+2fC2ocjNxb1nre+crr3zQQACAAzEwD8lz/85wQu3Fz7TNNI35iH+GbUIvFEY3940a62UxcX+USQAAABYGYCINtNmZ1/3LyCT62rvKeiP+KP/hm9pv7wz+5oTGaAR+kJABAAZiYAsvXqPyf/fZeX5T7UWt877tDKho3HEjcX9X7u2qpj53logAAAAWBmAiDLHDev8Fs31+2oHhyNxB1X2bN4Ym95V2j2Qy2nLyv2xAABAALAzARAtnjfyuCqpzsb+8OOqOzcQCi2vWrgc9dWORcEABxu564p9ypsZvu1u8v7Z+X59MKBO3ZewY9vayhsGw1F/eE/298KaOoPz93ZepLvCRUAcDjvPLtwc62XYDPbrxW0jh49VwAciKk5+WesKN1W1u8osj8uGk/sqBk8b32lN9YEABymm89+dkejF18zEwCHwesWFH5lU81zzSMOIfvvK+0Y++m2hhPmFzpTBAAIADMTAJngLReX5D3S2jQQ9jWf9mrrHYsu291+xooy54sAAAFgZgIgvV9pz11TvrW0r38s5uCxfW8sEr+nYuDTV1c6cQQACAAzEwDp+jL79RvrKrtDEY/2tYktGk+UdY59/cba6bluCRAAIADMTACk1QvsWy8uWfFEx5jv+Lf9Xyia+P2OllMW+XYgAQACwMwEQDqYnhv4wKrgDYU9rv7tIBogfsUzXWesKHVCCQAQAGYmAFL9uz4/sa5ye9XgeNTHfuygFoklbivt+/MrK6b5OJAAAAFgZgIgZX3u2qpA62jMh/5tMpbMyN0NQ8mDalqOk0sAgAAwMwGQai+qs/O/e0tdTc+4g8QmccmYTJ50f35lxRQNIABAAJiZAEidS/83LC769wdbOkeijhA7FBuNxL99S72nBQsAEABmJgBSwqlLipbtbh8c903/dgiXzMsfbm042VcDCQAQAGYmAI6s4+cXLn+8YzDk6t8O7RJ797YORmY/1OrrQQUACAAzEwBHzKy8wNLd7cNhV/92uN4HGI7+YUfriQsKnX0CAASAmQmAI3D1v2hX24C//dvhXfKQu+iBlpnuBxAAIADMTAAc5rt+L3uyYyTsUV92ZJb7cOtx87wPIABAAJiZAHDXr2XHxiLx3z/Y4p5gAQACwMwEwCF3grt+LTXWPRJ1T7AAgP0zNSd/yWPtXkDNbL/WPxY7dl72BsCsvMAyd/1ayqxzOPqLO5tm5bktRwDAxEzLyV/3XJdXTzPb3x2XxQHwv+/Z0zvmaV+WQmsejHzjprppue4JFgAgAMxMAEyqGXMC/3R3k2f9WgpuNBL/q+tqpua4thEAIADMTABMkqPmBL50fU1x+5jfvqXmgp1j562vdG0jAEAAmJkAmJw7pj52ZcVjDcN+9Zayiyf27m4YOnt10OWNAAABYGYC4GCdsqjowerBWPIKyyyFF4rGbyrqfdeKUlc4AgAEgJkJgAN3zNyCzYU9UVf/lg4bi8RXPtXpi0EFAAgAMxMAB2hmXmDho22hqMf9Wjq9D/D7B1s8rU8AgAAwMwGw36bnBr5+Y21937jfuKVdA3znlrrpvhhUAIAAMDMBsF/OXVO+q37IZ38sHVfXO/65a6tc6ggAEABmJgAm6tQlReuf7xqPuvy3tFwskXioZvCsVb4USACAADAzATCxD//85PaGkbCP/lsaLxxLbMjvOXVJsQseAQACwMwEwGv42NpyV/+WGQ2wbHf7SQt9KZAAAAFgZgLg1Z2+rOTpJs/8sgxZz2j0l3c1zZjjhmABAALAzATAKzl6bsHix9p976dl0mp6xj+5rtJljwAAAWBmAuAVXLi5trZ33J2/lmF7rH74NDcDCAAQAGYmAP7bh3+KbynujfniT8u4RWKJK57pmpXng0ACAAEgAMxMAPzxwz95Bf/n/uZh9/5ahq5vLHbRA80z8zwhWAAgAASAmQmA2flTcvI/fmVFSceYX65l8Cq6Qn99Q40nBAsABIAAMDMBkD8rr+BKr4eWBdtRPfjey8umuAoSAAgAM7MsD4ALN9f2jcX8Zi3jF44lkv/Vf+w8HwQSAAgAM7MsDoBj5hY82zzi12pZspFw/Lu31rsKEgAIADOzLA2AaTmB+TvbfPG/ZdWaByMfWBV0ISQAyM4ACFz7QrfXQTPL5gB4/8pgUZt7fy27Fk8k7q3oP22pJwMIALIwAHIDD1YPeB00s6wNgBlzAnMebh0a9+l/y7r1h2KzH2o5Zq6bAQQAWWZ6biC/xcdezSx7A+Cc1cEnGof9Qi07F+wMfe7aKpdDAgABYGaWLQEwY07gX+5vHo967q9l6aLxxE1Fvacv80EgAYAAMDPLggCYMjv/Q2vKC1pH/TYtm5dI7L3ogZZkDLsoEgAIADOzDA+AWXkFlz7Z4Vdp1tA3/sHVvhFIACAAzMwyPQDevzLYNhTxqzRL7poXelwUCQAEgJlZhgfA4sfa/R7NXl7HcPScNeWuiwQAAsDMLGMD4ORFRfV9436PZi8vGk+se67bdZEAQACYmWVsAPzT3U2jEY/+NfuPDY3HLt7d7rpIACAAzMwyMwBOWli0s24o4cs/zV5a61Bk0a62WXmeCCYAEABmZhkaAN+8qW7PQNgv0SwWT+S3jP78jsaZeb4GVAAgAMzMMjQAjp9fuOaZznDM3/8t2zcejd9V3v/pqytd/QsABICZWSYHwCfWVXj4l1koGp/zcOublxZPy3H1LwAQAGZmmRsAM/MCf9jR4o//ltV/+I8lqrpD52+snprjQkgAIADMzDI9AM5YUbqrftivz7JzicTerpHodYGeMy8rm+LqXwAgAMzMMj4Apubkf3VTjW//tOxcPLG3pGPsV/fsedPSYtc/AgABIADMLCsC4Oi8glVPd/rdHalFYomm/nBFV+gVJf9X41EfzjqE21bW96n17vcVACAAzCybAuDEBYU1PZ7+e5jWNxbbUT2wIb/71/ft+fHtDZ9cV3HumvL3Xl727hWlryj5vzpndfBDV5RfuLn27+9szHukdVNBz1NNw50jUT/Mg1zncOQPO1recnGJyx4BAALAzLIrAC64rtpfmA/F4om9A6FY62DkuT0jy3a3f/3G2rdeXDJjTiD5XzHTcgNTc/L36+Pmyf/PU1+S/D8/KjeQ/Nc5bUnx39xYm0yCbWV99X3jySQYjcTjfpcTWPIH9VDN4F9eU5n8MbrmEQAgAMws6wLg+kCPX9zkLnndX9A2eltp3y/vajp3TflhuMo8aWHh+RurkzFwb8VAUdvY0HjMb+HV1jwYXrSr7c3LfOJfAIAAMLOsDICTFhbV9vr8z6StqT98e1n//7m/+cNXlB+Rvy6fuLDwY1dW/Ov9zTcX9zb2h2MJ7wj8/0XjiV31Qz/aWu8P/wIABICZZW8AfPPGWn8tnpS1DIZXP915/sbqt15ccsSfITU1J/+0pcXJf5ich1qfax5RAcl1jUQve7Lj7NVBX/MvAEAAmFlWB8A1L3RHfWz84NY3Fl33XNcn11eeuLAw1X6/x8wteMfy0t/ct+f55uz9L7Vk/5R3hr57a/2JCwqnuMgRAPCq91rNzj93Tfmnr64kRdxdMeAi4xX3QPWgwyOlTMtNp48WJC8N81tGnUcHvKHx2J3B/o+sLZ+eG0jlK8upOfknzC/8wdb6ZAYMh+NZdek/EIrdUNDz5mUl/vAvAIA0s/75bpcar7jrC3ocHhywb91S1zIYdh4dwCLxRLAz9Nvte46em07v+bzl4pJ/e6C5tGMslgVv+4Si8eeaR355V5NP/AsAQAAIAPgP83a2JS+SnEf7u4FQ7Jbivr+8puqo9Lyy/PTVVdcHerpHM/ZJAokXv+P/xc9lfXRtxfRcV/8CABAAAgD+3xdH3lTU6yTa3/WHYslwevslafyRkimz809bUvyLOxuL2scy8p2A4vaxH2xtSP5ndJoLAEAACAD4/85dE3yyadhJtF8bDsf/blvj6xYUZsABMDMv8IFVwbvK+zOpAcajiZuKe89aFTzKx34EACAABAD8iW/eVNs+HHESTfx20uaB8Jevr8mwe0mTF8pzH2ntG0v7BwaEY4nCttHvbak/Ng0fxicAAASAAOBwXPZd9ECzM2iCiyf2VnSFvnFjbUb+XXlmXuDHtzWUd4XS962AjuHIuue6P7g66NQWAIAAEADwyt64pDh58DiDJrianvFv31I3Ky9j/7Sc/I/2tRtqnmoaTruHQiT/gV9oGf37OxuPn1/ovBYAgAAQAPCq3r+yLL/VEwAmtN7R6K/u2XN0XoZ/sGRaTuATV1UkGyCNPgv00iPYuj+xLs2evyEAAASAAOAIOG995bgvAJ3YR/+vfLYrS/66PDUn/wOrggXpUIbJ30tld+in2xpPWVTkCV8CABAAAgBew4w5gX/d7gaACV1lPt4wdFSW/XX5tKXF28r6U/azQC8/3HdTQc/pHu4rAAABIABggo6ZW7Ax4AaA11593/iHryjPwiPkfSvLHq4ZjMRSrgFC0fjzzSO/8HBfAQAIAAEA++WE+YVPNHgCwGtsJBz/w46WZCxl4REyLefFD4ntqhtKnfcBEi9+1c/LD/ct93BfAQAIAAHgCGH/vH5hUduQJwC8xh6sHnz3itKsPUhevic40DqaIgVQ1Dbq4b4CABAAJgA4QKcsLsqkh78eirUMRn50W0OW/6V5ak7+FzdU943Fjuzv4sWH+xZ5uK8AAASACQAOwpeur3Hu7GPJOtpa2nfiAt8rnz8lJ/+bN9UNjseO1KX/s3tG/tfNdcd5uK8AAASACQAOxve31Dt39rGukeiPbmtwnLzs6LyC325vHggd7gZoGQxf/mTn25eX+BUIAEAAmADgYM3b2erc2cfNprvqhk71WfP/5C3Lijfmd4cO14MjovHEY/VDP9xa76t+BAAgAEwAMDlWPtXp3NnH539+dc8eB8mf3Axw7pryR+uGDsOtI0394SWPtZ+9Oug7/gUAIAAEgABg0twZ7Hfu7OPPz6cv8+f/PzUtN/Dl62uaBsKH7icfS+x9smn4S9dXnzC/cIqfuQAAEAACgEm0vWrAufNqu7ui39Xnq70P8E93N41G4ociurpGonkPt560sNAf/gUAgAAQAEy+QOuoc+fV9q2b6xwh+7gh+Jbi3sn9gfeHYncG+89bX+nSXwAACAABwKHSORJ17rziukej71he6gjZhw+uDha3j03OZ37iiaL2sT/saPGZKwEAIAAEAALgyOzB6sFTlxQ5QvbhqDmBH21t6DroQ2g8mthU0PPJdRXHzPUd/wIAQAAIAATAEdrix9qP9cyp13LyoqI1z3RFD+IrgZr6w/94d9NpS/3hXwAACAABwKF39upg/1jMufOKn0j53q31Pok+EWesKL2/cmB/EyCRePFDVlc/3538P5+W6zv+BQCAABAAHBbnrinvDwmAV1jLYPgvr6lyhEzQV66vqewKTTwBxqOJ3Q3D3765zuO9BACAABAACICUWGHb6EfWljtCJn4zwK/v2TMSntC3gtb2jq96uvOMFW6wFgAAAkAAIABS6Q7gd7tC3R8nLChc+2zXvn+qoWh8e9XA32yuPXFBoZ+YAPBTAASAAEAApNA2FfS8cYnbUvfP25eX3Fn+qg+W7hiO/nZ781svLpnuE/8IAEAACAAEQKpt3XNdr1/oO0D3z5SXbit/tG7oP38pUPL/OTgeu6u8/30rgy79EQCAABAAHGGfubpyQAC80mY/1OLwODAfXVu+o3owHHuxAcYi8aeahn92R+Px833mBwEACAABQAr4ye0NE7xxUwAwcR+/smJDfndpx9jyxzvOXRP0LZ8IAEAACAAEgADIcKctLT5vfaU//CMAAAEgABAAAgAQAIAAEAAIAAEAAgBAAAgABIAAAAEAIAAEAAJAAIAAAASACQD231c21QyN+xpQAQACABAAAoDs8JG1HgQmAEAAAAJAAJA1PAn41Xb1890nL/IkYBAAgAAQAAiArDmb3rik2BECAgAQAAIAAZAVu69y4J2XljpCQAAAAkAAIACyYvmtox+6otwRAgIAEAACAAGQFescjn5+Q5UjBAQAIAAEAAIgK5ZI7P3xbQ3TcgMOEhAAgAAQAGSO960M9o0JgFfelc92vW5BoYMEBAAgAAQAmeP4+YXdo1HnziuuuH3sLctKHCQgAAABIADIKJ0jAuCVNxaJn7e+0hECAgAQAAIAAZBFnwJyhIAAAASAACCjtA5FnDuvtq6RqOcBgwAABIAAIKPsqhty7rzaYom9v7yzyUECAgAQAAKAzHF/5YBz51W/DHTv3l31Q6/3JgAIAEAACAAEQPZ8CugHW+sdJyAAAAEgAMgQVz7b6dzZ56eAEtvK+k9bWuxQAQEACAABQCaYt7PVubPvdQxH/vb2hqk5jhYQAIAAEACkv9/vaHHuvObuqRh456WljhYQAIAAEACkve9tqXfuvObGIvFf3tU0Y07AAQMCABAAAoD09pVNNc6diSzQOvoubwKAAAAEgAAg3Z21KujcmdjdwHs3FzrFQAAAAkAAkOZOXVyUSDh7JrRwLPGTbY3uBgYBAAgAAUAaO3lRUddI1OkzwQU7Qx9dW6EBQAAAAkAAkK5OXFBY1Dbq9JngIrHEPRX977u8zJEDAgAQAAKAtHT8/MKHagadPhPfSDi+7rmu05d5NBgIAEAACADS0LHzCm4o7HH67NcGx2M5D7Umf3SOHxAAgAAQAKSZGXMCv93e7PTZ34Wi8dyHW2fmaQAQAIAAEACklem5gZ/d0ej0OYDFE3sveqDlxIWFjiIQAIAAEACkk89cXRmN+yrQA1n/WGzezra3XVziKAIBAAgAAUDa+Oja8rahiDPoABsgFLvmhe73Xl42xXeDggAABIAAIC2ceVnZU03DzqAD3mgkvqN68IOrg44lEACAABAApIHTl5VsLe1zBh3c/QCJlsHI5zZUHe22YBAAgAAQAKS44+YVLH6s3Rl08BsIxRY+2vb25SXTcwOOKxAAgAAQAKSun25rCEXjTqKD31gkfnfFwFeur5nlrQAQAIAAEACkrAuuq67pGXcSTcpi8USwMzTnkdYTF/iGUBAAgAAQAKSkD64K7m5wH/Bkbmg8dntZ/2evqXJ0gQAABIAAIOWcML9wU0GPZwFM8lsBL90ZvHR3+zsvLZ3mrgAQAIAAEACklN892DI0HnMeHYoVto3+YEv9G5cUO8xAAAACQACQKr64oaq2120Ah2qhaHxjoOcr19ectNCNASAAAAEgAEgBJy8qeqx+yKeADt3iib31feNrnun8zDWVM+b4RBACAEAACACOtCWPtY/HJMAhfyugumc8+aM+ZXGRQw4BACAABABH0qfWV/aPuQ3gcCwZWnW94/94V9Opi4uOcn8wAgBAAAgAjpQXWkadSodt0XjiuebRv7+z8czLynxNEAIAQAAIAI6AvIdbnUqHeeFYYlf98M/vaHyPDEAAAAgAAcBhds6a4HjUbQBHYIPjsQeqB39z354/u6Rkao5DEQEAIAAEAIfFCfMLn24acTYdkSUSe3vHYk81Df/m3j3Hzi1wNCIAAASAAOCQm54b+MWdTXHvARzBDNi7dywSr+8b//cHW952SYkvDEUAAAgAAcCh9YFVwdKOMSdUKqymZ/z3O1r+/MqKE+Z7fBgCABAAJgA4NF63oHD54x2xhHcBUmWN/eElj7X/5TVVniKMAAAEgAkAJt/UnPyvb65t6g87p1Jn0Xgi2Bm69oXub9xYe4zbAxAAgAAwAcDketPS4m1l/c6pFMyAPQPhHTWD//Omull5MgABAAgAASAAmCRTcvL/+b49fZ4KnKpfFjQ0Hi9qG/v7O5vevKx4Zp67hBEAgAAQAHDQ3r8y+HzLqPsAUnwN/eF5O9s+ckX5iQvcHoAAAASAAICDM/eRtpCHgqXDmvrDK57s+Osbak5fVjI1xxsCCABAAAgAOCDvXlHWOhhxZqXF4om9TQPhO4P9/3B305uWFjt6EQCAABAAsN+m5QaufLbLmZVe6x6NPt4w/PsdLe9eUeoYRgAAAkAAwP55z2WlbgVOv7uE9+4di8Yb+sLJV8sPrSk/dl7B1BwHMwIAEAACACZgVl7Biic7nFzpu9FIfGtp35c31bxjeanvC0IAAAJAAMBrmJKT/4UN1R3D7gRI7w2H4ztqBv/lvuYPXVE+Y44MQAAAAkAAwKt7w+Kidc91R+O+DijtNxaJP9U0vPSx9r+4qtLjhBEAgAAQAPDKpubkn7+xOtg55hTLjIWi8fKu0HWBni9fX3O0DEAAAAJAAMB/d8zcglVPdYZj3gTInEXjiYFQbGfd0Pe21B8/v3B6rs8FIQAAASAA4D/55LqKMm8CZOJi8cRzzSO/vKvpA6uCx83zOGEEACAABAC85Kg5gYt3d4x7MHDmviHwQsvo4sfaz1tfecJ8GYAAAASAAIDZ+X92SUlt77gTLbNX3D629tmur26qOV4GIAAAASAA4KIHmp1oGb9ILNHQN357Wd93bqmbluPeAAQAIAAEAFnslEVFL7SMONey5N6AofHY7vrhb99Sn/y9u0sYAQAIAAFANpqak/+l62t6x6JOt2y7PeAfXrpLeFaerw1FAAACQACQfW8CXPFMZ8RXgmbl7QEXPdDykSvKPUQMAQAIAAFAdr0J8Llrq0o6fCVolt4e8MyekeVPdHz2mirvBiAAAAEgAMgWx8wtWPBo23A45qTLzoWi8aruUPKl+IOrg04HBAAgAAQAWeGdl5Y+1TTiY0BZ/m5Ax3Dk9tL+T62vPHpuwZQc5wUCABAAAoCM9qXrq9uHIs47GwnHt5T0nb+x+g2Li5wXCABAAAgAMtklj7c77+zlDYRiVz/f/debak5fVjLVuwEIAEAACAAy0tsuKXm22WMB7D8WT+xtHohsKen7u22Npy7xbgACABAAAoCMMzUn/8LNNV0jHgtg/yUDOoajj9QOfeeWet8UhAAABIAAINOcsKBw2e72WNz9wPZflkjs7Q/FHq0b+vrm2hMXFPpQEAIAEAACgMzx3svL7q0ciGoAe6WFY4mddUPfvqXuLctKnCwIAEAACAAyxAUbqyu6QgrAXm2haOK20r6vXF/jm4IQAIAAEABkgum5gX+6u2kkHHca2j7uDWjqD2/M7/nGjbXHzXNvgADwIwAEgAAgzR0/v/DqF7qchrbvReOJZAZsK+v/woYqZ40AABAAAoD0dtqS4vwWjwe2114skegaid5Y1HvWquDMvMAUp48AABAAAoB0lLyM+/iVFbW9405Gm+A6R6Krnu5MHja+MFQAAAgAAUBampkX+PFtDS2DEeejTXxV3aHfPdhyzurg9NyAk0gAAAgAAUCaOWlh0UUPtHR6OpjtzyLxxO6G4d/cu+cdy0s9NEAAAAgAAUD6NcDKpzrHo24HsP1YIrG3dyz6eMPwj25r8FaAAAAQAAKANHP8/MI7g/0eDmYHkAGD47G7K/o/urZ8xhz3BwsAAAEgAEgfb1hc9EjtoAawA1vfWGzlU50fWVt+zFz3BwsAQAAIAAFAOpiSk/+xKyueaRqJJUSAHeDKO0Ozd7SctTLohBIAgAAwAUAaOGpO4PPXVj3VNOx9ADvgRWKJh2uGfnRbwymLi5xTAgAQACYASIMG+Ow1VYHWUW8D2MHcGNA+FLmxqPdjayum5bg/WAAAAsAEAKltWm7gw1eUV3SFJIAd1FsB8cSegfDCXe0nLSz0VaECABAAJgBIdWetDJa0j/kskB38itvHvn1L3cmLiqbIAAEACAAB4PAgZU3NyT9vfeUze9wTbJOw3tHolc92fWp95cw8nwgSAIAAEADgnmDLgsXiiUDr6OyHWk5dUuzkEgCAABAA4J5gy4oNjsfuLO//1PpKJ5cAAASAAIDUvSf4Iy/dE+x9AJustwIa+8Pzdra9aWmxuwIEACAABACkqLddUvJg9UA4JgJs0vZE4/BfXVd93DxPDhYAgAAQAJB6pszOf8+K0juC/aFo3Mlrk7WO4cjcR9rOWFHqFBMAgAAQAJBypubkv+/ysquf7x4IxZy/NlmLxBLbyvq/uKF6Zp63AgQAIAAEAKSeNy0tXrirbTTifQCbvAaIJ4KdoX/d3nzSwkKnmAAABIAAgJRz7LyCX92zJxR1P4BN2pIH03A4fnd5/9uXl3hssAAABIAAgFT8ONCXr6+p6g5FfTeQTerqese/dUvdiQu8FSAAAAEgACDFzJwTuOC66h3Vg24Ltsld90h00a72dywv9SWhAgAQAAIAUsu0nMA5a4LXvtCtAWxyNxyO3xHsP+/qymm5ASeaAAAEgACA1HL6suI5j7RqAJvcxRKJss6xb95U5xQTAIAAEACQircFf/fW+oa+cXcE2OSuYziS81DrCfMLpzjRBAAgAAQApNrHgf7iqop7KwaGw94KsMncaCS+ubD37NXB6T4OJAAAASAAINW8Y3np4l3trYMRJ7hN4qLxxMO1g1/cUK0BBAAgAAQApJxj5hV8f0t9Uduoc9wmd4HW0e/eWj9zjgYQAIAAEACQYqbm5H/66so7gv2RmHsCbDLX0Bf+tweaNYAAAASAAIBUbIA3Lim+6IHmlsFIQgXY5K1zJDJ/Z9upi4udZQIAEAACAFLRB1cH76scGI24M9gmbZFYYt3z3e+81JPCBAAgAAQApKTj5xde8nh7be94zHsBNkkLxxJbS/vevzLo/BIAgAAQAJCKjp1X8LUbapNXbMPhmHPfJmv3VAyceVmZ80sAAAJAAECK3hXwtktKfn3vnrrecae/Tcqi8cQdwf73Xq4BBAAgAAQApKqZeYGzVpZtK+uL+DyQTdL9AE82Dn/2mir3AwgAQAAIAEhdx8wr+PFtDU83jYx4bLBNxko7xi7YWD3NY8IEACAABACksvdcVrZoV1uwM+TVwA5+JR1jX9hQ5bQSAIAAEACQ0o6aEzh/Y/WWkr7+kJuD7WCX3zr6yXUVTisBAAgAAQApbcrs/LdcXPKT2xteaBmNxd0XYAe+eCLxYPWge4IFACAABACkgRlzAn92ScnsHS3do1EVYAe8SCxxZ7D/zMvLpjitBAAgAAQApIU3Lyu5Nr+7eTCsA+yAt73qxfcBNIAAAASAAID0MCuv4Cubam4p7m0biqgAO7Al/6vnzUuLnU0CABAAAgDSxmlLin+0teHeyoFwTATYfi952Kx9tmvGHF8MKgAAASAAIH1Myw28a0Xpz+9ofKJxOCIDbD83HI7/2wPNMzWAAAAEgACA9HLUnMBblhX/8717GvvDvibI9msNfeFv31I31UOCBQAgAAQApKPXLyz6t+3Nld2hYc8PtgmvvCv01U010z0kWAAAAkAAQDqaMjv/jBVl83a2Pd88MhaRATahPVI79KEryr0PIAAAASAAII0/FPSRteWLdrUFO8e8kthrLhpP3FDYc8qiIueOAAAEgACANHbC/MKPX1mx/ImO5oGw1xPb90bC8d8/2OKsEQCAABAAkPaOm1/woSvKVz3d2fniFwW5RdhedR3D0c9vqPZ0MAEACAABABni9GUlv3ugpcotwvYqS9ZhfsvouWvKp7gZQAAAAkAAQMY4Y0XpvJ1tz+wZGZEB9t82Ho1fF+g5fZknBAsAQAAIAMisW4TPWR383YMtTzYOe4qw/cm6RqK/uqfp6LkFzhQBAAgAAQAZZWZe4AOrgj+/o/HxBk8Rtv+y4vaxj19Z4YNAAgAQAAIAMvPdgLdeXPL9LfXJDAhFPUbYXlyyB7eW9p24oNAJIgAAASAAIJN9YUP1I7VDzYNhnwuy5H67vdmjwQQAIAAEAGT854IKLriu+tr87pKOMZ8LyvI19YfPWR10UggAQAAIAMh8Jy4o/MzVlQsebQt2hmRA9n4QKJ7YVNDzOh8EEgCAABAAkCWOnlvwF1dV/Ov9zc81j4xHZUA2rmM48re3NTgXBAAgAAQAZJFZeQVvXlb8/S31hW1jsbgnCWfX4om9D1QNvntFmRNBAAACQABANrrguuq7yvv3DLhLOIsWiSXyHmk9xmMBBAAgAAQAZO1dwp+9pmrtM135LaNjEc8Szoq9+FiAqzwWQAAAAkAAQBY7ak7gY1eW//uDLTvrhvrHYl6sMn4rnujwJoAAAASAAAAZEHjf5WU/2tpwa0nfSNi7AZm8zuHoeVdXOuYFACAABADwYgacvKjok+srNxX0DIfjHiacqbuttG+KA14AAAJAAAB/NDUn/12Xli58tL2obWwg5HNBmbbRSPwLG6sd5wIAEAACAPhTb7m45J/v2/Ng9WD7UCTmi0MzZclf5dbSvhPmey6YAAAEgAAAXsmblxb/aGvDhvzu+r5xGZAZ2zMQvnBzrWNbAAACQAAAr/qhoDcuKfr01ZVLHmuv6Ql5TUv3ReKJq57r8nVAAgAQAAIAeA3HzSs88/Ky3z3YUtYx5i7htF5Jx9hnr65ySAsAQAAIAGBCjp9f+J1b6h6qGewYjkalQHru0ic6jncngAAABIAAACbu6LyC/3Vz3Y1FvZXdoVDUAwTSbIHW0bNXBx3GAgAQAAIA2D+vW1B4wcbqpbvb81tHvReQRovGE7+8q+moOQHHsAAABIAAAPbbCfMLP3xF+UUPtJR2jHnRS5c93jD8+kVFjl4BAAgAAQAcoFl5Be+8tPRn2xqK2kbdG5D6i8QSn3YrsAAABIAAACbl9oALN9furBvqGol6ekAqb1tZ/9QcR6wAAASAAAAmJQPmFnx/S/3W0r7a3nFvCKTmkoX2zuWljlUBAAgAAQBMmpMXFX11U83qpzv3DIS9HqbawrHEv9zX7CgVAIAAEADAJDtpYeH5G6uXP95R3zvuVTF1lkjsfahm0AMBBAAgAAQAMPmm5Lz4BLGzVweX7W7vH4v5SFCKrLZ33K3AAgAQAAIAOLTesLj4sic7GvrCYxFPEDvynwK67MnO6bkeCCAAAAEgAIBDaVpu4Jw15Sue6ChsGwt7P+CI7uGawTNWuBVYAAACQAAAh96svIJPXFWx4NG2Mk8QO3Jr7A9fuLnG0SgAAAEgAIDD5Oi5BZ9aX7loV3udW4SP0KeAfvdgy4w5PgUkAAABIACAw3aL8Oz84+YVnL06mHwtHQm7MeBw79aSvtOXlTgOBQAgAAQAcASctSp4U1Fv+1DEU4QP2zqHI5+5utKxJwAAASAAgCNjxpzAVzfV3BHs7xiOqoDDs1/c2XiU7wJy7gECQAAAR9CpS4p/tq3x3or+uAY49Ntc2HuCJ4I56wABIACAI2tabuBdl5Ze9EBLdY/7gw/5dwGdtqRYADjrAAEgAIAjb1ZewYeuKN8Y6Bn14LBDtnhir0cCCwBAAAgAILV8YUPVQzWDQ+MxL62HYiuf6hAATjNAAAgAILWctLAo9+HWYGfIdwRN+gpaRwWAcwwQAAIASDlHzQl8fkPVlpK+gZC3AiZzw+H4m5YWCwAAASAAgJQzNSf/bZeU/PrePQ19YS+zk7VQNP4/b64VAAACQAAAKerovBcfHpzfMuKVdlIWjSdWPNEhAAAEgAAAUtpx8wsX7mrvGY26J+Dg9+yekax+HJjTCRAAAgBIj7cC5hb8+LaGso6xmGeGHdyCnaEzLysTAAACQAAAqW56buD8jdUP1wxKgINZ80D4ws21AgBAAAgAID2ctTJ4V3m/F94D3uB47KIHmgUAgAAQAEDaeOelpTcU9HrtPbDFE3uveq5LAAAIAAEApJPTlhavfbZrNBL3CnwAe7B68O3LSwQAgAAQAEA6edvFJVc91z0S1gD7vfyW0Y9fVSEAAASAAADSrQEuKbk2v9v3Au3v6nrHv7qpRgAACAABAKRlA+yuH/Y6vF8LReP/cFeTAAAQAAIASEsfvqK8eSDspXi/Nm9n28y8AgEAIAAEAJB+puUGvnlTXedI1KvxxHfNC91vWFwkAAAEgAAA0tKJCwqXPNbuS4EmvkdqB9+9olQAAAgAAQCkqw+sCu6qG3I/8ARX2DZ6zuqgAAAQAAIASNsPAuXkf/uWutahiNfkiax9OPKp9ZUCAEAACAAgjR09t2BzYU8s4V2A114snrhgY7UAABAAAgBIb29cUtzmTYCJ7Vf37JkxJyAAAASAAADS22+3N3s02EQ25+HWWVn4TaDOEEAACAAgw7z14pJA66hX5tfcuue6jp9fKAAABIAAANLbjDmBX9+7JxLzJsBr7LbSvhMXCAAAASAAgPR37ppgfsuIF+d974WWkWx8FpjTAxAAAgDIPLPyCububPN1QPtesHPs1CUCAEAACAAgI3z9xtqm/rDX532sPxQ7fVmxAAAQAAIAyARvu7hke9Wg1+d9760XlwgAAAEgAIBMMC0n/9InOsajPgW0r529ulwAAAgAAQBkiJ/c3tA5EvUSvY99bXOtAAAQAAIAyBBnrw5WdoW8RO9j37y5TgAACAABQNY5YX7hh68oz8a7IbPgN5vviWD73HduFQAAAkAAkGU+ckX58sc7ClpH5z/a9rosfChSptteNeC7QPex325vFgAAAkAAkC3euKQ4efXzzJ6RaPzFK8S6vvELrquemhPwk8kk1zzfHYsrgFfdst3tAgBAAAgAMt+MOYG/uq56R/XgYCj2x2vD5FXiw7WDJy8q8vPJJL+5tykcEwACQAAAAkAAkK2OmVvwoTXlNxf3ReOv8MGQ5P9o2eMd03O9CZA5fn5H47gAEAACABAAAoAsNCuv4P0ry/6wo6Vrn98L2TcW++KGaj+ujPHDrfUeBSAABAAgAAQA2fhx/1/d0/RY/dBYJL7vgzmR2Pt4w9B7Liv1Q8sMn72m6jV/6QJAAAAIAAFARvnaDbXbyvq7JvxAqNFIfMWTHSfM941AmeDDa8tHBcCrb+VTHQIAQAAIADLHGStK1z7TtWcgvL9fA9PUH/76jbV+gAIg43d/1YAAABAAAoC0Ny038LaLS367vfkALv3/uN0NQ2evDk7x8xQAGb2HawcFAIAAEACktzctLf7WzXVPNAwf/IF92ZOdJ3o0mADI6N1Y2CMAAASAACBdHTev4Isbqzfk9wyEYpNyYPeORX+wpd4PVgC4CVgAAALABACpZUpO/vtXBlc82VHRFYpM6mNfyzrH3nt5mZ+wABAAAgAQACYASBVHzy342R2NRe1jh+LbHpM1saW078SFHg8sAASAAAAEwP9t787D7KrrBA8/JIFgAKOALCKIoDbigvqwiEPLzNO0iOKCMq1tt/OMNuo0zXQ3dDfdUpV93wghIQlLSAhhFcISEgIJJEEgyVC39n1Lal+TWm/d/WZupB+HZzR7Lbeq3u/z/glJceucw/mce37nGAHAkBqTkfXh6Tk3r63YUd0zoK967Q7Hp73RmMoMn/lw9BervAdAAAgAQAAIAIa/8ZMD1z9ctmJ3a3swNghbeG1n5OfP7Tl1sgYYfm5bv3dA+1AACABAAAgAGHBfWFL0H6/Vl7aFBnMjDzQEU8kxNiPg8x9ebn+pJiIADj3/9mqdAAAQAAKA9PWRGTm/eH7vtqruwb+pI55IvlbR9Ym5+X4Lw8vcHU2xhAA45Pz46WoBACAABABpesf/11aUbijtbAsO2elcNJF8rnC/38XwsjrQHk8KgEPOD5+sEgAAAkAAkHa3+39mUcGCt5ojqfO4oT6Ri8aTc3Y0nTbVYoDhYWxGYGdtr0O0ABAAgAAQAAwPJ2cePPW/Y0NteXs4fa7htgdj/7Kp7oxp3hA8DFw4Lz+vqc8h+jDzzdXlAgBAAAgA0sKZM3J/9ts9m8u7eiNp9wzHPfsjv3h+r+8B0t8Nq8pSvyyH6MPMpxcVCAAAASAAGGKnTAp846GyNYH2+q5o2m7zJa2hbz9WMS7TQ4HS2p0baztCcYfow8yF8/IFAIAAEAAMpY/PzZv5ZmNZWzia3o9uTCQPlLSFrl1Z6leWziX5yHttngB0mKloD587O08AAAgAAcAQGJORlToR+dULNaVtofjwOWVr7I5+fknRSRl+g+nossWF26q7HZ8PMzmNwY/NyhUAAAJAADDYzpmVe+Pq8lfLu4bdlp9MHthW1X3F0qIxGiDNpKrsx09VNaTxXWTpMK+Udn50Ro4AABAAAoDBM35y4LoHS1fsbmvqiQ7TOzWi8eSrZZ1XPlCsAdLKxOk5973T4uB8+FmX0576oAQAgAAQAAySC+bmz93RlNvUl+a3+x9xwr9vgCuWuhcojXxhSdGuOm8AOMLM2dE0YUq2AAAQAAKAwbjw/5Onq7Lqg8FoYmTsAqmG2VbVffGCfL/cdDA2M/Djp6rDMet/jzB3b65P7YwCAEAACAAG7Lbse7LOmJbzF6vKt1Z2942UU/8PrgfIbghePD/f9wBD7sJ5+QXN3v915PnbZ/eMzRQAAAJAADBQV/2zr15esuTdlrZgbKTuCAfXBFd3X3G/NcFD7K5NdQ7LR5xQLHHDqrLRuIXYQwABIAAYhPsxPrOo8F831eU1jfyLsu+vCb7uwdLxk7wjbGicOzuvpDXksHzEqdoXTjW5AAAQAAKAfjZxes5t6/e+XtHVE0mMkt0hHE/uqu29cXW59wQPvlMmBaa/2Rjz9q+jmN/t7fnc4kIBACAABAD96WsrSp7J39/aG0uOsvOxg+8Jbg193XuCB91Na8or94Udk49m1uXsO39OngAAEAACgH5Y6Xvq5OzLFhfOf6u5KxwfzZdim3qit6yrTH0atorB2fA+e2/h6xVdSVf/j25Se+jpU3MEAIAAEACc2O3+GYHUqf+dG+sKmvviTsQOHGjpif2vF2s+OiPXtjHQzpyRu+Ct5pH3dKmBW6xyx8s1o3RrsbcAAkAA0F/OmZ3702eqX6/oCjoJ+8A0dkcnbWk4Z5YGGECnTs7+h5drmrqjtrej/XqqO/pXT1UJAAABIAA4TuMyA9c/XPZ4zr4GZ2B/atqDsUfea/v46LzfelB857GKmo6ILe3op6il7789UiYAAASAAOB4fHxu3oLfNZe1haNx9/wccsKx5Obyrovme1Vw/7tscWF5u4W/xzbbqrsvG52PABIAgAAQABy3MRmBM2fm/vrFmpqOiKcuHs2kPqTcpr6b11aOn+zxoP225uSLS4rere213uRY5/nCjrNm5goAAAEgADgqJ2VknT0z99uPVWwq64w79T/Gqd4fuf2lmtQHeJJt6cSMnxT4Lw+WvlnVbRs81kkV+5J3W0bvxmPnAQSAAOBYb/f/+srS5btaG93uf7yzLxh7YGfr50btDRj94eRJge+urdxZ2ytBj2PaemO3rd8rAAAEgADgyCZOz7l7c31WQ9BZ14lfgn2jqvv6h8tsVMfnlnVVhS0hG9LxTXl7+OoVJQIAQAAIAI7gugdLN5V1dYbiNvh+mVRClbSG7txYN0pfxnQC/m793r2e+XMC83/qekf1++nsQoAAEAAc8Y7/C+bmT9na2NgdtdSy3ycYTawv6rhqeYkXBh95yW9m4JPzC5bubFGhJ/jt0/2jeQGAAAAEgADgiM6YlvNE7j4b+YDOno7If7xWf8mCgrEZHhD0p02Ykn3z2oqtld0eOXWCE4olRu8rwAQAIAAEAEfj7Jm5Bc19NvIBvyMoeWBDScfPnt1z3mzvC/v/XbKwYNKWBrf99Mv0RBIXzMsXAAACQABwSKdOzp76RqONfHAaoKkn+lTe/h89UfWhKe4IOij1OdzyROXLJZ2hmAv//TN5TX2jfbuyXwECQABwhDUA92RdtbykyBNXBvEW7Yau6IaSzpvWVIzmhQFjMrIuv6/wkffa6ruicatP+m+W7mwRAI7sgAAQABz5KuzkrQ3uvR7MSX3YvZFEoCH4Dy/XXjQ/f/R8IXDS72/3v3RhwX3vtLQFYx442+/fMn3v8UoB4LAOCAABwJFdvbxkV22v67BDMrmNfVPeaLx2Zck5s3LHZIzcU/+MrDNn5n59ZcnMbU11XV4zNyBT3xU9b06eAHBMBwSAAOCoVgL85rV6j18cwqntjKzKar9t/d6vLC0+edJIe1jQubPzbn2yavmu1vK2kKv+AzdP5u6bOD1HADimAwJAAHBULpqfv72625cAQzsdofjO2t6Vu1tvWVd58fxh/yyXUyYFLr+v6J9fqXuusKOu00N+Bnz+/sWakVePAgAQAAKAAXTz2oreSMIGP+QTTyTruyLZDcGH3mv74brKs2fmDrttacKU7FufrHqhqKO4NZSqGmE5CNPWG7v+4VLHMQEACAABwDEYmxFYm9PuXC2tSiAUS3SH40/k7vv1izVXLC0+Z1buGdNyxmWm11XekzKyxk8OfHRGziULC36wrnL5rtaGrmjqJ3ezz2DOc4UdF83PdxwTAIAAEAAcmz9bXFjeHrbNp+dE4snClr5Hs9r/7vm91z1Yevl9hR+fm3fa1CF7gtDE6TmpM84v3V/0rdXl/765fmNpZ0efZSRDM32xxD9uqB2b6VXTAgAQAAKAY79p+/aXajqsBk7vSSQPtPbG3qnpfTJ335wdTb96oeY7j1V8ZVnxpxYUnDaQTxSdMCX74gUFVz5Q/N21FXe8XLv4nZb1RR2BhmB32AYzxJPf3PeNh8scwQQAIAAEAMfjE3Pzn8nfb7MfTld/o4nq/eGdtb2by7ueyN23fFdrxuv1P39+73fXVl61vOSz9xamztonHGMYnD8nL/UvfmFJUeoP+Ztnq+/cWLdsZ+u63H2pv2J3Xe+e/ZGo+3vSaVIl9rFZuQ5fAgAQAAKA41wJcNOaipJW7wYext8P9EQSLb2x2s5IWVu4sKUvv6kvddb+bs1By3a1LtvVcihbKrve/8dyGoOpf7G4NZT6Q5p6oh2huJW8aTtd4fi/b64fwS+REACAABAADHwDZAbu3lzntQAjcmKJ5GE4xx+Ok0q1K5YWOXAJAEAACABOyMdm5b5Y3OGE0Jj0L7rlu1odsgQAIAAEAP3gmhUlNR1e3mRMWk9vJHH18hLHKwEACAABQP/4t1frbP/GpPNsr+4+2dM/BQAgAAQA/eW8OXmvlnXaBYxJ2/nrp6sdqQQAIAAEAP3mpHuyrnqguKC5z1IAY9JwiltD583Oc6QSAIAAEAD0p1MmBX75Qk1bb8yOYExaTTSRvHtz/amTsx2mBAAgAAQA/eyCufmPZLWFYgn7gjHpM9mNfV+639M/BQAgAAQAA+OKpUXZDUE3AhmTJhOOJSdtaTjWFzwLAAABIAA4WmMysn76THUw6ksAY9JisuqD16zw9E8BAAgAAcBAGpcZmLejKZbwNYAxQzx90cSsbU1jMzz9UwAAAkAAMMAmTs/ZUtElAYwZ2ilqCV35gMv/AgAQAAKAwbgRKHDDqvLi1pCdwpihmlgiuXxX68mTXP4XAIAAEAAMitOnZt+1qa496KmgxgzN1HVGLltc6FgkAAABIAAYPOfOzn000B6JuxPImCGY37xe7ygkAAABIAAYbJ9aUPD23p6kBDBmcGd3Xe+5Xv0rAAABIAAYEt94uGxvR8TeYcygzf6++Pcerxzj4T8CABAAAoCh8o8bajtDcTuIMYMw8WRydaDtPJf/BQAgAAQAQ2ji9Jyl77ZELQYwZuCnoj38nccqxmQ48ggAQAAIAIbOSRlZl99X9GpZl33EmAGdUCyx+O3m06dmO+wIAEAACACG2JiMrG88VJpVH7Qg2JgBmtS+tau291MLChxwBAAgAAQA6eJnz1bXdEQkgDEDMa29sZvWlDvOCABAAAgA0sjJkwJ3barrClsQbEz/z71vNzvICABAAAgA0nFB8Mrd9iBj+nl21fZestDNPwIAEAACgLR08YKC9UUd9hdj+mvaemO3rKscm+nB/wIAEAACgPR8KNA9WV9cUrS9ujuWsBzAmBOd3khi+puNE6fnOLYIAEAACADS2leXFb9e0eXlAMacyIRjyXW5+z45P98hRQAAAkAAMAxc/3DZe/W9vgYw5vgmmTyws7Y31dIOJgIAEAACgOFhXGbgpjXl5e0h+44xxzH7+mI/WFfpSCIAAAEgABhOxmYEblxdXt8VsfsYc6wzaUvDKZMs/BUAgAAQAAy7BsgMfPPR8vK2kHuBjDnKiSWSz+TvO2tmrgOIAAAEgABguH4PcNOa8tzGYFwEGHOkicaTm8o6P73IU/8FACAABADDfD3A99ZWpBpAAhhzmEkmD77z67oHS8dkOG4IAEAACABGxprgNmuCjTnE2f+BA+Xt4e8/Xjk2w63/AgAQAAKAkXIv0F+uKstv7rM3GfPH0xtN/PenqsZPdvYvAAABIAAYQcZkZH15afH26m7rAYz54IRjyTterh2X6exfAAACQAAwEn1lWfELRR3BaMJuZUxqusLxhb9rnjAl28FBAAACQAAwYl28oGD5rtaeiAYwo306QvEl77acNyfPYUEAAAJAADDCnT8nb+objeGYe4HM6J3u8MGz/0/My3dAEACAABAAjAoTp+fc8XJNa2/M/mVG4UTjyQd2tZ4327V/AQAIAAHAaHLq5OwfP1VV2NIXT/oqwIyiicSTD+5uc9+/AAAEgABglLpmRcmmsk63A5lRMl3h+AM7W0+b6uxfAAACQAAwil268OCy4M5Q3L5mRvY0dUfn7Wi26lcAAAJAAEDWmTNzf/NaffX+sN3NjNRp7on9y6a6s2fm2t8FACAABAAcdMa0nFufrMpr8rZgMwKnLRi7bf3eD0/LsacLAEAACAD4f8ZlBi5bXLg2u7077HYgM0ImmTzQ0hO7cXXFyZO861cAAAJAAMCf8qHJ2be/VFO1P5ywMNgM84nEk7vrem9cXT4209m/AAAEgACAQ0udLX1rTcXm8q5eLww2w3ZSW++z+fuvWl48JsNOLQAAASAA4Cga4HOLC+e/1dQW9LIwM/ymMxSf/1bzpxcV2JcFACAABAAcg7Nm5v7oiap8K4PNsJr9ffFfv1hzlgf+CABAAAgAOL6vAs6fk7dyd2t7MGZVgEnzSW2jeU19N64uH2/JrwAABIAAgBNxyqTATWsqtlZ291gVYNJykr+/8L82p/1ziwvtsAIAEAACAPrHZ+4tnLGtac/+iL3SpNuUt4fv2lh3zmy3/QgAQAAIAOhXE6Zkf//xyueLOjwgyKTJROPJzeVd313rSf8CABAAAgAGxkkZWRcvyL/9pZri1pDd0wztdIbi977dfNniQs/6FACAABAAMOCrAi5ZWLBsZ8u+PouDzdBc+C9s7rv1yaoJU7JPsksKAEAACAAYNH/+UOnrFV1tnhFkBmtSW1ptZ2TR281netCnAAAEgACAIbgj6J6s8+fk/f1LNVsqvDnYDPh0heOvlHb+YF3luEx3/AsAQAAIABg6YzMOvjn4n1+pe68+aJ81A3Thv7g19K+v1l26sMAd/wIAEAACANJlYcCX7i+as6OprtOjQk1/TiiWWB1ov3ZlyYQp2XY0AQAIAAEA6eVDU7KvWFr0aKC9LRiLWxlgTmCSyQN9scT26u6b11Z+eHrOSS78CwBAAAgASGdXLS95PGff3o6IBcLmOCYYTbxT03Pb+r0Tp+fYmwQAIAAEAAyTtQGZgW8/VvFIVltpWygalwHmqCZVjPnNfTPebLx0UYGdSAAAAkAAwPDzkek5N6wqT53PFbX02aPNYSaRPFDRHl70dvN/fbhsrOf8CABAAAgAGNZOn5b91WXFs7Y3pc7w7Nfmj2dfMLbgd01fX1nykRlu9xcAgAAQALYQRtAS4U/Oz/+nV2pzG4PBqMUBo36Z74EDkXiypjMy482mC+fle62vAAAEgBEAjNwSmJz9t89Wb6/uru+KWh4wOqcjFM9uCE5/s/Giefn2CAEACAAjABgd9wVNzfnRE1Urdrdm1R/8QsD+PkqmuSe6tbL7ro11l99XZC8QAIAAMAKAUee0qdlfW1HyTxtqN5R07u+L2etH8A0/Dd3R1DHtZ7/d89l7C73QVwAAAkAACABGtZMzAxcvKPj2YxXLdrbWdUaSbgsaWdPQFZm7o/nalSXnzs7zhB8BACAABAD8pzEZB78QuHh+/i/X12yp7OqJJCJxLTBcJxpPdoTi26u7f/H83osXHFzjawsXAAACQADAob8TmBT48tLiyVsb3trTU9cViVgrPEwmnkg298QCDcGZ2xq/eL+7/AUAgAAQAHCMzp6Ve8u6ysXvtGyp7KrvisY8PjRdpzMU313Xuyqr7X/8ds+5s/M801MAAAgAAQDHb1xm4DOLCn74ROWUrY2pEugKxx0f0mRCsUR+c9+K3a0/f37PlQ8Unz7VrT4CAEAACADoPx+akp0qgRtWld+1qW5rZXcw4vmhQzYlraE5O5q+/3jll5cWnTUz1yV/AeBTAASAAICBkjrXHD8pcOaMnEsXFty2vmZ9YUdLTywYTUQtGh6wSX2y4ViyJ3Lwev+it1v+8tHyc2fnTZiS7YGeCABAAAgAGAJnTMv55ury2dsb39rTU94ebgvGvGO4X6YvmqjrjKZO+l8p7fzfG2q+sMS6XgQA0B8yXq8PNAT5Y9PeaLR5wLHeI/S1FSW/emHvkndaNpR0vlffm4oB5/HH9iSfZLK1N5bVEHyusGPmtsYfPF55ycKCcZ7fjwAA+lHqfy3Xrizhj316UYHNA4573fAFc/OuXl7y02eqJ29teCpvXyoGUue1zu8PNakPZ2dN7+pAe+aWhr9+ujrVUWfPzLUhIQAAgOHnlEkHY+CLS4que6g0dWo7a3vTxrLO6v3h+Kh/qGhDd3RrZde9bzf/5Onq6x4s/fx9RefOzhs/2ZN8EAAAwEgxNiMwYUr2R2fkpM50L7u38G+erb7vnZYXijpKW0OdoXgwmuiLJsLxZCyRHDErilOdE40nQ7FE6r+uPRh7s6r7gV2tv3xh71eXFZ8/J+/MGbmnTc1OfSy2DQQAADC6pM6Dr1xe8p3HKm5/qWbeW01rAu07a3t31/XmNfUVtYRqOiJ1nZHG7mhHKN4Vjvem2RNIE8kDqfP71A/W0htL/ZyV+8KpnzmrPvjWnp5Hs9omb2249cmqa1aUeGgPAgAA4HDGTw5cND//zxYXfmtN+fcer/jJ01V3bqy9+9W6yVsaHnmv7X3PF3ZsLOt83449PdkNwT/Iawru7Yg0dUdPROqE/oN/Zuq0/s2q7j/8jauyDv4MK3e3Tn2jIfWD/c/n9qR+zuseKk39zB+ZnuM3iAAAAOhnZ83MvXBe/vs+v6Twg0v5//yh0tTp+F89VXUibllX+cE/85oVJZ+9t/APf6M3cCEAAAAAAQAAAAgAAABAAAAAAAIAAAAQAAAAIAAAAAABAAAACAAAAEAAAAAAAgAAABAAAACAAAAAAAQAAAAgAAAAAAEAAAAIAAAAwEcAAAACAAAAEAAAAIAAAAAABAAAACAAAAAAAQAAAAgAAABAAAAAAAIAAAAQAAAAgAAAAAABAAAACAAAAEAAAAAAAgAAABAAAACAAAAAAAQAAAAgAAAAAAEAAAAIAAAAQAAAAIAAAAAABAAAACAAAAAAAQAAAAgAAABAAAAAAAIAAAAQAAAAgAAAAAAEAAAAIAAAAEAAAAAAAgAAABAAAACAAAAAAAQAAAAgAAAAAAEAAAAIAAAAQAAAAAACAAAAEAAAACAAAAAAAQAAAAgAAABAAAAAAAIAAAAQAAAAgAAAAAAEAAAAIAAAAAABAAAACAAAAEAAAACAAAAAAAQAAAAgAAAAAAEAAAAIAAAAQAAAAAACAAAAEAAAAMDx+L8qLVuIQzG9CAAAACV0RVh0ZGF0ZTpjcmVhdGUAMjAyMS0wNC0yM1QwODo0MTozMiswMDowMBMg9v4AAAAldEVYdGRhdGU6bW9kaWZ5ADIwMjEtMDQtMjNUMDg6NDE6MzIrMDA6MDBifU5CAAAAAElFTkSuQmCC;" vertex="1" parent="1">
          <mxGeometry x="640" y="970" width="60" height="60" as="geometry" />
        </mxCell>
        <mxCell id="j-iSR3cCKwgXwYgSjLxv-31" style="edgeStyle=orthogonalEdgeStyle;rounded=0;orthogonalLoop=1;jettySize=auto;html=1;entryX=1;entryY=0.75;entryDx=0;entryDy=0;fontFamily=Helvetica;fontSize=12;fontColor=default;" edge="1" parent="1" source="j-iSR3cCKwgXwYgSjLxv-12" target="j-iSR3cCKwgXwYgSjLxv-26">
          <mxGeometry relative="1" as="geometry" />
        </mxCell>
        <mxCell id="j-iSR3cCKwgXwYgSjLxv-35" style="edgeStyle=orthogonalEdgeStyle;rounded=0;orthogonalLoop=1;jettySize=auto;html=1;fontFamily=Helvetica;fontSize=12;fontColor=default;" edge="1" parent="1" source="j-iSR3cCKwgXwYgSjLxv-12" target="j-iSR3cCKwgXwYgSjLxv-34">
          <mxGeometry relative="1" as="geometry" />
        </mxCell>
        <mxCell id="j-iSR3cCKwgXwYgSjLxv-12" value="" style="shape=image;verticalLabelPosition=bottom;labelBackgroundColor=default;verticalAlign=top;aspect=fixed;imageAspect=0;image=data:image/png,iVBORw0KGgoAAAANSUhEUgAAARgAAAEYCAIAAAAI7H7bAAAIWklEQVR4nOzdvWtUafsH8PxmZiEb0uwLzC5pdrdYWAJbpNl6s7BZdpsVUQKpUvkCkkIsZf6ENFEhEpNCU1hIsBAkjv9BiqhgJTYWBgxRFKuJ84MnwXniSzJz7ivPOZnz+dQW1w3n65Xc58q5KgNAMkGCAIIEAQQJAggSBBAkCCBIEECQIIAgQQBBggCCBAEECQIIEgQQJAggSBBAkCCAIEEAQYIAggQBBAkCCBIEECQIIEgQQJAggCBBAEGCAIIEAQQJAggSBBAkCCBIEECQIIAgQQBBggCCBAEECQIIEgQQJAggSBBAkCCAIEEAQYIAggQBBAkCCBIEECQIIEgQQJAggCBBAEGCAIIEAQQJAggSBBAkCCBIEECQIIAgQQBBggCCBAEECQIIEgQQJAhQy7sAjqSxsbE///zzhx9+aLfbT548WV1dXV9fz7soODrq9frKykr7I81m8/vvv8+7OjgK6vX6s2fPPk7RjocPH37xxRd51wjFVqvVbty48bkU7bh27VreZUKB1Wq1W7du7Z+iHaOjo3kXC4VUq9WuX7/eTYra7fa5c+fyrjcHbu04QK1Wu3nz5rFjx7r8919//fUhV1RE3iOxn2q1urS01H2KgA+NjIw8ePCgy5/o3jt58mTehUNhjIyM7HPT/TkvX74cHh7Ou3Yohmy9qNVqHT9+PO/aoRiy9aJ2u91oNPKuHYohWy9qt9sLCwuVirsrSOhFy8vLUgQDOzfdehEk6Wl24b3t7e1GoyFFMNDTHN0H3C7ALr0IUulFkKperx/490Ufa7Vas7OzehEMZL7pbrVak5OTedcOxfDtt99mu+menZ3Nu3YohmyzC24XoMMcHaTSiyCVXgSparXa7du3M6TIHB3syvzW1Uw37KpWqxkmgPQi6DBHB6nM0UGqkZGRDLcLm5ubZ8+e1YtgIOWme3x8PO/aoRhSvl6Sd+1QDL5eAqkyz3S76YZd5ugg1f4bKffhpht2dbORUi+C/XjrCqmyTQC5XYAOM92Qykw3pMp20725uWkCCHZlnl04c+ZM3rVDMXjrCql8vQRS2UgJqcx0QyobKSGVr5dAKnN0kEovglR6EaSykRJS2UgJqWykhFTm6CCVOTpIpRdBKr0IUtlICal8vQRS+XoJpDJHB6nM0UEqGykhlY2UkMpGSkjl6yWQykZKSFXyObrBwcG//vrr9OnTp06dGh8fHxoayrsijqCSb6Scmpra2Nj473O9ePFieno677o4Usq8kbJSqczPz3/ujK5P6FaZ37pWKpXl5eX9j/nzzz/nXSaFV/KNlI1G48CTLi4u5l0mxVbyme7JyclWq3XgYV+/fl2tVvMulqIq+Uz39PR0Nyna8euvv+ZdL4VU5o2UlUplYWGhp4P/9ttveVdN8ZR5I2U3twsfaLVaw8PDeRdOwZT5rWuGXtRut+/fv5934RRMmb9ekqEX7fj777/zrp0iKfNGymy9qN1ur62t5V07RVLmme7Mvejp06f1ej3v8imMMm+kTOlFUkRHmb9ekjlF9+7d++qrr/Iun8IwR5ctRUYZ6ChzLxoYGJiZmcmWIr2IjjL3ou7n6D5OkV5ER5k3UlYqlZmZmQwpajabehEdZd5Imfn3oj645SdSmTdSZr6j64NbfiKZoyvn2Ylkji7D2efm5vKunSLRizKkyE03e+hF2VLkppuOMm+kTJmj04voKPPXS8x0E6PkXy8x002Aks/RTU9PZ0iR2wX2MEdnjo5UZd5IWalUGo1Gryna3t6em5vTi+go80bKzLcL/dGHCVPmjZTm6Ijh6yXlPDuRyryRMnMvajabR/3sRDJHlyFFbrrZo8wbKc3REaPkGyn1IgKU+a2rXkQMGykznN1MN3uUeaY78wSQmW72KPlMd08bKd8z080eNlL2evb+uFkhko2UGc7eBzcrRPLWtZxnJ5Kvl5Tz7ESykTLD2dfW1o762YlkpjvD2d10s4eNlBnO7qabPcr89RJzdMQwR5ctRebo6ChzL7KRkhhl7kW+pEUMGyltpCRVtr91tZHyqP8PQrCVlZUMT5KNlHmXT5GMjY31+hj1x+2COToiXbhwodeHqQ9uF2ykJNjly5e7f4z64/9jb12Jd+nSpe6fpDL3Ijfd7Of8+fNdPkl98Bu2jZQcltHR0W6epD647TXTzeG6e/fu/k9SH/QiGyk5dN999936+vonH6NWq9UHtws2UvI/Uq1WFxcXP3iMtra2/v3337xLC2CO7qj4v7wLiPHLL7/88ccf33zzzcDAwOPHj+/cufPmzZu8i0pSqVQu/kdPkXj37t2VK1cuXry4tbV1mNXBUeDrJRBgfn4+Q4r642YFYkxNTWVIUR/c8kOYL7/88vnz572myEZK2GNiYqLXFLnpLoJa3gWwx48//tjTv282mxMTE9vb24dWEV3x80Cx9BSJZrN54sQJKYIP/f77793/ROetK3za0NDQxsbGgSky0w0HOHC4zkw3dOXq1av79CIpgm799NNPS0tLr1692slPq9VaXV39559/8q6LT+uTodV+Va1WR0dHBwcHHz169Pbt27zLAThM3iNBAEGCAIIEAQQJAggSBBAkCCBIEECQIIAgQQBBggCCBAEECQIIEgQQJAggSBBAkCCAIEEAQYIAggQBBAkCCBIEECQIIEgQQJAggCBBAEGCAIIEAQQJAggSBBAkCCBIEECQIIAgQQBBggCCBAEECQIIEgQQJAggSBBAkCCAIEEAQYIAggQBBAkCCBIEECQIIEgQQJAggCBBAEGCAIIEAQQJAggSBBAkCCBIEECQIIAgQQBBggCCBAEECQIIEgQQJAggSBBAkCCAIEEAQYIAggQB/j8AAP//Fd+VhgMetjIAAAAASUVORK5CYII=;" vertex="1" parent="1">
          <mxGeometry x="580" y="1110" width="60" height="60" as="geometry" />
        </mxCell>
        <mxCell id="j-iSR3cCKwgXwYgSjLxv-40" style="edgeStyle=orthogonalEdgeStyle;rounded=0;orthogonalLoop=1;jettySize=auto;html=1;entryX=0;entryY=0.5;entryDx=0;entryDy=0;fontFamily=Helvetica;fontSize=12;fontColor=default;" edge="1" parent="1" source="j-iSR3cCKwgXwYgSjLxv-13" target="j-iSR3cCKwgXwYgSjLxv-10">
          <mxGeometry relative="1" as="geometry" />
        </mxCell>
        <mxCell id="j-iSR3cCKwgXwYgSjLxv-41" style="edgeStyle=orthogonalEdgeStyle;rounded=0;orthogonalLoop=1;jettySize=auto;html=1;entryX=1;entryY=0.5;entryDx=0;entryDy=0;fontFamily=Helvetica;fontSize=12;fontColor=default;" edge="1" parent="1" source="j-iSR3cCKwgXwYgSjLxv-13" target="Lif8JBEafslfNm7ranTe-6">
          <mxGeometry relative="1" as="geometry" />
        </mxCell>
        <mxCell id="j-iSR3cCKwgXwYgSjLxv-43" style="edgeStyle=orthogonalEdgeStyle;rounded=0;orthogonalLoop=1;jettySize=auto;html=1;entryX=0.5;entryY=1;entryDx=0;entryDy=0;fontFamily=Helvetica;fontSize=12;fontColor=default;" edge="1" parent="1" source="j-iSR3cCKwgXwYgSjLxv-13" target="j-iSR3cCKwgXwYgSjLxv-14">
          <mxGeometry relative="1" as="geometry" />
        </mxCell>
        <mxCell id="j-iSR3cCKwgXwYgSjLxv-48" style="edgeStyle=orthogonalEdgeStyle;rounded=0;orthogonalLoop=1;jettySize=auto;html=1;entryX=0.5;entryY=0;entryDx=0;entryDy=0;fontFamily=Helvetica;fontSize=12;fontColor=default;" edge="1" parent="1" source="j-iSR3cCKwgXwYgSjLxv-13" target="j-iSR3cCKwgXwYgSjLxv-46">
          <mxGeometry relative="1" as="geometry" />
        </mxCell>
        <mxCell id="j-iSR3cCKwgXwYgSjLxv-13" value="" style="shape=image;verticalLabelPosition=bottom;labelBackgroundColor=default;verticalAlign=top;aspect=fixed;imageAspect=0;image=data:image/png,iVBORw0KGgoAAAANSUhEUgAAAZAAAAGQCAYAAACAvzbMAAAACXBIWXMAAAsTAAALEwEAmpwYAAAgAElEQVR4nOzdeZRlZ13v//f3efYZah66ujs9dzoJhgQSwABJCIJhBkEmRURUVBCHq7+19Hflyr1XWepPFz+83rv8ofeKuhTlynVEwAEhiGFIZAxT5qE73Z2eqqprOHXqDHs/398fe+9T1Z0eqk5Np+p8X6xOQncNp07v/Xz2M30f2bNnj2KMMcYsk9voF2CMMWZzsgAxxhjTFgsQY4wxbbEAMcYY0xYLEGOMMW2xADHGGNMWCxBjjDFtsQAxxhjTFgsQY4wxbbEAMcYY0xYLEGOMMW2xADHGGNMWCxBjjDFtsQAxxhjTFgsQY4wxbbEAMcYY0xYLEGOMMW2xADHGGNMWCxBjjDFtsQAxxhjTFgsQY4wxbbEAMcYY0xYLEGOMMW2xADHGGNMWCxBjjDFtsQAxxhjTFgsQY4wxbbEAMcYY0xYLEGOMMW2xADHGGNMWCxBjjDFtsQAxxhjTFgsQY4wxbbEAMcYY0xYLEGOMMW2xADHGGNMWCxBjjDFtsQAxxhjTFgsQY4wxbbEAMcYY0xYLEGOMMW2xADHGGNMWCxBjjDFtsQAxxhjTFgsQY4wxbbEAMcYY0xYLEGOMMW2xADHGGNMWCxBjjDFtsQAxxhjTFgsQY4wxbbEAMcYY0xYLEGOMMW2xADHGGNMWCxBjjDFtsQAxxhjTFgsQY4wxbbEAMcYY0xYLEGOMMW2xADHGGNMWCxBjjDFtiTb6BRjTbeQiv6/r+iqMWTkLEGPWiUMQIEFJUJQ0NIR0KMAjOARFCRv6So1ZGgsQY9aBABViYmBAPINEFHE4IEaZ10CFhCYJJRxlHMGCxHQ4CxBj1kGMcosb5iY/wDYpsFtKDBNRRKgSOKUNjmiN+0OVe0OVx7RKD45iFiTGdCILEGPWgQJe4MVulO+QHgShmfUvBCESKOCY8TGPUuML8RQfCeM8Eqr04BFsjsR0Hj84OPirG/0ijNnqPMJDOs+dYYohV+AKKRFQEiAmUEepEhBgl5S4yQ1wreujVzz3aZUEzWJkaRbmVpb+OcYslwWIMeukB880MQ/qPAekh4NSRkh7IC77BUKDQBPYJUVudUOMSZH7tMosCRFy2Z6IAgWEGKgR8AiRBYlZAxYgxqwTBYo4TmmDM6HGbX4b/eIILCztzXsNAq0J9Ke5Pq50PTwU5jlJg+IlQsSRhsZtfpg3FHbSIDBNwjRNPIJfQgAZs1QWIMasIwV6cBymTnDC82WIIBdu0vN5jwTYL2UOuB4e1XlOauOiPQqPUCHh9dEOfi7ay3e6Qa5zffTiOUWTKWIiBMfF96MYs1QWIMasMwUiHIep8qxogN1aIpELN+iLf2+vlLjCFfmmVpnSmMIFehMuW9X1Mr+Np7pePMI10sutfoinuD4cymGtUSfgEDw2OW/aZwFizAZwQFUDiHA7IzQlZANXT5b/bgCulB7A8aUwfcGG3yHUCLzCb+MGN0CFhAB44KCUeZ4f4QbXzwwJR6kTUAo4CxHTFquFZcwGEeCL8QwPS5XiEhrxfOf6K6JhbvT9NLJexOKvF6MMS8SoFEiC4khv8gA0UDxwmx/mtwvX8M5oD9ukyKwm1hCYtth1Y8wGyFdKTWiDr+kcZbn8hkFHGgLbiHiRG6NMRJIt/YV0NVedwEHp4Up6qMtCwAgLPZmaBjzwNn8F/614DbcXRqllu96tQTDLYdeLMRskn/A+HOaXvDpKUJw6rnU9rRVcC3+W9kCe4Qa4xpepLwqXxfIeSQI8Q/r4FX+Anyzsod95atnn2AS7WQoLEGM2iJKGyL06x+Nao7SEYSyHME/gWulhhxSJs88QoElgRArc5oeI9dJfKQ+JORKGJOJn/W5+K7qKG/wAzazYozUO5nLsGjFmAzlgVhOqGnBcfkVUAEoIJ7SZzV0s9BVilJvdEM+WAeayDYSXku85CUAN5VY3yK9Hh3h9tIMIR8NCxFyGXR/GbLB8cvzyH6dEOJqi/GVyiie0TiELiQRlxBX5Qb+DHvyyVlW15kZQdkmRX4z28Z+LB9nuihcdBjMGLECM2VB5zarLfUy6FFdICPxufIwPxydbK6wgnc94e2E3N7h+aoS2bux842KE4zVujF8vXMW1vp8GaiFiLsgCxJgNpEA/nj7OnRBf/OdKOmz1sM7z683D/GnzJAUcHgChqoHXRNt5nYytuKFPS6goNQLPkQHeHR3gRj9A3YazzAXYNWHMBkknvpWrfQ/7XTnbHb4gn2TvUcdndZrfbB7m75PTFLMthwpUSXhZYRs/FO3Ek/ZEViNEBKgTeJr08X9H+3ia62u7Z2O2LrsejNkgAaWEYztFOG/VVB4e08T8hZ7mVxqPck+o0JNVwUpIiya+0m/jndFuDpGeMbKaQ01piCjXSx//sXCAQ67XeiLmHHYtGLMB8j0bIxJxo+untqhhTldaOU5qnf8eH+V9zcNMaUwfvjW81O88by/u4d2FgxygvGanFjrSELlR+vml6AA7XNFWZ5kWuw6M2SABeJrr56nSm612SpfUlhEe0xrviQ/z0XgcUaEHRzWLiVv8EL9VuIp3ut30ZTMhaykvEX+zG+Q/RvvpE0/TJtYNdqStMRtCgZI43uC3M0RELQuHHoQHqfJfmof5dqjQmz3jTZNwlfTwPdEYb/I7GCFiPiuUuB4NuQA1El7mRpmImvxW80hrBZkVYuxeFiDGrLO0MQ683I1xkxugka2/KiE8oDV+pfkY3w5z9OGJUYIoL3Gj/LTfw5WujGQl29fzuNo0KIQ6yiv9Nr6ks3wynqBslXy7mgWIMetMAC/CK90Ig0TME4gQHg913pOk4dGPp06gJJ43FXbwo+4KhomooWk9rA143Y50w2IZx89F+zgaatwf5pZUgsVsTTYHYsw6yg98eo4b4kY/SBMlAmZo8rvJcb6ZzNKThUcvnrdHu3ib28UAEfPZvMNGzj3kR+0epMTbC3vpXeaud7O1WIAYs44cadHDF7hhtlOgTqCA49PJNJ9JJinhCApF5/jhaDdv8DtaQ1mezqmSWyfwLPp4RTSWDaeZbmR/78ask/Q8j8BOV+I7XC8BpQfHEWr8WXKCZhYmVUl4pd/GD/jt9OFJOmzFU94L2SYFftDvYL8rZ+VOOulVmvVgAWLMuhEaKHsps0vS/RQB+MdkkkdDjT48FWJudP38hN/DgKQ9j05slvOFAFdKD9/jx7LVYDaY1W0sQIxZJ+kOcmUIxyAejzAlgc/HE9nQltKP48ejXRyQMvMdPjSUL+N9tdvGta43K3XSiXFn1konX5/GbDkKDEmBfiIUeCTMcS81yghNlGf4IZ7vhqlofNnzPDaakA7J7ZMyt0ejRFz+WF6ztViAmA0ni37lJcplhb8u9HU2Wl6+ZFAihiWiJspd8SRNTZtdB7zaj7X2VnTCa76UhdPWlZe7Ufa5su1Q7zK2D8SsOTnn3wuVZBVtnXURsv+Os3/LJT7/XLron+f+W0gLEqZhIovCRc75zPM/d62kZ20Ip0KdcW3iVDnsmrhESFB2uBIHKW2qRjivlXUlZb7bj/AnYd76IF3EAsSsqoUn/oUmMGRnbCdATGjtfYhwFBCKIhTxlHCMEFEUR0HS8y4iHCVJP65wgXqzet7XbagSE2hooIFyVpvUCdRR6hqIUZoEEpQi0gqYKPvv9GvmX3n1Q8UDU8RMa0K/CMdCrTX/casMccj3EHTzBAgs9Kxe7sf4+/gU0+cdtWu2LgsQs2J5aOQNboNAnP1ZQOkVn437e8YocI3rpVcc/UT0iWNIIoYpMIznWumllDU/ixvvpTTkefMv2XqgBsr9Os8MTSaJmQwxVWJmCdQ08FCYY5wmcyTMaMKMxq2eSoQQLeq1rEaYKFDAcVIbnKHJIAUq2fdUlH1SoqjQXOH3WW95gFwtPdziBvlYcpYyViOrG1iAmCVb/EypLAxDxdlyVIfQLxEHpZddUmRMCjzD9TNExIB4+vGMSoGDUkZVW0NXAbIeilJHqbXi58nf91LOb7AE+A4p4+jBI3ifvkYHiAiHtcakpgEyqwlTxNwTKpzQOqe0yWltMKsxAU0/H1p9oPPfi6UIKEUcR7XOt0OF/X6UmqbvYkEc17ieVphstud3BZwmPNeP8NEwiahbNDhotioLEHNZ+bxBnIVFethROr8w6opc7Xq5Mtvb8Bw3yKBE9CCUcAxll1jcGmpSTmvjnK+98G/JVnWsXvNZz2ZZzu9BqMIIEWNSSH8WSYPhpW6EeZRaFipfDDMc1ToP6TyPhXlmNaaZzd5I1kvxWaiEJTSZAqgqX9VZnsdQds45DODYLUUW+jubkXCD9HMlvRxjngJywWN6zdZhAWIuKg+OBoE6gUHx7KTIHl/mJhngkJTZTZFrXB+wECr5nIeSjvcv/np5o7teLhVI+XwILDTZEcIgjmE8u0W42veQkPa07gtVjlLjAZ3nG6HC6VBnipgZTX/GEo5itoLqYstZA0qfeO4MU9weRiiLQzUNsM5fd3VpTZQ9UuRmN8gHkzmGidi8YWiWwgLEXJAjbWBnNWGXK/E018eLolGeQT/bJGKEAk30nLCISRuRxTp5L8P5k/2wsCIspef0kJ7u+riRfl6PMOFjTmqDh6jyjaTCg6HKEa1xUhs4oCebxzn/CTxfHTYVmnw6nKWPCKh18Lu0NHkPrBfPtb6HcmIVeruBBYhpyQdPAkoV5Qop89pokOe7YW52Q/TiWsNYs8StxvdCS243q4u9fiUPR6WGUka4SspcTy+vjcY4qQ0OU+OrYZYvh1m+GGZoaKCEtCbm86+jQBnHp5NJBl2Ex9HQdGXYZn4HNVu8cIMMsN+VeTzU0uKQFiVblgWIwZE+KTeznsROV+LVbhuviEbZR5lCNv8xR9KaRO7GZZoLvRFp9VTq2RDdoHiezQDP9P18n9/Ow6HOHTrJp5NJTocGSTYRX8j6PYoSqzKZNPHAnAbuD1Wu9j0b9NOtXLonJLBHSuynxENUKdte5S3NAqSL5aPu9axx2+fKvNRv4w1ujF1SApRG9gs6ezhqveXvRP6eJNAK2H4ivtMVeIb28RN+N/+cTPBZneb+pMKENhGgiGvNF0k2z3Qme6c367sspA8hO6TIIdfLp8PZjX5JZo1ZgHQph2Qb6uCAK/M9boyX+1GulHIWGgsDD5u1QVtPi+dT8mE+ERjE81Z/Bd/Hdr7qK9ydTPPZMMURrVPROJt4Tyfvj2idZEN/ipUToKnKfim1StGbrcsCpMvkE7tzxOyXHl7mt/GaaIwrs70Zc4sqwFpwtGfx+xZQ5rL5oltlkNuiIV6vO/iSTvP5ZJpvhAontIEAd4dpGoRNPW/ggIYErpIyg3gmiSlghd63KguQLpHPc9QIjEiBN7qdvCnawT4pUsAxrwkL+zDMasrniypZ/2KfFNkr23mZG+W41rkjTHN3mOahUOUIdZ5KunR4Mwa4ICSqjEiBkniCxpf/JLNpWYB0AY9QJxAh3BaN8MN+J9dLH4NE1AjEWO2i9ZDPl9Sy45dKOJ4ivVzle/lRfwVnaBIhHXcC4XIFYICIXnHpjs1N/dOYS7EA2eIcMEvMLlfiDX4Hb/E7GSKiTqBGuOBeCLO28rBOoBUWEbCHIpqVdtms0kOzAjulyKgUNvXPYi7PAmSLyvd01Ajc6ob5ucJerpF0e9tCcJiNdH49rU49vrYdijIgBRsS3eIsQLagfBe5At8T7eCd0S4O0kN1029V29q20t+LIAyLt97tFmcBssXkZ0v0iuft0W5e6kbZQZEK8Tk7oo1ZSwr0XaAsv9laLEC2ECE9A2NYCryruJ+XyyiNbE+CbQI06yeNjfUsmmk2hgXIFpEfLbrdFfnl6AC3ywjzNtdhNpC3GZAtzwJkC8jDY68r8cvRQZ7nBplftCHQmI2Q2BqsLc8CZJPzpCut9voe3hNdyU0yYOFhNli6VKNusx9bnrUzm1je89jtyvxqdNDCw3QMAaaJsy2TK/9aNgzbmayt2aTy8Njpivxa4RDPFhu2Mp1EmQ35UWPtSyv8pisLLUQ6j7U3m1C+VHfEFfivhbTnUSWxv0zTMQLCrK6sFm++qvDZfpDrfR9zmthqwg5jbc4mk5ZhV8ou4t3RAW6TYeYJdmOZjqBAAccxrTFBY0UNjEOYJ3Cj6+c90SF2uzLz9qDUUezvYhPJex5lcfyn6AAvdqOtpbrGdApHWnm4rmFFW1cVpZCdgXmt6+FnCnu5Qko0bDirY1iAbBKLd5i/u3iI17gR6tkySbuZTKcIaNoDoU6FlQ05BdKTG4fEE6njJW6Ytxd20+v8pq9YvFVYgGwC+YR5r3j+S2E/r3Kj1LLRZbuJTCdRstMVQy2bs2ivlEl+8FkvsEMj6pKWw3+VG+OHo104Wfg4s3EsQDqcA2ooY9lqq5f5MeqaLo60m8d0EiVt5OeIeVDnsqGmFQ5hiWfAFUADgTScfsTt5LV+J/NivZCNZgHSwRxQRTnkevnNwlW8yI1QUytPYjqXA2ZIOB2asMJhpgQYlQJX0UMjWyiSoBQRfrq4n5e5Yaokdi9sIAuQDpR33+cJPN8P8quFgzxHBqjaPg/TwUK2wOOI1jlMjfIKz3ZXlH2uzH4ptfaBONKlvduC8ON+N9e6fuq2kGTDWHvUQRxpeNSzG/EdxT38ZnQ110svNQsP0+EEISh8I1Q4GeoUcG3HRz4cdkDK1M/ryTiEKoFDro+fLOxm2BVIULs/NoDVwuoQHqFBIKA83fXzNr+b73JDOGRLnVRntqZ08hyqBO7TuRUfha5ACcdNMpCtuDr3i6UPW8rtMsITvsHvhKOtsilWgWv9WIBssPy2mNGYK1yJl/pR3uF3s0OKzK1SLSFj1kOE40Gd4/PJNL3iWck+9ICyzZV4rhskvsgQVSAd5npLtJPHqfN/mqfosbtlXVmAbID8ElegTiDC8bLCGG/1O7le+oiQ1gmCxmwG6bydck+YZUKb9OPaLuYuQILyHa73khGUf8+iCm/1V3BvMsu9YY7iCobOzPLYsOE6SScApbUhsJ5NLz7HD/Mbxat4V7SPZ8sgkJ5nbuFhNpu6c3w6maCArLgGVgBe5IYpXSYMHEINZS9FfrqwnyFXILb4WDfWA1lD0volBJT5rFM/JkWe5ft5vdvBQSmxV0rUUeayJYkWHWYzUaAkni/FU3xTq/gVBEhafVe5Uvq40fehevmv5Eh7LM9zQ/yIXMHvcgwHdpzVOrAAWWWLG/8ANAk0UPrFcb30cZsf4WY3yLNkAEGJSTcK5ksUjdl8lAbK3yZnqGu6T6PdAEkLKCY82/exnSLNZXylWBNeGm3jq26WzzSn6MeRtPk6zNJYgLThQj0EzX7FaGvVyIhE7HG93OQGudkNsY8iT5E+5kmoLapjZT0Os1klKP1EfDFM8+9hdkVDrwLEBLZR5DY/TI/67JiCpX3NAOx1RX6CvTxMjZPUKOFXtBfFXJoFyDK4bJFgGhLpBF4+ROURSuLY40o8hV6ucb3c4gYZlQIjRPSLp6oJ41mJa5vjMJtdvldjnpiPJxNMapMS0vbQkUOYI/Bc38fNMpRtEFzefdJQ5anSw/dGY/xx8gRB1Zb2riELkCXIgyOfwxgiYtBF7JYSoxIxIgX2ke6Y/U43QAnJJszTuY8myllt4hAiCw6zRShKEc9XdZbPJlMrGoLN5z768LzSb2dQHDPLPEAqDwoB3ux3cA8V7oqnKNvg8JqxALmMtBJuQoLwHa6P66WPF/oR9kiRK6VMLx4l7Y2ErHcSsv+fH+cpYAc+mS0nQqgT+MvkNCe1seI5h5jAs9ww3+2GmNP2DknLQ2RECvxsYS8Px1XO0rT7b41YgFxEfrnNETjkenil38aL3SgHpUQPnjqBJsosceszzp/PsEvWbFX5yYOfC1N8JpmkZ4VzDflw2Ov8GAPimdP2S/cIUCNwo/bxlsIV/Pfm4xRWMLRmLs4C5ALyDUoJ8Aq/jXcUdnM1va0exgwxku3psKLqptvkjf1RrfGHyRPUNGSFE9uT1n8L3OJHeH40RG0F4bFYHeW1fozPh2m+FK98d7x5MguQ86S1p9LJu3cUdvN6t52dFFsb/2w4ynQ7Bco4PqVn+XZSobQKu86HKfAWv4N+/KocWZs/BA4R8Ua/gwfDHHOaWE9kldns0iKC0ESJxPELhQP8lN/DmETUslo8ebVcY7pVGh7CF3SaP22eXPH94BAaKC+JRrnZDdJcwsbB5YgJvEJGeZXfbjvU14AFSCZ/YnHAzxf28UN+B3USYuxNMgbypbDKQzrP+5vHmdDmqmwafIrr5fv99nNWUa2G9OsJKsqbo+3sdz1PKg1vVsbaxkWaBN4Y7eAtbidV7NhYY3IKrfIgH4xPck+YoWcFq67yoat+PD8dpQdDrcWxBekqSuUAPbzZ77D9V6vMAoT0Ym4QuNr38ma/kyRbgGuXmjELvYIC8OfJKT6WjGcVb9sfEkr3fQReFW3nOW6Iui5/0+ByvleM8gI3zHVRr51guIosQDIFcbzd7+GglGna6WbGAAvhUUT4aDLBH8VPtFbetD90lS6PvyUa5p3RbnqzJcBr1ajnvZ19UuaHoyso2N29arr+nfQIFRJu96Pc7oZp2NOJMcBCeETi+ESY5L/FR2loWNEwkEeoZvMe74r2M0rUOu98LeU9nttkhFv9EFXa26hoztXVAZI/mQxKxKvcNnrwtlLDGBaKgxYR7kjO8r7mUWa1uaKzPtL5iMAVUubthd3sIT3GYL0aoSZKn3p+wO9kxBUuetKhWbquDhCHMK+B610/T3N91FnZ05UxW0EeHmWEfwqT/L/NI4xrg2gF+z3yg9QGpcBPRXt4oQyv+34Mh1An4Vmun9vc0Lr0fLa6rg6QgBIJPM31MUKUnUBuTPfKh616cHwkjPMb8RHOaGNFG/DyQok9EvEThV28wo8SZU3Pejbg+YhDH57vczsYkSLNdX4NW03XBkh+UQ9LgdvcEBEuO8XDmO6U1rdKjyb4k3CC32weYT7EKx62aqL0ieOdhT28ye2ggFvTSfNL8VnJ+BtdP9/tR6y0yQp1bYBA2gMZpcCV0kONpLvfDNO1AgvhcUTrvC8+yu80j5KoEq0gPDwwT2BUCvxMtI83urFWL2AjH9TyqhJv9NsZdpEdOLUCXd1mBmCHK7Kb4ppsYjKm0wXS4Cjj+IrO8J74MT4Un6CgsqJzxdPVjYGrXC/vLh7gNX6MCCFh44eM0n1fyrXSwyvdGDVbtt+2ri6mKMCgRK3/NqZbpBPlShHHLDH/ECb5o/gJxkOjdQBTO8/l+X00S8JNboD/XDjEU6VMNXvO76SG2iG80o/yiWSSaW3gV9Db6lZdGyDpxSzskMKiOrvGbG0Lu8qFEp7P6hQfjE9xd5hClbbLsud3T5x9h9dH2/lZv4edUqTC6pRnX035HOh10sdL/Ah/Gp/IFtJYhCxH1wYIpE9DA3hbe2W2tPzETI9QxOFQHtR5/jY5wyeSCSY0pkj7Q1YOIUFpEtjhSrzZ7+R1foxhIuZR/Cr/PKslZD2wV/pt/Gs4y5nQoGjl3pelawMkrb4L48TZBW69ELO1LA6OATx1lEd0no8n4/xDmOB0aOBJ93ukH7s8+QmcNRJK4vguP8JP+T1cJ300CNQ7ODwgLZVaJ3Cd9PIcGeKjnGHhUFyzFF0bIJDeXA8n8zS9hYfZGvJNgI70zPIijjkSvq5z/GMywT8lE5zR9Em7lF3z7fY6GgQCcK3r5/v9dl7ohxmhQCP7ip02bHW+fEVYL57X+G3cmZylQryilWfdpqsDJEJ4TKt8WSs8VwapEFt9HNPxLtS45b0Bj1BAmCPhrDa5ixk+G5/l61rleKjRh6M3m+dYTiOZ3xVK2uhWSTjgeniV38Zr3Xb2SJEENt3u7rQ2V+AZrp8boj4+G093d6O4TF37XqV1fhzj2uDvktM8M+rHZU8em+kGMN0nPxnTZZv+gGwOQjms8zyudf4lTHJfMsdpGsxqQglhiHTPw1J7HGkopV+/mfU2BDjoyrzcbeMl0SgHKOERallwbMZ7R1F6JeJlbht3M2O9j2WQPXv2dO37lc+DOISfL+7ljW7HOX9mTCdx5PWc0sa8SsKcBo5rnXvDHN/UOb6tc0yHJjGKohRw2fLUpZ3ekYdGfkJnjUACjErEQdfD9/rt3OoG2E0ZzUIr0PnDVUuRoLyj8QDfDJUVnbTYTbq2BwJpL8Qj1DXwofgUo77I7X4Il63EsBAxnUKACRK+zCyfbk4QIZzWJo9TYzw0SUh3jXvSkCku6g9cbKe1XOC/E0iPclZlwEVcJ/083fXxAj/CU6WHMSkQa3oAW95b3wrhAVDCcasf4p4wi939S9PVAQLpzVUS4Vio8f/pUZoS8xK3nQIbX3LBmMUihHkCX9MKp0ODGCXS9DC0aNGVGrKqbhe6dvMNhNr62PT/5wc4j0qBZ7oerpc+nu76uVZ6OeDKoDBPQk0X7omtdG/kCw9e6Ib5iBvnTKjbZPoSdPUQ1mL50MCwi3ib380P+h0IQtMOnjEdwiMElHFi6hp4IBu2elzrjNNkWpvME4hVaWhCs/WZaV8h7y30iCcSoRfPsBTYToEDUuK73DCjUqBfPMNElHE0CNRaq6q2drFRyf753uYR/jw5yRCRFVu8DAuQRRzpTtoI+KFoFz9W2MOAOqpZBZ+t0lU3m9PiXeR5mMSkPeWQ9SryOYsHQ5VjWidBibO5kAjYJgVucP0UstVaLruu89VbSnoPxNnXlC667hOUASI+E87yi82HSbLeljWQF2cBcp58Yr2B8lI/zI8X9nK99BKrbrolimZryvd6yKJfsPAEnfc0zu8555+XtIawFoay8j/LdeN1HkjH9Kck8EuNh/liPEWvWLXeS/GDg4O/utEvotMI6VGe94Z5PqfTzGjMHinRL528r9Z0i/ODI6csDol0T8biX0n2a/HHLeXrdot8Y+EoRY5T42thdssP261Ut/NxEeIAACAASURBVPROly0AA+IZDw3+ID7OL8SPcEqbFHD2PGI6Xt4LWfyrm8Nh6YSYhBe6YbZLkabd7ZdkAXIJSVZsrYzjW0mFLyTTS1xNb4zZjPKzQvZKiatd30a/nI5nAXIZ+finBx5l/qLLI40xm18+Bzognlf7sVZ1CnNhFiBLkG84/FaY4bg07eAZY7YwBzRVea4bYJsr2KbiS7AAWYI8QB4ONb4dV2xfiDFbXAAGiXiBG6ZBsDv+IixAligfG/1YOMMZ7PhLY7YyJd35f7Mbyu5zi5ALsQBZonxVy1eSGe4OsxRsi5ExW97TXB/XuF4aHXgsbyew92SJ8ieSOQJ/GZ/ggTCHWi/EmC0pPTM9METEDa6fGsGWz1yABcgyBKAHxzeSOf46jLfKQNgZysZsPTHKAJ7nuAHKuKy0i1nMAmSZAkpRHH8dn+KDyYlWrSArd2DM1iKkIfIU6WOv66FhAfIkFiBtcsDvx8f5g/gJnEAZbyFizBaSVuNWxqTALorEdl7pk1gtrDa57EL6ss5wRptcKb2Mij+nxpBdasZsXnltrAGJOEGTr4fZ1u+blPVA2pQfQBOp8DfxaX4xfog7k2kEoYxrHUZj8yPGbF4KeIUbpY9+vJ0Pch7rgayQkK7OGtcmnw5neVDnGRbPgET04SggxKzfU8tCpdWFqquBcyu1LnycWI/JmEtKz5N3wGd0igmNzzn9sdt1/ZG2K5U3vvlhPJ9MJvh0MslNrp+b/DAvdSPsl/KqPrnoOf9eaP7zw4bSqqvunPLciy/5cwMl/fw4K/W9YGHRot0upls50rL4V0kP1/t+HglV7I5YYAGySvKmt5yNCt4dZvm3MEOjoPxffg9z2VNMLl1nrpd8mjm/Z5AHgctOpMs3N5KdTpcAR3SeBkqThBpQJ9BEabSOJYUSnlLWO+rB4YArpMhQ9mok+3oqSlDOOUNi8eta/NqM2aocQgPlKspEdpzDOSxAVll+cfXiKaOUzmti870kX5MqDU14Fn0XnCdJ629BAUecNeD5MaNHtcb9YY5pEk7QYFwbzGhCVRPOarP1cflxp5qFC6QNvs8CKD+1Tkirjw5KgSGJGKPADimyQ4psp8DTXR8Rgs8+PkKyw4kWjlO1g3fMVhZQnuJ66RFHTa02Vs4CZI0ElAD04895ci/hOKo1fl+P82bZQQGhdt768nSCPl1CeL9W+EKYYTI0eZw6x6kzGRrMa2gFQ758OC/6CE/utXDe18//nf/3E6qtRYr5BkmHUBBhRIrskiL7pMQhKXOzG6IfT794BokoiFDTQD0rOmdhYraSfDXWM6Wfna7Eo0m1NWTd7SxA1phb1JQ6YJwGvxEf4WPxaf5DaTfinlxTyyGIwv9MjvMXySlqmrRWfblsdiM9YS7tFazOQNKTz8+GtKz1Sa3xBDW+lP1uWTx7XZH99HCj6+dprp99lDjoSiQKcyQk1isxW0j+cLafEg9T3eiX0zEsQNZQPkeR9w+KeP4qnObuMMN2KREJrZKM58aI8q/hLH+bnCbWQG827nqhOYi1fgrKh7yi7P8JEFR5LKnxIPPckUwyLAWulDJPd/083ffzPBlijIh5QjbEtfC1jNmM8gB5ivTyKSYR64EAFiBravEy2jKeL2qFDzdPEyk0LvLxBYRJmnw4nGZGE8q4jlh7vji8BCgilLJgm9eEr+ksXw6zDCcRe6XEc/wgr/SjXEUvxexma2bzMXaqo9lslHTP1y1uiA+446ht8AIsQNaYUiWhhONRned9zcNMa0wZwYs86SkmX6X14eQ0XwsVStlqqE6z0BtK/+lIFw0ANDRwv87xYKjy1/FpbnADvNiP8J1ugEP04IBa1jOxg7nMpiIwSsSIFpjCTiYFC5A1lQAVYk5Q5z3xYR4IVcrZRRdl8xiwMHzVg+ProcLfJqdxm+jKXLyfxJEuZVYgVuWLyTSfT6Z4iuvjhW6I2/0o10svRTwVkgtO8hvTiRKUsjj2SIlxbbSqTXQzC5A15BC+EGa4P8zzpWS6NZSTT4jnDaeiFHGcpsFvx8cYD016N2lxxvP3iKRDXcJjocoDocLHwwS3yBCviEa5WQZxQJ2FFWDGdKK8Mu+QRFwtfXyJGXo7dIRgPVmArCEPPJBUUbS17O9iS2rnSPj95Am+Gmboyc4e2ArywCwh9BAxHhr8Haf5dDjLbX6IV/sxbpHB1sbKfE+JMZ0mRhmhwPWulyTZGvfnSlmArLF89dL5k9Dp/o2FNeZ/k4zzT/EExS3aeAays1QQijiqGvNP8QSfTaZ4gR/hTX4HT5c+BNfaNb813wmzWQmAKsPi6RVPUOXJi/C7i1XjXWOLl98uFqtS1UCveO4KM/xhcpxaSLb8xFweJFE2tFXXwMfiM/xc8yH+R3KMo9Ra9by28vtgNqcYGJYCIxRobvSL6QBWjXcDpOP+gRtkgMep8evNI0xrTEm2ztDVUuXzJDUNfDnM8OUwA054mvQTZUuYrSdiOkO68CUGPh+mOa11Cl1eG0v27NnTzT//hgnAqETUNDBLki3Z7V55CZQagYLAd/lR3uZ3cb30ZrW9bEjLbKzFw8+/0HiIz4SzDBJ1xD6tjWJzIBvEAePazKrjdnd4QHpzJlnxyUThk/EEXw+z/LC/ghe5EfZKmSqJlUcxGyZf6LFTiuxzJZLQvcGRszmQDVTIquJ2e3gsFkgvyh4ck6HJ7zSP8tvJMb6lFfqIFpWGMWb9pXNzSj+RlXbHAmRDXWyCvdvl5V8ihALCJ+MJ3tV8lE+EceYJFrpmQyWqDLmI0hZabt8uCxDTsfKA7cPzeKjxq43H+EB8ggpxOtTV2v9uzPrI50C2SYGSXHhvVzexADEdL0EpI9RR/jw+wa80j3BMG/RJWn/LQsSsl3zf1g4KW2rDb7ssQMymkM+NFBHuSCb4peYj3KOVVnXf7r6NzfoRYpRRChRxXT+UagFiNo18bqQPxzfCLL9Uf5h/DmfRrPyJhYhZa0K6EbZfvM2BYAFiNqH8qOAT2uB/xEf56+RMVkOLrn8iNGsrLaoIu6XAsIu6PD4sQMwmle8ZmQ5N3h8f48+SU9kZIzYnYtaWohTUUbLm094Bs3nlS33rmvCHzeN8IDlBomz5emJm4wWgmB2i1s0sQMymlp9VHRP4k+YJPpA8QSDYnIhZM3mhz15xXd+AdvvPb7aA9ICutNDdn8Yn+INwkiDYnIhZM3mAdPcuEAsQs0XkpzwCfKhxnA83T5JkoWI9EbMWynb0mQWI2TryvSJ14A/iJ/ibcJqA2pyIWQNKKQuQbr62LEDMlqKkE+vzJPxR8wnuCFPUCV1/o5vVlD6QWA/EAsRsQUpa6XhSm/x+fJxHdN7KTphVZ/FhAWK2qED6hHg4zPPbzaMc00a2c9iY1WHxYQFitrAEpR/HV8IM70uOclZiijYfYlaJ9UAsQMwWlwC9OO5IJvhwfJpZja34olkVdpiABYjpAgpEKvzv5knuokKP2pOjWbluPgs9ZwFiuoIDKiT8r/gYDzJHZL0Qs0JN64NYgJjukC+7fCSu8r/CCWoEvNrRuKZdQrPr48MCxHQRRSmK41/js/xjchYv6WyINQNmeRTEkQQ7VNkCxHSNtPAiNFX5UHyMrzNHhO/yJsC0w2lgVvLzMLuXBYjpKgEo4XhU6/x9c4JEAlFXNwGmXfME64Fs9AswZr0FlCKOjyen+Zd4ksRmQswyKOkmwirJRr+UDWcBYrqSA2ICH0pOMUlMhE2om+WpqS3ktQAxXSkvuvhAmONv4nECWMFFsyxN1VZvpFtZgJiu5RCCwid0nEe1RsH2hpjLSAt1Oo5onbMa4+nuhw4LENO1AkpZHI+Eef4yOUUAO+XaXFK+km+KODsmoJv7HxYgpssFlF51/Esywbe0Yr0Qc0maHVA2RUyD0PUNaLf//KbLpU+UwlmN+avkDDHa5c+U5nIihBNap6oJvsuvFgsQ0/XSvSHCvyVnuSdUrOS7uaj8geO0NqhlDxvdfK1YgBhDOqFe0YSPhgma2s1NgrkUBSIHVQ3ZEJb1QIwxpMsx7w5TPChVympH4Jpz5b2Piiac1sZGv5yOYAFiDOeeo/6JMEk1W2FjEWJyChQRTmqDY7bsG7AAMaZFEBqq3BXPMEnT5kLMeZQI4Yw2GaeZ1VDr7ivEAsSYjKKUcBwJNb7EDCLp7xoDefUCmCTmbEjsUDIsQIxpyce454j5bPMsVQ1EuK5vJExKAS/CnCbMaGwBggWIWSYhvWgckv1Kf2+rrEUJKGU892iFr4WK3SAGWHi4mNXAt0IFtSUWgAWIWQIhvXl89sTVQKmRUCOhjhJnt5LPQmUzh0leZPGENrgvzG1IOFrD1JkK2Q70e7VKSaxnCumQnjEX5RASlCpp6eoB8WyXIiUcHqFBYF4DkzSpaoIjPbBpM08vpnMhwp06xRvYzgB+XUu9Ozbve7eVeaBCwlGtZ8NX9rdkAWIuSEiHc+ZIGHFFniuDfJcfZR9FhiSivChAqgRmiPlKMsu3dI5vhwpVTShv0vmDdLjC8WCo8kiY5zvdIAlhzXsiAjRRTknCKI5e9QQrrdIxXLZKbzw0KOIsQLAAMefJew4NlGEp8Hq3jRdGQ9zoBhhUn54pjmb/S5e+OtLu/S3RIBUCjzHPHzef4O5ketMOaAlQ18BdOsNzGaS+xqdf52PsDZTPyTS3hH6uIWLeAqQjCFBH+XyYJkYpWXwAFiBmkTw8mijP9YP8mN/Ns91A2htRmMtmO6T10UA2uJM3gIN4bmKAfYVD/D8c5l+Ts5tyP0XaA4MvhGne6nfSlw1jrWVj7oBJmtzZPMV+X+Ba6QNN1vi7mqVI/waUL+tM158BsphNohtgITxigR+LdvFrhSt5lhsgQWlkE+Uum0jPV18tXo2VVyWNs/mSHVLkHdFuBiXatCdHO+BM0uBxrVNYh0lTQbgvqfAPjSm+Gc8S61pHllkqASY15ojWur4C72IWIAZI5zuCwH+I9vKzhX2MUSSwcGTnUm+ZdJmv0NCEq6WH/a5MsgmHYfLSJhM0+ZpWWvMRa0WABOVxGpRxnNGYeRJ72u0A6co8x9e1wpnQwG3CHvVasQAxAASEnyzs4kf9FcQaaKxCo98kLZPeiZYSig6hTuC+MEeFZE0bDgGaGvhqqFDGcVTrzBHsabcD5DvQH9J5Grr2iyk2EwuQLueylVSv8dv5EbeLBCWwOheGB2bXYfXScuXzG0r6c+bDcufL94QcCfM8QZ3CGt0u+fzRMeo8onMURThBnaraiXedQFDqKN/WuU3Zm15Ldn12MQ9USbjOD/ADhe0AqxYeDuGo1jgVGh2zryGf5wlAj3i8CPOizGhMjeRJvRJFKeI5GuY5rg3KsnYl3h1wQutUshpL09mRqZt1FdtWEYAinvu0wsPJnPUIz2OrsLpUvudggIgf8Tu5nj7mVumM5wD0INwTKlS02RGH7rQ2Ngq8MdrBK90Y0xpzmgbfDhUe0hrfSGYBpbjoFafF8xIe1SrP08E1adAVpUDEXczQJFDAMa+BhIVNhRv/DnangFIWx2NJjSmsgOL5LEC6WAI8I+rnFjfE/CoNNeWTz2c05lPhLAHWfCJ4qQ1sE2W/lHmbu4IDUibOqu1W3DaqBP7dTfHx5CxfCGeR7OfIv8G9ocqsSwvorebaqHQYTThLg6/FFQKKA2INJOu6/31rWY1KCPkQ5nRocGeYZk6TbDm3RUjOhrC6VCBtIF/ntjNItGpPuenTNHxWp7gnzK75BSakT0FLvaVf4IfZLWUmaDJLTCVb6TSM5xV+jPeVDvHLhYPsknIrVAsiHNZ5ZklWfQgjLd7ouE+rnNRG6+snKPWsqbLex/I1SB8YViI9QMoxLjGHtWaN5QXYe9KlAsoB38P10rtqT1StiqUEPhlPMqsJhTUsZxKjbHNFrvX92fnUF5cA2yTiDW4HDRKirBSLy3oUTZQagYIKr/VjvLd4Fc/3I1RIKOA5FWpURddkOM4BXwwVzmYlwiF9L2tqPZDlynsNR7XCSeZX+PeV9gbvCXMc1hplvO0/P48FSBdyWcmMW90Qu6S0aitLFCXCcUabnFzjgnP5SqpnyiA3uD7qGi7aWHiEmgZeVdjJQSkTc+5TfT557rKvGYAbpI/fKBziZX4bdRLOkmTfY/WG49IJWsdJafCVMJ3V28r2+SuIWN9jOfIHmGmJ+VB8mo/EEyDt9eDyocV5Al9JZqho3DGLQTqJBUgXSoeZHIe0jLJ6N4UCRRGOUeM49TUtYZKvFrtJ+himkNUKfjIH1Ahc7Yq8wW9f0qyCkFZdHcLznwr7eZ4b4VRoUNFG689Xg2bDVw8l89wfqpSyAn0KOBEeCFVbNroMaYDAdEj4apjjC6FCsoJeXAFhnJiv6hxl1m4F3mZmAdJl8if3EYl4uu9b9TF9p1DTdDhoLS8uBfrF8yzfx04pXeJpXQgor4t2cUALNJe4WMAj1FGGiXhztINrfB9HaK7qtLZHqJJwVzLD1Dkn3KX/PKvxpi0DszHSgpfzJKgoFdI6Yu1e4RHCvcksj4S5TVnPbT1YgHShGGVMivRJtCZPVekphWt3wzmgSeAGP8j1bgCPZk/v539c2kA/yw/yaj+WbR5c+qtKvw+82A3z7vIh6i5971ZztdoUMXfqFEUW9wTTob8D9ODFmq2lSie90/d0nCa1EHM81LLKbcvjgQliPqGT+FV/pVuHBUiXEdIDokYlooRb1SfqvJ5Tv3gGZO2WO+Zl5G9zg0Bap6iQbfLLG/d0n0tgkIgfiq5gFE+D5U+CCzBP4LpQ5qCWss19KyfZP76gUxwONYqLhkjy6se7fYFIN+eZKustn7OoEfhGqFANgToJ39K51kmay/laHuFYqPGFZIbCKt8nW4kFSJfJD4rqxWXLX1eveZJs2OeAlNlHmXobDfbl5L2Pq3wPt/phVNMn+QsNMQSUN0U7eYmMZOGxfPmQ3yCeQ5RXtSGpqfL38cST/g7ypburOT/VDfITAx/UKqpKQroJdLlHP6WLQYQ7dZp5TWwO6hIsQLpUtEanl8coI0Rc5/rWZBWWIMTAK9woeynRQPFy7oXsSSfOn+sH+N5oO/EqfN8IYQi3KjuRFejB8W9him8lcxQu8DVFOrcQZadyCE2U0xoTSdrTfoJGdm0s7W8tH1o8RZNPJZOoLWK4JAuQLrUWy2uFfGWR8KpoGyOuQHMVb0AHzJNwwPVyu9uGaMh2bktrziWdmA5c6Xv4megg+ykSr9KwU34OymqoacI/JxPUL/LaHEJ5k58tv94EOKI1jiXpCsAEmNTl1ZUO2VL0T4Upjml9oRqBuSALkC6jgKhQl5AtEV3tISahhnKt9PFWt51klaIqbUgFD7zab+Ma10s1K3eeDvUoEWnPY1SKvMsf4BnSlx1F2zkSlH48/64VvpTM4C/wN6AokTg7d2IZ8uvj3qTCOHV8Nqc0HWIWTrW5tPQBxFEh4bPxWeY0wa/hRtitwAKkC4lAPehF906sBq/wlmgPryvsYl6TbGXWyjRIOOR6ea3bTnPRxsEAeEk3Cw5JxK8UDnKrG6JK3FEXeF4+flpiPhJOM6Pxk+Zu8h5Hz6Lhsk4KwE6mKIept95Dh3CSBo9pjWJWceBS8rnBb4UqX9cKPbb347I66f4y60LxCGe0yfwanjeRZJPWv+j38IZoJ3PZrbiSSXUvju+PdrFLiq3VUB6oaMLRUGenL/FrhUO82I1k+1A6r+mNED4Vn+WLcYWiyAUbqIAyJJ6iWA9kqRwwS8zXtJLtbUqvv5oGZokveyXkcx9VEj6u45zVplXeXQILkC6Tn642QT2rH7U2l4CQTqj34HhX4QA/Hu0GEeptFCT0CHMk3OqGeJEM0iBpveoEGJKIV/ntvLdwFS9ww1Q78BCrfJf0GWL+IYwzofUL1glL3zcYpXjO0l5zcfnc1wOhyvGk1hr6S9/LsOhkx0u/lx7HA6HK5+Oz1vtYIivn3mXyXsC0xjwY5rnS96xZY+tIQ6SA8PPRXva7Mh+MT/JwmKMnu6Xz732xW9UBdQL7pMjP+L2MSZFaq/eRBsszpZ/bioOoQnWNd8CvREEcd8ST3BVmGBB/wSFEQYg1Yacr0GuN2JLkpXm+RZXGomOABYiV9GRHuXR8CKACnwiTnNEmPTb3sSSdeq+ZNZQ/5T6iNYKs7RapfHNhjPI6N8b7i9fw1mg3ZXE0URqErK6VtKrj5vMlC4cpCW+MdnG162mFx2IeqGrC/KKeSSfJex8PapUPxaeIlIuWKMn/bvZpiV7xWTEOczH5A9EUMZ9Lps6pHZYu+VbmL3OOeT58dX8yx6fCWStbsgzWA+lCeYP2Ta0wp+my27W8YfLBgwbKXkr8TLSbV/hRPpNM8pkwzUmtM6NJ9iS5OETSukbf68f4Ab/zkk/jsia7WlYub+BmiflA8wmOa+2CZVcWE4FrfC/96pmg2Srxbp4sP7Pjca1zItRbV0E+hFUnMClNnAh6kTc9/9h/0bOcDLZ0dzksQLpQfmbCt8MsR7TGddK7qvs1LiQfrqqTVqC9Qfp4VjTID1LnizrDY2GeR8I8x7TOLAlNDTRRni4D/Fi0mwFx2WquC7/KTr7lCwKfSyrcmUxRuEQfKZ83GpSIQSKrxLskigfu1CnGaZ7T+OfvZ0VjRC/8TgagjONRrfHJZKL1edYDWRoLkC7lEOY04dEwzw2+j+Vtt2rf4t5InSYjeL5XxujxjnHf4CRNZjVpDW3tkBLbiC553kenynsfXw9z/HHzceYJlC+xnFQQGiTsl152uVJWOXhz/czrKX9/50j4WjJLVZNW8MJC2Z7GReIgr3ysKH8fxnkirO0RBFuRBUiXysfa/zFMcLsfppgNq6xXc5X2SNLdwrPETJOOQ++nhBdp9Via2fzJZrup82HCGsqfJ6d5NMzTI9El997kPbT9FNlLqeM2QXYaRenB802d4+EwnxUHPff9FYSggopyfmFjRekVz4Ohyh3xROv632zX2kbqxDlHs04c8FCocniND3+6lHw1VV4Pqo5SJaFCwiwJ9U0YHrCwAOD/JKf4VDxO6SKrrs4nwCHXw5isbhmYrUhI99HcFaZ5/IJzS2k9rCbJBYNBsl743yVneETns6W7ZjksQLpUPvl4Wht8Kpm84NPbestXXuUrsjyrV3tqPeVVdD8Xpvnz5OSSf4YYZYgCT3F9NNZwk+dWkO9nmiXhnlBp/d5ieW22xgX61ko69/FlneXjyQS9LC3gzbnsGu1q6RPu5+NpHqFGj9gT2Eol2ebJx6jxP5tPMBWaSzqPIt/0NiwR17te6h26k76TeBz3hypf1pmL7pnJ66Sd/3sOGKfBR5IJJrRhu87bZAHSxQLQi+c+neOfk3HcRVaqmKUJQAnHWWJ+r3mMb2ulNbe01M8/6MockvKqHVy1VeX7i+4M08yF5e3/yXvfX0wqfCaepIe1O/xsq7MA6XL5UMDH4ymOSJWy7cBtS2DhjPP3xo/zqWSS/mU0TPnS6pvdUBbkFh+XIkBFlLvC2Quep7LY4j8LpMfenqTBnyUnzznF0iyfBUiXC6TniT+ic/xFcnpJhefMufIQDgTenxzno/EZ+pY5pp72XjzXSe+qnbu+VaVVcz13JGc5rPVlHVkrpOd9fCQe575QueS+HHN59u6ZrPESPtac4FtapSTWC1mqfDw9iOMPkuP8VfPMsusopcMxgae6fg5Jj20gvAyPMEmTT4Rxmnrp9ypdmLGwOz1S4e4wxd+F09nU+uZc5dcpLEAMkJXD1oQPxic5pfXLFp8zZDW80kbqA8lx/iQ+3dZUbF6z6WY/wDYp2EKGS0iyHvM9Osf9SWVJG9k8kJd3r4ryN2GC46FO2ZbtrpgFiGkpInwpmeJ/x6dpZjechciFBdI5iwC8P3mCP24ex+ny37N8s+RuKXOj9JEs8/O7ST5PVCXhX8Ik05pccvhKSY87LuHRbK/RP4cJ7kgmKONs2e4qsAAxwEJZCAX+KjnN3cmMTahfRF69ta6B30uO8cH4CUQlK52xPIJQJ3Cd6+N614/Fx8Xl537czzxfjWcBLlvqJd1XpBSB0zT4y3ic+DLDXmbpLEBMS8gmGCsh5r3Nx/lKmLXduefJV/FUSXhv8jh/2jyJy8JjuU1//jllcbzADzOAz+pfbS0BJbCydWX5XJOi3BFPckTnsyGoi7/r+Z8UxREDvxef4P4wa/WuVpEFiDlHQCmL54TWeU/8GPeGOXpxFz2/olso6RkeZRynafJf48f4u/gMpRWUOxT+//buPcbPq77z+Puc8/xu85ubb+OM7SQmoVRhlyak2dALJFktZMuudpuw7LJ0aZel20pUoNUuUtWLqqrqTVQtvW5SikibLZAWWkVtIkCktRI2MRQIBAKNSXCaeDwzHttzv/xuz3NO/3ie5zdjZ2zPPJ4xnpnPS7KSKPGMf7/Yz+d3zvme79fQJOEGU+MNpn9FC8DtwQBnbYcX7PKUwMsRYfjHsMQX/DSO1ccBr5SvWCo4Hk3O8Fh8looeeRtK76a8giedEfKib/BL8T/xrF+kz6S/VXbiJ7f803MVy5Nhhg90vsNj8WS32qroe+JJ55+8yQ2yz5RobaPVhyEtS37czDNi2tQ3oFVOG8+XwzzHfOOS26v5RcNBHGXgz5MzLIZEN843mAJEVuWBGpYX/BK/mBzn7/w0Zov2proc6a1lQykY/jo5za91XuIbyTz17JJg0YdRPqtiv63yVre7exluuwSIJx0P+0hnkuuStDV90VeX3xwfDS0ejs9Qxq3pnc//3x2JJ/laMp9NeFR8bKSd9jyQizArfgSgQ3pB7tvxEu9vvcA3wsKO2T/OX2MJwyhtPpic4Dc7LzPh2xtyLpR//X9n93CdrdLKqt62Ok/6np2mwwc7LzHfbvIaallvr/XrzvwwHY4kc5z0LRyXXvXlFVtTJHw9LFFZw8+R9dM8EOlqE/BZnzVwHQAAFRNJREFU6WOEocdYDtoar6HGXkoMmGjbz+jOt6Si7D046mf5veQkx5IFKthu6e7lSggM2TJ3u12Uvbng0KOtJH8FHngomWAktLjDDdKLZRaf3cdY/9d0wLjv8HAyQdoAdD03z5db68vGU4BI1x5TYp8p8XrXyy2mn2FK3GB7qGQP04R0uNN2lWRVaD1YjrHEo/FZPpWcYSHEVLPPzxsRHg5YInCPG+JGU7ti0yA3WyBQx/GUn+OR5AzlYNhnyoW35vLKq5jAJ/1pxkKxuTXb93fsd58CZIezQAPPG9wA740O8C9MH71Y2tmjMslKMDvb+I9h/oCr45gh5nE/zQPxGM/6RarYDd22s8BS8Lw2qvNmN7gtggOWV23joc1H4jGmfEzdWF5n69m5w/pfaX6G8VW/wOPxTPYVNDPwaqIA2eHyP/hnfJvPJFPgLDeZKmXcORPxtsuDLpc/gtJqIUsLz9Ewx0PxBF/0cyyFTnZQvnGPq/wB6IzhrXYPr2b7rD4ASlg+kUzwD36WOhaH4V+aeqHeXnmDyhaBv/ATjIbmOfPO5eqgANnh8gB5MTR4MW7weDLDXW6QH3fXcJ2pkJCWmybZ3vNWf9gF8guT6bZcm8DTfp5Hwlkej6eZCh0qWHqINnxGhMWwQMIdbhf3uD3b4twD0ve0huWLYZa/ik9TwxITOOCqXG+qhboL578vH/fTfD6eplcTA69KChAhH+8JMBnafCqe4PN+hrvcbv6NHeQW00sPjhaeNgHHcofTrcKzfO+iTsQCCU/7OR7z0xzx00z5dCpdfrdjo8Mj7Xnl2WPKvNsdYB9lFkm23Pt4vnxz6kWafCgeYZ6EGpYmnh8w/dQLXkKNMCyawMfiCZp4XQC8SilABFjepkkvWqVbWh/34zxmJ7nDDfAmM8gP2gH2UaKBp5ndgrjaVyX57YNyFhxn6fCEn+LxZIYn/BTTIaaC6T6gNrNtS5vA3dEubrY1lvBX+Tt3aekQrfSQ+0/jcY4lSyvex8DrTB2XdRpezysNgA/wl0zwjJ9b11RHubIUIHKO/A+qw1DHMOtjPulP81kzza22j++zvdxm+7jV9FLB0cbjSQ/bV/4hv9KPxtW+t8NQzR5gL4UmT/k5jvppvuLnWQwJdVx2Q3pzj2UN0MLzOtvLT9sDlLItnq3OACVj+Uw8yeeSyWxlmq60hm2VV9naur+mJ1AzEd/y83yyfQqbrdG2/ru1PSlA5ILyT5j9RCTB83g8xZNmmj2mxPWmxve7Pl5v+rnBlLnGVIB0ayvO7pMsbwOZ7gXFjbDcPiRkWyimu62W90jywMuhybfDEkf8NM8mC5wObZrB02sc/dkZx2Y3isw79NZsxP8oDTNkyjQKXqq7muQXBr/k57gvOUkjJN3VRzN4bra9HM7OP9YqvzQ4H2Ie9BOMh3bWil3xcbVSgMhFpU0E0y2IfhMRCMyEmLNhjq/7eUqMM2wr/JAZ5EZb5Vbbx15ToortVjF5Au0Vd0hWBslylZd5xffNd9jDin+CdGVRxmCzEtuYwAIJrZAwRpuvhwWe80t8wc8y4zvdarIyhn4TdYsCrgSDoYPnx9wQd5lBWiTbYuuqjOHl0OSBzhjjvtkdzuQAjOEmU6eGXdcN+/zg/BF/hiPxNGVdAbzqKUBkTfIggfSTZ967yQMjvsnHGIcE9psKr7V1Dpkyt9l+rrUVqsFyjamwm4jEQAihGyz5aqLTrfSi+z0iLJiADelGRr7CmCVmLLRZJGGamOO+wbf8Amd8zLdZYiq0sNmv0WCoYF7xGq4ECzRJuN0N8BNuPy6r+trKq4/8ch/AXyVnecrPdlu7GNKGh8OmzO22jwhDc409sPJCjpdCg7+IJ+gET8VcfgNG2VwKEFm3888bouxhDTAd2hxJWhjgYXOGvaZMD5bDpsqwrdIfLL02os9EVLFUs/sC15oKeyjRwRMZw0u+yQQtEm9oGM98SJgLMfPEjIYWL/smCyRMhg7zIc5ukRvKWOqkK6Wwyq/3SkkfpoHDpsbPlIYZpJRNedy6q4+V8zU+Fp/iE8l4t3oP0tVWG8+rTJVDppL1v1pbeFgM07S5LxnlBb9EvxofbgkKELlsK1uaOwy9WdVMHAIjIa3X+iaLkECJ9MJZyVhc9t8bDP04qiZrUhhgkZglPCFAbAKdEOhkZcQQcNmKJMLQg+setIZzzl6+O/JOu1Xj+D/RddxKH81tcGEwn6/xmJ/igc54t89Ufo7kCZSxvCEaZIgS8yTZ/5lLf92Kgb+NZ/n77p0P2QoUILKhVm4Tpbe808fMygd8ANrBn7NKmKKND8uNKtKASJmQfrotZSuM5aqcsCl3Ni6HJeupFSz/q3KQO8zAtggPT7rF9MUwxx/Fo0yHNmXjuu99HpoDJuIW07vm5u2eQJ2Ifwgz3B+PdssiZGtQgMimWVkttdJyRdbygyJa4yfVq7kiJ6+4SoAfL13D283+bVGum4aHYdR0+GjrBC+GJXpWOZ/wwGtcnddQo7mG7at86+pkaPLH8TinQrNbeCFbw1Y+z5MtKhT8cTVLV0Vppdm9pSH+c7SXJLsjc7mzwL+brz0v150JHX6j8xJPhXTE8fkP+Xzd8Ebbzx5TWvO4WQN8JBnnK8kcdSKFxxajABG5TCsHcP37aB//0w2zP5uWXrSNeb4NWMbQk12nu9JB4km3KBok/FY8wufjKfpXCY905RW4xlS52fTSNGsrVY4wPJyc5ZH4bNYB4Wr/mCDn0xaWyGVYDo/A3dFu3usOcA3lczoZr1Ve1lzGUsWxSMJpOnzTL9KXnS1cqfVIukJIK8n+MB7l00k6A/5Ch9sdAre4OjeZevcs62LKGL7gZ/mTeJQY3y0Ll61FASJS0Mrw+BG3h/dHhxheZ3jk5zomqyaLgJN0OOlbHPFTPOVn+Ue/wO+Uv4ea7WcxxJteCpzf9fAB7k9G+cv4dLdM+0JKxvIWt5tyMLTMhaMg3+p6jga/n5zkTGh3LyHK1qMAESkgr7aKgXtKQ/yUG15TeKx8tFryW/WOJglPh3m+4uc5msxyPDSZ8m2MgXeVhrnTDtIMm3+LPQ8Pi+HDfoyPJxOUuPAYJ4uhERJe7wa4jb70oiirr0DyG+wzJNwfj/FcNiZY4bF1KUBE1iltGJjeRfnp6BrucfvZT7TqLfP8oeuzVUYpu7uSt3c5Hpb4sp/naJjl+WSJyRCT4KlhKRnD7VE/77bD3U/pmxkfeSsSg+HDyRh/Fo/hwoXDA9JGMxjDnXaAXuMuGKB5MMUEPpqM8kRnippRl92tTgEisg4OQ5OEuol4f3Qt/yUaIgmemOWKlOULjel/n84ZccQEZogZCS2e9Qs86ef4ZlhgzndIskAqY3A4GiQcsjU+YA9xyJQ3fXJhXhUFgT9ORnkgHsMFc85FwfNZDA0SXm3r3OV2YTCEVdrU5yuSMoaP+gn+vHOKShYeCpCtTQEiskYWWCLhsO3hfdFB7ra7aIflUt38rw5DCUsFkx2EtzkemjzvF/mqX+AZv8BM6OBIK5HykIH0038Tz4Ap8QvR9Xyv6aWJvyLh0cZzfzLGx+NxbDDd13Rxhh90fdxIlcYqjSLzgCgZx98kE3ykM0IZc86/k61LASJyCYb0vKOB5063m/dEw9xm+roP9lI3BNKtrYnQZpw2z/pFvuUXOBlafCc0mAkxJUzWqfjcT+BhxfcpG8u7Swe43fbT2uTwyM8lmsHzoWSET8Wn1/SAz2ecDNkS97ghlhvrL8t/fgXD3yST/FZnhE5IV1oKj+1BASJyCS0C/cbx3uhafsLt77Ypz2/Uj4cWz/klTtDi+bDEd3yD6dBhJsQ0s35QVSy7ibqtV1b7ZB8AbwLvjPbzNru3O8lvswIk74A7TcwH45f5TDJJNXu4X+oBn2/T3el2cxO1V/S96q48MHzOT/EHnRM0Qlquq0Pz7UMBInIRBrjF9fGOaIhbTR8Toc3zoclzfpHZ0OE4TUZDk2nfISZ070lY0odnfxYa+S31C0lbvwf+g9vHT7mD1DHEbE545AERAWM0+c3OCY4kU/Se18X4Ul9j0JR4h9mXFQ+8MjwiDE+EGX4vHmUqdCgrPLYdBYjIKvLmgH0m4npT5XPxFH8SRjkbOiyQEIfQPe/Iy17zbazcWuePpGcrnrfa3fxsdB31bOTtZoUHpNtWR/0s98ejPOPn6WW5MeJafr3zJNzrhrjR1M75teZbcRGGJ/wMH4pHGPVNKgqPbUkBIrKK/GB5MST8dTwBpDfE80qpyop9/HDez1sPi2GBmB9wu/jZ6DC92EK32NeiWw1lHI8mZ7ivM8rJ0KQ3G++7FnmwDtsKb3N7MSvufaxceXw+C48R36Sq8Ni2FCAiF2GA3qxGKn/IblT5qQMWSPh+188vlw6zy5Roh82Zl563JgnAx+JR7ovHaYQkmya49ldjs8qyN9s9vNr0dFcfK888jvhpfrczwmho6qLgNqcAEbmEzZg34rIH8S2ul1+NbuA6yjSCT2eKb6D00B5qWI6FJT6eTPBofAYL6z6TSM9pPIdNlXujfZSMpRnibu1VBcunwyQfikeYDG2Fxw6gABG5wvIzhJttL78e3cBhU6FB2JTwsEAPjqNhhv/bGeVrfp5qduS93od7vlX1lmgPrw5VWtm9j7SU2fK3/gy/HY8w72NVW+0QChCRK8hhmCfm9bafXyvdwGFTpcHGblvl66X8ez2aTPJHyUnO+HZ3lsd611SG9I7LYVvjXrePCEMn66JrsDyYnOLD8UnaQZ11dxIFiMgVkN/nWCDhdjfAr5ZexSEqGx4ennTVUTGWY77BA8kYR+IpYgI9uDVVhV2IwfCf3F6uo0qDmDIRLRLui1/mE/FEd0a9Vh47hwJE5AowpKW6b3KD/HLpVeynRHOV5ouXIyFQxhCM4XPJJPfHY7zoG0RZ5VjR8LBAA89trp+77C5iPFUcx8Iifxqf4jPJ2cLbYrK1KUBENlFeodQg8G+jvfy8u57dOFobGB55LAwQcZwGD3YmeCQ+S4uYcvZdij7Y8+qzPhPxk26YQ6aKBb4U5vmDzgme8QvUsu+hbaudRwEiskny9uUAby8N8X53kAHcqm3fi1juNWWJ8Tzsz/BgfIrn/CJVLGUuv126xTCH50fdHn7YDmCAR/0kvx+PcMq3sjJg2akUICKbIG/7XjOO/+aGeZcbom+DwiNvjVLGkpjA1/w8n/Sn+bvOFC08Pbg1tyS5GIthKSR8r+vhPdEwp0OHh/xpPtE5RSubWXKhEbeyMyhARDZYfsdjP2XeVzrEXXaQXiI6lxke+QXGdCiVZZIOj3QmedCPc9a3KWOpraMlycWkVVeemnH8ZHSQOWLui8d5Ipkkym7iKzxEASKyQfJKq0USbrJ1fi66jn9l+2niSTYgPCwQYZkj5slkhofCBM/E81SwVLtnHRtzEpHPen9XNEQFwwfax3nZN+i5zDMV2V4UICIbIJ2Rnp55/Gu3m/8dXcuNpsoCPhsTu355FBjStuuzxHw9zPNQcoqn4zkawVM3aR+rjTzAzu98vNb10jbwK+3jzJHQe5llwLL9mIMHD+p3hEhB+aqjRaBiHO9wQ7wjGuIAle4skPXKt6pctlU0ExK+GRZ42J/lS8ks06FDJWvsuFkP9ADssiUmfRtIG0kqPOR8WoGIFGRZLtG93lV5nzvEW+wuEgJt/LrDIx82VcISYVjC80Jo8P/icf6/n2UxxDiglh2Sb+YD3QCTvo3LWpUoPGQ1ChCRAizpNg/AG90g740OcLPppZGdDqwnOvKqKouh10TMhA5HwxxH4kmO+llmQkIF2x01uxnNHVeTB6CiQy5EASKyDnkwLOHZbyr8WLSfe91e6jga65hfnj+ULflWlWOWmM8mZ/h0PMk3wgKzoUMNV7h/lchmU4CIrEF61mGI8cTAndEu3un28wbT3x2ydKnwyM820mqqdHrhIp4TocEX/TyfTSZ52TeYJ6GKpS8b9KSKJ7laKUBELsFiCAQWSDhoKrwt2sc77X76TXoxMA+F1eTnGnmjwQhDG888Mc/4BY76Of7eTzPl293zj/oVOOMQ2QgKEJGLSBsJJkRY7na7eU90gO8xVcpY2tmqY7WVR77aiDDUsbQIzBLzQmjwZDLLMb/EV/0cbTzlLFjMFT7jELlcChCR8+SB4AksErjJ1vnv7hre7HZTw9LCd+eWr5yLbrOfm682LHAytDhBiy/7eb6azHGCJuO+jSWdEpifb4DOOGTrUYCIZPLVREwgBvbYEu+0e/jRaC83UWeBhEWSbsBYDA6Dg2xrKt3OmgwdnvbzPE+DL/lZRnyLRRJaIV1t9OG6W1sKDdnKFCCy4+Wrhji7v9FnIu6wg/xXt5/X2h4CMEWHCEMVSwlDCUsTzywxcyS0vedJP8NXWOAl32DCt+lkm1F5pZXONmS7UYDIjpYPQZoLHQZsmTvtAG93Q7zRDVAL6e3rCMseY5gNCWOhxSnazISY5/0Sx8ISL4UGJ0OLdkjbljhMdxsrX63kKw6R7UQBIjtW3vNpl414q93Df3T7uN32USMdBzsTOpwybU6GFrM+Ziy0GAktJkKbydChjSfCZCsSQylbYcC5ZyMi25V6YcmOFYDDtsb3uV7qOJZCwqnQ5mxosxAS2niW8CyGhBYeApSMydqpm6y8V2cZsnMpQGRHc1m1VAtPK4uB9EwkPRexLG9JwXLbkfzvRXYybWHJjpaPnLUYei5wlzygZoIiq1GAyI62MjIUESLrc7njmUVEZIdSgIiISCEKEBERKUQBIiIihShARESkEAWIiIgUogAREZFCFCAiIlKIAkRERApRgIiISCEKEBERKUQBIiIihShARESkEAWIiIgUogAREZFCFCAiIlKIAkRERApRgIiISCEKEBERKUQBIiIihShARESkEAWIiIgUogAREZFCFCAiIlKIAkRERApRgIiISCEKEBERKUQBIiIihShARESkEAWIiIgUogAREZFCFCAiIlKIAkRERApRgIiISCEKEBERKUQBIiIihShARESkEAWIiIgUogAREZFCFCAiIlKIAkRERApRgIiISCEKEBERKUQBIiIihShARESkEAWIiIgUogAREZFCFCAiIlKIAkRERApRgIiISCEKEBERKUQBIiIihShARESkEAWIiIgUogAREZFCFCAiIlKIAkRERApRgIiISCEKEBERKUQBIiIihShARESkkH8GnFuykJgzOxoAAAAASUVORK5CYII=;" vertex="1" parent="1">
          <mxGeometry x="315" y="790" width="60" height="60" as="geometry" />
        </mxCell>
        <mxCell id="j-iSR3cCKwgXwYgSjLxv-14" value="" style="shape=image;verticalLabelPosition=bottom;labelBackgroundColor=default;verticalAlign=top;aspect=fixed;imageAspect=0;image=data:image/png,iVBORw0KGgoAAAANSUhEUgAAAOEAAADhCAMAAAAJbSJIAAAAolBMVEUAHisA7WQA8GUAHSsA8mYAACcAHCsAGioA9GYAGCoAACYADikAGSoAFyoADCkAFSoAESkA5GIABigAkEkAzlsA32AAt1QAqFAA1F0AJS0AMTAArFEAUjgA6mQANTEAok4Ax1kAaz4AnE0AXDoAOzIAQDMAKi4AiEcAdUEAzFsAv1cAgEQAYTsATDYAVzkAckAAACEAlksA/2oAf0YATjcARTQMLnchAAAHqklEQVR4nO2dWXuyPBCGIQQIoCzuG261q3b73vb//7WPgFRUYFDbiwlX7oMecZCnk0xmJpOoKBKJRCKRSCQSiUQikUgkEolEIpFIJBKJRCKRXIfma3UP4W/R3K7bbIl6979Hve5B/CXuTiXqnVP3MP6O1mREVDKatOoeyF+h6QOqqiod6E1divojFxhJbOpS9F8TgZHEV7/uwfwF1jxahAnRUrTqHs7vo7kDpqawgWPUPaBfx/6k6gHatese0G/TWanHrDp1D+l38TYBORJIgo1X96B+E9Po0RMb0p5h1j2s38Pwp0w9hQ0bFIPr3XOBkcRuYzZ+/YnkCIx4b4hE/y3IV0iCWSNiG9PsF5hQJf1WA7yN4S5P3WjGob644sc2+jrPy/x4m7XwmVTnvURf7G0Ej228+8JFmC7FTbvuQd6CoZcswv1SXAo9T/O3+pOlKHLG789AfdyK4u6K5sOofBHul2JvLOiuqOlDeI7G8/RT0HTYv6ukLyIUc54abqU5Gs/TkSdiaKN/QhvFAfopoD9tb6paMLbiXLh9X/MH1U3IQ3DhzhXdXTU/msJ2gp1IVdwKM9N0NBbL2VQJ146hYlVtWnMgpcgxYn8j0rGivrjEzSREyXDdw66ONb90jsYo4oSnnenlJoxW4lqYdN+aX7oIE8IHUYzYGV5jQp5jCGJE6z64SqCqBnMx3Onle+GPEcVwp+bkwnDmgCCBjfN03Srk0H8CRKeafrUJIyMuBZim3tvV+jgz/Gff+pVbRQIdojeipl+7VSSE6Cvg/oWZ7ylshbzsprkXFS/OoVPk/Qvm5LZJGsU1E9zBqb+6bZLin6b6VXlTFjpF7U0NuAAF/QeiyA3zNPXuwHimC1rxDfOm7z6Cy/Af9AF7dOuWUYL+Ai7DFfQBeUG8EDUDLiKCx8Kkb+DdEb23EBq/eg9+ESJeiO4W3ivG4Bd0izdJ1NewQh1WuMC7EO0lnPza4BeY0+AqmdMH/EmItnHBGIMmJP2PCmc2D1jrUd4MVjj6gMs45AvrkbcPV9nI88czrPAda3rhdmGFy48XUCHtYq3ud+BTQzr4gIsAdIFWIZwc0ulHhY+GSBVWqdHQhV3F0EhrNZoDZxZ0XUmhg1ShDzsR9ml/gikkwdo+pPlw0Ma6Npwkkxe0NuzBCh+rKHxGa0N4M2dbewsrXGJV6FTYzJ8Kr3llFOKdpbBCdaVDV0wwK6xyZrHTd2ClA+1+qLhwuBK+uXAth06x1hMr9NEEM3cGpsloozalA5dpgnsf7rbB2/7lwKW2/sab90GFaDsy4FML0n9oT8AyBkFbMG2B7fmkr7QUuFCD9pBUA2uhpG8ZPqwQb7eCDVWZyKhjuJBC0kNbTYR7acjIhv8NmHtqwONDbh4bykAo4gNED4rIeMFeh7LI8A6rK+XH+MAao4NIIRC9RjsK1pJ3BGQf3mgBLVayxOto4IXID86guxi4z/G9XbkNea96BypFoY1oOFA/Deu6ilveBk5GmJehArkRPgOBmcydEWa88uZL9uQozlP5J4j3Cg6wX7AnX/HfyxTi3isUXqsprWTwxsPy9kU6xZr9pniz0udodh4wkdk31vPfH+yyaRorLMuTeWiOnfKD4GivK72ugDnqTintgw5e20r7q+wDES7olbUJB6+WYn0XK8ScGh7wZoUpVHybuVXysFL4it7PcIrjGjKam4o5L4zs6KCDtkKTxfsqMiIZTQzFKL69R5DHMymaU2RE0htHCsdFZQxxHsdo3xfs6eTZjBQqRQrJtxgm5HXTAndKlp5WfNyP/KbFEdY8fyWSZeRJtE5RqUOk1+gLmoWTNvyCYo5Y7wwZSq6/LFMoyC3nH9xVnopkpeWvUrbCH5FmiXaMHH+a9KjnFtvY1BZkp0hpnz7gHcuID3fzim0kmAv30r6bU47hpbb8oqpoczTGPu9UZNtY4XlXFHvBn/ieY1hnOQQvtfF28FOFovnRFGd1Phd5i7p3VooKRXvKLEU/LWjwMg1vaDhRKO5PQZjWyVJk8ZGE93askL1YQs5RTuukK4HFKbz1faSQ9DsC1GaK8O7DrER2zzc96yi5inZCISoXRdhP2SyDxY/OtTZZhaHoD3rrjxkjhnM+H8151oRbkTKKPLTsq/PBhLsUc3KwK1uLFo6eYxwk7s+VMudTbK0L60YPGD/Z0j50Mcdp8kiHTRAYSWzva2+kp8Q2TEtRdOA3QmDkPK0kWSRLI1aoJUk+G1gCb4THmH78djnp+bEvTe5lsIXbGIF8LS5Y7FgiUaYbux620BskUOGyCOEd3G7b5XU4QtYN+P2VIwx9ywM4uvB50xcJt83wolk0fRdE2mjy5w5vG/ANOP5+HyQjRdCMFyItI2J++OI20hsneG+M3EpaKE2Kik3E2e7XIdo7MbfirfYpBfJH564n7dIIBXik9Dpam71CoV7QvwRNSXqFArNx8cye9PXWoJEBTUxyIQjzvaZbSZ7ko5gf1buR5DKJGO1519GJLyI0N6RJz0ZZY0MaZd+mz9A+dHU7ycuRmF9+vBXrO6CUBt/CtV1UxngYDgaDIfI7Izeh+Y7jNKXQnY/GqXsQEolEIpFIJBKJRCKRSCQSiUQikUgkEolE0lT+B4h2dnif2MTUAAAAAElFTkSuQmCC;" vertex="1" parent="1">
          <mxGeometry x="315" y="585" width="60" height="60" as="geometry" />
        </mxCell>
        <mxCell id="j-iSR3cCKwgXwYgSjLxv-15" value="" style="strokeColor=#dddddd;fillColor=#ffffff;shadow=1;strokeWidth=1;rounded=1;absoluteArcSize=1;arcSize=2;labelPosition=center;verticalLabelPosition=middle;align=center;verticalAlign=bottom;spacingLeft=0;fontColor=#999999;fontSize=12;whiteSpace=wrap;spacingBottom=2;html=1;" vertex="1" parent="1">
          <mxGeometry x="105" y="970" width="70" height="70" as="geometry" />
        </mxCell>
        <mxCell id="j-iSR3cCKwgXwYgSjLxv-16" value="" style="dashed=0;connectable=0;html=1;fillColor=#757575;strokeColor=none;shape=mxgraph.gcp2.laptop;part=1;" vertex="1" parent="j-iSR3cCKwgXwYgSjLxv-15">
          <mxGeometry x="0.5" width="50" height="33" relative="1" as="geometry">
            <mxPoint x="-25" y="18.5" as="offset" />
          </mxGeometry>
        </mxCell>
        <mxCell id="j-iSR3cCKwgXwYgSjLxv-17" value="&lt;font size=&quot;1&quot;&gt;&lt;b&gt;&lt;font style=&quot;font-size: 16px;&quot;&gt;Client Side&lt;/font&gt;&lt;/b&gt;&lt;/font&gt;" style="text;html=1;align=center;verticalAlign=middle;resizable=0;points=[];autosize=1;strokeColor=none;fillColor=none;" vertex="1" parent="1">
          <mxGeometry x="85" y="1090" width="110" height="30" as="geometry" />
        </mxCell>
        <mxCell id="j-iSR3cCKwgXwYgSjLxv-18" style="edgeStyle=orthogonalEdgeStyle;rounded=0;orthogonalLoop=1;jettySize=auto;html=1;entryX=0.51;entryY=0.067;entryDx=0;entryDy=0;entryPerimeter=0;fontFamily=Helvetica;fontSize=12;fontColor=default;" edge="1" parent="1" source="j-iSR3cCKwgXwYgSjLxv-15" target="j-iSR3cCKwgXwYgSjLxv-17">
          <mxGeometry relative="1" as="geometry" />
        </mxCell>
        <mxCell id="j-iSR3cCKwgXwYgSjLxv-23" value="&lt;div style=&quot;font-size: 14px;&quot;&gt;&lt;b&gt;&lt;font style=&quot;font-size: 14px;&quot;&gt;Back-end Language&lt;/font&gt;&lt;/b&gt;&lt;/div&gt;&lt;div style=&quot;font-size: 14px;&quot;&gt;&lt;b&gt;&lt;font style=&quot;font-size: 14px;&quot;&gt;&lt;font style=&quot;font-size: 14px;&quot;&gt;Node.js&lt;/font&gt;&lt;br&gt;&lt;/font&gt;&lt;/b&gt;&lt;/div&gt;" style="text;html=1;align=center;verticalAlign=middle;resizable=0;points=[];autosize=1;strokeColor=none;fillColor=none;" vertex="1" parent="1">
          <mxGeometry x="534.6" y="715" width="160" height="50" as="geometry" />
        </mxCell>
        <mxCell id="j-iSR3cCKwgXwYgSjLxv-25" style="edgeStyle=orthogonalEdgeStyle;rounded=0;orthogonalLoop=1;jettySize=auto;html=1;entryX=0.455;entryY=0;entryDx=0;entryDy=0;entryPerimeter=0;fontFamily=Helvetica;fontSize=12;fontColor=default;" edge="1" parent="1" source="tdb2UJb3kU6A1UGs4z5R-16" target="tdb2UJb3kU6A1UGs4z5R-27">
          <mxGeometry relative="1" as="geometry" />
        </mxCell>
        <mxCell id="j-iSR3cCKwgXwYgSjLxv-29" style="edgeStyle=orthogonalEdgeStyle;rounded=0;orthogonalLoop=1;jettySize=auto;html=1;fontFamily=Helvetica;fontSize=12;fontColor=default;" edge="1" parent="1" source="j-iSR3cCKwgXwYgSjLxv-26" target="j-iSR3cCKwgXwYgSjLxv-28">
          <mxGeometry relative="1" as="geometry" />
        </mxCell>
        <mxCell id="j-iSR3cCKwgXwYgSjLxv-26" value="" style="shape=image;verticalLabelPosition=bottom;labelBackgroundColor=default;verticalAlign=top;aspect=fixed;imageAspect=0;image=data:image/webp,UklGRjAdAABXRUJQVlA4WAoAAAAYAAAA/wAA/wAAQUxQSB8AAAABF/D8/4iIgCCAZLQlRps6gCL6PwGhV//pPwWn/0Y/AFZQOCAoHAAAsGwAnQEqAAEAAT5tMpZGpCMiISmWGxiADYlsbuFtrisZijnP6rq7radq/tX7A/1X9u/mV4P6Au3P1782f1T9neiTqnzOvGf1P/ef3X/J/sv84/8j+qPuM/i3+c/xX5//QF/C/5p/tv75+P3cH8wX7C/tf71/+q/aD3O/4D/W/kB8gH9T/yP/v7BL91/YF/cn//+ul+4nwl/1n/ZfuF8C/7cf//2AP//6gH//4kz/c/2nui/4/9x9Qeu5KeuQ/lf5Jz4/1neXwAvFW8igA+s/oXfJ+Y/8hrC9Aj9D/rX7LWfz7B6d319/vOx4rV+d43Ylr1olX1kFxWBZtyxkYSPzonlPeIA5MYoI/o3yUrxdGDdWFDfyod+kst4Ar7c4eNVtjGoKgsHuNIAI+Kl1oKOL0saeSMUmSN25ELOVidJss7+ZUmL/A6OvVzhtqndBAGbpYehZtFlR+tC33uYrDni3QfZRRlS1mAHUHvpE8K59edF2uxNJYoST5Cw3j/9nLwa/PaUzjNcPsspMcA+X9oVopaT/MgtqdIy76ZuckbaFOoKGtjYJJc2vlgXaFQlUCAHFzL1/KMtZUm+ILsYtYnbKw+I/WCS+C+P843+7t2tif0JRGSeZ5veVyFxKVijcITJaD+vt5uA4YcO3tKTLAC1f5A19KjhTCoB6ew4uInA5zAl/cz+XM7mN7LmRaia5pSVH+9e/YShjUdfhGTEQImdwslgV/KsVd05WSlKft02O8xH7611PaGX/KXJaejflmx6i2fL9PtIovJBuz9gZYUrdr/Ua0ZHCuDOXbiZrQWGpfQ3xZ7+3oA6+HNCNW/SZYNbhYX+EwMlvbRNGPtk3jKEA9Gv90ccgsG+wa04zlG9zGz4ZYPZ+mMXYLTFp5ozI86tNczxa6xyoQ2KPuoDG5gMCVezrNUD6WuXldtgVkUt+hb3+0AKrtjarjtlQiX23ZpI7CAWpWo21ug8kDrdSbCXdUF7r1QVBdP6d+fgbTlg0ZpYDbILWWN2JVxsf9ghTkdK1++0vIQxP/VBcOEDHPGehGqkxC7spEpfQ8jwRWKIMn6if9EwCbx/Yad63YjkQw6A34j6e+c6JUOPYPyZND1ZX2tnitNOksJkvDkkKbqWKEM//+1TrFqe2JKvaq6jTy7zetPlmIY6vwvKFaPmELAAA/vWNwAATEQADzsYoIzOTAhQJiDr4D5DYfHyOtEsvN9CLjbK/eh+TOayW16ePNpZKw+BHi9Jc6VYf00IvxFnKTrXxFvaHgm+mL05CO6MyifMKLMNCQKLPPtcB/B2nC3KLPFdbUiEi28sH0Yzr4Fb574ML4T50qXCK+yf3kRSdPYKwC6M7NAVxqMbKN2yeWuQyIWiAdBcc6R3CRE6OHFNNS3MkEl7hRyflPDjXj2wf1u8paWyUXSjeeHk6lunYmovdl+FAlKMx5J7MLF92JE1oRt7bDhthvgrtPwhZ0RnhlfwWsGUwHF1jWV1jw/LkI+c/J4izJHf8pFE9BEdLsSf6emb1Ukli4gAE16uWIEi/0VKeKrHG68ZQEuLE1022mtHBYXjOKYb8j3jhu9x4di0uUrE8iSABdJggIo5Fhpb5rtSPT09UEIVmlm6147ep/kYc7bbTLKsQxVLW38BJriNU3bkPGeKALnspb0qoj7wz54OQLx0Auuc9JmnWL13WIeh+QcIgVHVwdCPmAVBzO+SeAXAGjsJTxXcXZvFSa0UC7AejRzP4eNMsOHX4rMaNKWGUqCIBMrDayArJYefrjU28kmzkLA2/SvrsHyaHio7vlapvMQ33OwY7qpqvPILCocUXT1ZH8h9lyrdD3W9oOWef5ACxlvVi8TFXnZc6DWice+biHCUd0ZgQ72iTMtD7+x4B0vCqGZEf1tjHyT1g0MyqmJ7yvaCdNrfesVx2K4Hqbmyx2KHv9/BYFJsTljwmaefQzdZlCIGnkGoxbYzaGOilyEQxYuWKOIoomhvhMhuQqF3cWJBF5JaP5ZuNe0GxcHkzI1L90L2u6cFFihvCDhBXcM/BsdkgeoXscD7u6m0EWP3YRHoWr4/YSNGArI1nLuEgbfk/I4C/vfRo1ugHXJGNW8j5kVFYSrcSnSn5wB1Uah/MNoTNEaP0PBsIu3t8fZ1UJ9U5X6IElOA8Mg9HUITq27eHNT/LyAf8gIGPeK/R1Ldpxnd6H/SjWacGXp41zDR3SECCBGVRo8Eb3+1NKQdaavpVZ+X2rxm2MfpBIhAcJ0ictu9ytD8ylr/j/SA450O5iNNQyAKOOFp0FdlEQimAcGQUMGJLBwERWYsBF4LmQJZ8ycBze9XNvsB46GoY8dwSPIqDyYaw3IBhDJns0l20qTc/0PSS/JvmFgYLKqfve/q00zlOdFs05zM9nJRRf6spnWSLdCabnomNP/gSrbkDnXoaoMJLmGb9j4PnymokGsh043kgQG/UiTBOrRWqzftlEgB14eUBxB6zJ69evQAN+SSXrTpUB05EeZKLhcczjfN3evispyFiA5mL4iwU+74+H4giDxAoahUrXFYxFNDS+/v3BwROAYmKqTYAd0QEx55QZFD+r3XReLN5cGSJeupvfd9owkHPofEyK+nXKBcFPWUyU78tUiPfRDDeEZn/8B119jPmGDCslkEc1a9M2ztHawqYWaRsOLOf7yWa1XYNZjaqUq/sIGLoqnAsr2ZGInd96IGE57AhCJ0sndzEnEfqy7a0GIWEm2fnuX4+U/nYbz/uRbMQsdWBITZGarFGPq2L67axmfQ12Bzbd7s+EZz85Ex3VF2nAzkLu2B0bXB3NzgDdfUk7gRc3yH3Z5RfIkCHFBFwqAbhQ83CxoPI905M2iCrdwzqi9dVk9uZgM/TH+bCw6mZG+/EPF0I2NIruYskbioqlb+bbiPl78zMTVldsiap77ykUWAAxYuBTW0+nqC5K+rSpOyH/nz/rxkooLUqiUnQqOfVYdHfiB5k5VfxYYiLUdoTuuTv87D2QEn4Uggv0hmVUK9SMeEk2HetsTQ4QF1yA6m+QfNqoE5DsCAWFRnKAAd8dZt0f9KlT+bwMuB2HM3Dh4ljGAUlZ1mkFAooAttwxdvOvAjDpO4b7UCdgkzeKOpT1GwXydvtehGeUhn4BJvNkc8SnEAV1DQ6nB8qXJaKJ54rtb3J8SgNXq8JuTax87k6T9KW1dJhxk53Lkn8OSwr5rU3SPOa+geYo2C4g1DA/CiajLVWpIjjmt5KO71WuydOYrrEYDRgzth747fLFkYd2PUepnJdMTDgrI8ucgUo/wLO3pEHsxqxbPh5oQKXX59COqi7EVYpukwztJvfhXLliD9kWe8+4nbTWTBf9qgy0s72vrz2oUyfJYv2PIY2fcJ1LM/gAc37Y6kAcF+3FSSwhXGO4/i4Mj+iU0V6V8CiHuljOOhLYhEiAIgE9+VmW63EMEwOhHeAyGka51Zd+62fsq0PrZtXJXSpvlvszKeAWWjIEIFyxk4JjN2zYu817eCMACDedCnXXN9iCo+zfEWMBD82n8yBgmPP4JqxWJoFZptSFEGWNW7KG4wgN3zA79t/C3D+hbqIM01Irg9Epx/ym7vycClyQBsokBSSfIx309opp9mHJ5kZA/W+/F3tq1RKqUaMH5PCZVeZ6FPGUfCtJJG5VlCqHytFF5a0S9pdy9a7TD9r+u+R0hRaMImtwa3I1XOWWrQDbXCebCjouu/lzEh80EZwMMAbk9n9V9ZOMI8jMCyCpe5+yrXs9eNqNoYqVdaL5OpWz+hJ/GGFqHCu7/2uDuJxt+H6pYvxoEy1c1nT1LKvo8r6YZQgWIJi/3mpy+kKINgNDtZC1DTEd6AAIfX1QhVMwBoPDbUf8xYR0fRe7AyySrikmY973PsnHLeHYFqgq2JVzy1rql/FPeQ7JFL3nWd+YJCjST8EziQbyXb7fDeRHB/8XFpJPJbMiEHc7xZ0MGSepJHBswBFeaV3KJ2P0xrcSWxV6gSPE0ezFdYntTi7TIHYOQLzsu0+A94bPAm+Ap47YD7BzuRX/PEATykpMzKiIZYr0RwgzzBgFWaIufiVngpvphoRWb1Djxd+Zn9Bgbh7zOCyi6wBjz7hfmRPUfzbKmyfiobXmIs+eWuagGl5X46f7u+Ez/eST529pqHOPJgngioWq4u4xq0abzuvIB4UD10OHB04hmq4GtJzhyT0JfjqqpLP5AXM6kdJctNk+TAepyTcuMKt1JgKN6r5tqrAmwT/8Ta2LrVN7X/09Xsp2DL5XQOowl6KizYQ+v3DLi5j9rdj3h36SC8wB1ZT493wf8hZiyY+YHsug9hZ4Nx3zO7Pzfrcgdd4XWAmjO8DbFk27UnWJ9/PCdP5sA/wRQbCZrlAF/24ZriEYd3+T/+spCTilFBw7txG7fNYTlwYBHrSiMkX71YebZSVVou8pUf2HreFRAzKyiUzhTnz0/XXdazvGoXNKJhRQQJSMkiDKYn8DLqgJqgDBIOMRuEIAPgQIZzjlgzpq/lr9kS3CYaHEFQK+8dIjzOfYiQ9wLdvstris63L1G8ZHfSLxWMl9fGM2UsZ4e3INQ+3BV3G9OeWZHCekLqHBesJODQIUjNvE6wRLwIMAKVAZC0CmyC33bQtrOr27tMmke8j6S9Me53eXy6MJzVMZxyiWuj7TR6CrwQgv4r5NFrbFB2ByiVRVwgluJflC57LtlATB+VWPa29PWLuNLj5mfEif9FV0rNe2CWOjn8ec7SQomYB9gCu1lt036dIXZdfklMSByYf3z48wUmPzC82w1cLCEvDfaxmNN+ndoFsWuiRPk6tY95su0F011/461z3VmctZEi9c2h5/7CBKMLzggM+T2ENKFSfE/+Xrezh1ax0bm5oKxf7FaVGyivco+N3wP9GAxPLaMxxGOEJB1FDy9aMVionefZ1wRBjZZeXiWIVngHR4GDJCkJdSi62iqGMeLuYDgWMWHHbEDsb7xSd4nRls82fwI2e3Fs6drGQjXaV7h+xwA3Y5KR3WN1ocKIP9s6YNd3g2ILbjl4Uw2GIfrQj2+t8igZkro3z7nNCm7PYJejj+NrsT0Gk/uPLHZ4CKOXKMmdk1iAMv8PpwQXux+v3XVovZJqDFVuq/XL/clvj5RQ6Gve5sdabSVKiq3IvWWrDwF+itydDUtpcpk6lwGL4p7iWIAayFAHdrXJIAm/9nYoHgw22M1AAofu2mBX64qiKMfE0ETHnqGIA90RgJO4Kgu0j5mgBQQKOyyB/8Ud7ic3l6+QhGtflAI3eLMD904Bfb11UOPsF3mmTWdCGb16HXA1x5VimEGkJssXoLwsHczWJXFiFmqCE7rlHgfYimXFkRiVo0Ax0Es/heh1ug7xtoWVYFVMzPwGvTqYaPFRc3KNSqaG2C5ngAePDY5ZtY3w70+gi/31ZkswH5OHtHjhnuw0mg5Q0keWW3dKCRInrQ0HAxlFjjfXZLlH3tzaTCWer/l0zEAy9q+e5VvPTA9wF+cQTA2Qmp4aRCmcpkh/kff6/QgDLeGmtPVJxNsOHF1hMVOc5VL08c7VF1KVrIgJXg2lXKihIcNqiXAH8SLcnn3wSQDUa7xdP5y7Kbis0A2rakdWEzw+Hizb7cxv3EI31IIRRUxfall44sMC7IlnfI7CP98iS+WKn0g4rmvs7YczUKgaLjlvLqeyxjm3q0W7+XhiF1PIFdg7SR7GdEd5Bwpn7rI7shA43wXSS5ni4iJWoEVX1iVdiQTcpjCuOggS0VhiON/UcNqRnIC1hiWrtouanz34Dc0Yx61uvIxcop8z2FGpxyJefQBdLIApVr4A7dChGfyAMpEKp1jXhFDbdTNCi57htitvxczFefHuwuW8DTXQr9crR5a07/pDg9b0HnyrATExgQGg1kTOBVpW4j1GVGV8MdYG+inM713lgNe/j3ie5oMkZTM+CslXl/ftQEetU6GRiFhJVm8xgI/B75Dm0fn3UNt3pcMuM4orubYCmWlP0IhjNcM3i9ccreyhwHj0J69Maz4jbkjOON1msGv5AQ1wpsJCl7Oo9WjCEv0t29u8QykxfOKcXMh+XPCLTMrN72aG3vqcb5iSZYYgKKiMgUuY8msxfS168M3e2MHVE2ZQhA1ZUDa5My6DWpxvHtKXTfPB1Fqk8NSdrFWDJ308VXaI0Mz0+e5a9CiqBib3kAPYOm2XNw5I5eAEQ2Hnw2eeE2Sp36kT0YcYhs1IxzzwcRkGz972luIGQQvekncb3WynUO1Vqv+8v1Dkt3esWTm6xmuXoscHenTlzomlNdrfHCN85N4sxLrAbogKVr4D1TSTxtkP7GbYxw4g3BSeAtNUqam1FCBOI39y//EayEkS62RqYU884rTv0zxtLe69Uw7/Ca6idjlDra069Q+6q1gLW57ls2aa1kchQ0oR1EixfbmtFn3E0Kewcm4OH85N+q8vDl1uPIqLlPVmAjdeatk7aXahCgVWZDXh4cc6sKJs7+fM9o/2OAaEMmU2/tUtImGz+GnuiPQ0NDfl8a1BFK1lxZLUyZslHGIH/Yl+qRwiC4PHQ3VoDYsMUyCnhRRGYRm5UWz5LCHOsF6/ephvNICAfeiCQEu1qsztMWVg0W5J/cRfgzpWnLpo9xTyHR+n1k8/xONDO9b2FnCAoeL43xJHyxZS/ANDMlulBA2o2merk1mjSCezZlONRWQ3sgXfRAm+q/b6PSrPZaVk40wdo8uNuhf78kROPHHqYbuJpLz6/JoGzUH4luML9En6Ug/YXS5ZjTVxZCnqbZzSrtoFwZ8LliJ8XcLUpKJD1uaU8784W8UBEOMnZGK7ka3rUGA1drZaoauCyP4+Sz25ccVBy5py4OJdSbjHanJziStZOBL9Il9e2hOWWkW0InsPOyl3dI9G4POS6Wv2QewDbrbP7JZWA+HQD+yN+bB5VNyalHvhpfR97wFMuut6t1uXIOcSYncQV5DgBDvEsJwyIKIzrrqSsT6/z6eoDZndia8ubhk7+rK/AoFj9azaO2XMwMNES2YfTIN3ItJ4wUNgFmP3zs4y0shKfAnSHnlPef5xcra6xw2Jatr/nJddAPaoGjx+3GqALMZ6OWkqE/s8x5mDF85+h0dRH4B1jf6hS7VAZSex+bnXeTxhfX8MFo6BS+9ia9bVxexFsCs01nJzAQsosO2XIi/2n0aD8Buql4AaoFTVYwRVMMRNXaRUHmP5+/8NEo9PPYE/P6/cT375+3JJE7koc2d2E5/olC294yRjd1+hUZXoH/PxnpVm9mvF41Ywwx2kSyLsSsJE5EAHxKAenkwiwqPWblnaRi7ScstpHYntMgVXdRzwJ79wzFmXi0D4JJqTfk8km2XPpNVytD+OJB9bc3pcOC+E6eJtHl1OVzejU6jjS9/cgaaKNYCLXYc36g3ZqE4vcv4aiFU/i8ofa0Rx+4bIi0+tEgJ+6dQAM4AY7leCTIqiTboQQIa43wxu9cEAJVKlbnrfuxOnB1OOanIjhWIhS3MEzz3fIhwcAJib53JxVZMVVQcuHUWMT6yY6JI0dXfciR+7ZpyvWBEy+vOomyI1Ure3B61H+ToceGXe+H7Mrztq/XO3HSZndwmfyrthyvbxa8AlxoCl+o3siTX+C4gVZFZ8Kk7wcH3fZbXucvCBpbccShKstFE7iSiRe/F+EPxg54xOME7TWRflXKBpMQ8LiSqjV/ouesyk4hLywA9J2hWuAMVs3rV3eSaKwaQqE/baMmfjuKtTw7zL2RfKT8qvGgMYABNX9Szc7lG5UW++IVn5t2wHyLh4JiW5pmvotXYbRG1ImoK3vQO2922ietq8+N9Xq6PdSwcrAAF2Q8w191vx6wWtRnEX4HhAoe/J/MhAg9dmb2ibh6tRxmJGvakYM6t9CX/Qf9OcwRwsheMuSiJIcFq/Z5ZcEwm8WrBoyUqdTdQ6joeFksUevR+zL1dko+VwgNeU1zhwKEdqX+wVNojzE8ub3CPwnRZ7XjMXdxLGHUgZgKrYx/TG5qfGif6etoXJqfygmOm/m8ceQP+wojmwTlVD7mIc1/fdihR4nyjrtrCMwx5l9H/A9yVOS+ZEjUT0YT9GekkrI8n5BoobGbpXUBK/cAR6/L0EGtKeJD3k4TZAL06S451mKZ1kOQdaGxeZzNgUmBsqS9x5KI/HhNR5vVwRuwqOugLV5hbPuUBV2MWJXaKPpeeo5vMIt4TlU4eF7g86HuU04onulCJJWXMj+7p5yzjMrZGqlqvYQsuoeUoNWn3hDcDj7BWSxcbPMPNdQsEFeKTh1pNR0ug9+Svzf/xZJQb6+ELR8rtK6CR7pCJKG3vq6Omjt3IA/OT99xb4mJAAAVpjO9ZvAPU/ad1TjDdxhFBMBSUXGcTG4/C96oaely3hnQWrU004UAe7YTSCwRRowWM8Y13AxyHjIOMLsqxKIlPC+Kcho31VoyuU3z9/ukAdoFBDW2lLwOsOqwn0+K/uCJFqUW3grPjDezDPlg9+Uairxf2sba+2oiVb5qexiIUfbC+QxBAWUQowoOgMIUk+jy4tbvJOOLT078AR5mKEr6OEUei/SpGceP1Yqs6ctaWROPEtDleIGHyMRkYz5WuHxgKznrQrCObXAurQUjvKgHmuPiKdR+yKvGA2sGnRHspbnTrrKDhdGQHJ2z/E+M2IteZnYENuZ8BKm6xzgJcKf/f02j01XW0Lz9lP9OVKgDHf3/1ifcGbyaQWEJ+dn1QAxcMx2RjaZ+RZ28mskVBVUhAraZehhV/6ZCw4jpFQ3/gZBDQNRK3t0OkRdalVwDIsqzbbB/8Y7+vNYbal8IuAH5NI/Dx0c6+fjHc1BXK04FW1thx3oMLdZHJw9Xl7SsUsHRaF4fIcD9cbIZIIlPZXygOuOtsFIwZE2kgdLnZMa7xPW2Rn0CSv7UWjecI5+JDHL7P8eENRWW+vQbuXSMBMuzHXE4oxDM1d+83fRybaViEBcuVQmtmUP3zI118+/1x3GeY1lk8N36/+tw7CNQZ6FyH89iafhNuzVLyWw5w1X5w0DH60dgEFjJ5Ge4eFfEVZOcrOt6hJwJlerp/MNiuIkt/qm7d6xXI6zj3J68Z80LMaluID8GyxfBkcCK8W9BW+xIXz+lH5lDrF89YYedRl/NdgKWRttwax4BuU4PKxOwPCsiP0VE1WcilGDy9n2OhP6LewvfhNW7Mvlw1XwcqSKHGNAUS0X+udnWYrZy7SXoLJ9c0fLRxvIrXYCVcpuH+SzrkUAFaWfmeJtoQZf76WHochcyd5ebZM6PipmE5WJKEoLHpmphUaNR6xIqGaL1DQUk/Uynnkve+r1RoOF2ABzKPFqtS46MNfTXh9TAIO7cywAUBoL0A/sOxC9rE6usCVCQEBzrvtwtq/ZbgYxvyMTAkmkg2qXp4WsCaoF5rlp944JsXbZEMbg86SJxt/WkuL5mroSQ6FK6NwAAylh4hNOpG8+5xTIZRFUGQKT1wZOC+x0jXhV5nzFLUhs8t61YRfrG3VKNDmkrT/saPoCvpzd1t6O9GEV5uEK0u7XL7WVmbcYZV/2/R+oH1Px0FaQ2uOOdAxD6YH0MTt0/lYFtAD64UHmQDTZs616XbyiZFHTQ2ClVTBboVrxX+BPA57T9J5giHBxFw6kvJxzshPMCzhxnj8AAAAAAAAAAABFWElGugAAAEV4aWYAAElJKgAIAAAABgASAQMAAQAAAAEAAAAaAQUAAQAAAFYAAAAbAQUAAQAAAF4AAAAoAQMAAQAAAAIAAAATAgMAAQAAAAEAAABphwQAAQAAAGYAAAAAAAAASAAAAAEAAABIAAAAAQAAAAYAAJAHAAQAAAAwMjEwAZEHAAQAAAABAgMAAKAHAAQAAAAwMTAwAaADAAEAAAD//wAAAqAEAAEAAAAAAQAAA6AEAAEAAAAAAQAAAAAAAA==;" vertex="1" parent="1">
          <mxGeometry x="434.6" y="970" width="60" height="60" as="geometry" />
        </mxCell>
        <mxCell id="j-iSR3cCKwgXwYgSjLxv-27" style="edgeStyle=orthogonalEdgeStyle;rounded=0;orthogonalLoop=1;jettySize=auto;html=1;entryX=1;entryY=0.5;entryDx=0;entryDy=0;fontFamily=Helvetica;fontSize=12;fontColor=default;" edge="1" parent="1" source="j-iSR3cCKwgXwYgSjLxv-26" target="j-iSR3cCKwgXwYgSjLxv-15">
          <mxGeometry relative="1" as="geometry">
            <Array as="points">
              <mxPoint x="175" y="1000" />
            </Array>
          </mxGeometry>
        </mxCell>
        <mxCell id="j-iSR3cCKwgXwYgSjLxv-28" value="&lt;b&gt;&lt;font style=&quot;font-size: 14px;&quot;&gt;Front-&lt;font style=&quot;font-size: 14px;&quot;&gt;end Library&lt;br&gt;&lt;/font&gt;&lt;/font&gt;&lt;/b&gt;&lt;div style=&quot;font-size: 14px;&quot;&gt;&lt;b&gt;&lt;font style=&quot;font-size: 14px;&quot;&gt;&lt;font style=&quot;font-size: 14px;&quot;&gt;React.js&lt;/font&gt;&lt;br&gt;&lt;/font&gt;&lt;/b&gt;&lt;/div&gt;" style="text;html=1;align=center;verticalAlign=middle;resizable=0;points=[];autosize=1;strokeColor=none;fillColor=none;" vertex="1" parent="1">
          <mxGeometry x="394.6" y="1060" width="140" height="50" as="geometry" />
        </mxCell>
        <mxCell id="j-iSR3cCKwgXwYgSjLxv-32" value="&lt;div style=&quot;font-size: 14px;&quot;&gt;&lt;b&gt;&lt;font style=&quot;font-size: 14px;&quot;&gt;Tailwind&lt;/font&gt;&lt;/b&gt;&lt;/div&gt;&lt;div style=&quot;font-size: 14px;&quot;&gt;&lt;b&gt;&lt;font style=&quot;font-size: 14px;&quot;&gt;&lt;font style=&quot;font-size: 14px;&quot;&gt;Css&lt;/font&gt;&lt;br&gt;&lt;/font&gt;&lt;/b&gt;&lt;/div&gt;" style="text;html=1;align=center;verticalAlign=middle;resizable=0;points=[];autosize=1;strokeColor=none;fillColor=none;" vertex="1" parent="1">
          <mxGeometry x="282.5" y="1210" width="80" height="50" as="geometry" />
        </mxCell>
        <mxCell id="j-iSR3cCKwgXwYgSjLxv-34" value="&lt;div style=&quot;font-size: 14px;&quot;&gt;&lt;font style=&quot;font-size: 14px;&quot;&gt;ShadcnUI&lt;/font&gt;&lt;/div&gt;&lt;div style=&quot;font-size: 14px;&quot;&gt;&lt;font style=&quot;font-size: 14px;&quot;&gt;Tailwind&amp;nbsp;&lt;/font&gt;&lt;/div&gt;&lt;div style=&quot;font-size: 14px;&quot;&gt;&lt;font style=&quot;font-size: 14px;&quot;&gt;&lt;font style=&quot;font-size: 14px;&quot;&gt;Extension&lt;/font&gt;&lt;br&gt;&lt;/font&gt;&lt;/div&gt;" style="text;html=1;align=center;verticalAlign=middle;resizable=0;points=[];autosize=1;strokeColor=none;fillColor=none;" vertex="1" parent="1">
          <mxGeometry x="570" y="1205" width="80" height="60" as="geometry" />
        </mxCell>
        <mxCell id="j-iSR3cCKwgXwYgSjLxv-37" value="&lt;div style=&quot;font-size: 14px;&quot;&gt;&lt;font style=&quot;font-size: 14px;&quot;&gt;&lt;b&gt;TypeScript&lt;/b&gt;&lt;/font&gt;&lt;/div&gt;&lt;div style=&quot;font-size: 14px;&quot;&gt;&lt;font style=&quot;font-size: 14px;&quot;&gt;&lt;b&gt;&lt;font style=&quot;font-size: 14px;&quot;&gt;Type support&lt;/font&gt;&lt;br&gt;&lt;/b&gt;&lt;/font&gt;&lt;/div&gt;" style="text;html=1;align=center;verticalAlign=middle;resizable=0;points=[];autosize=1;strokeColor=none;fillColor=none;" vertex="1" parent="1">
          <mxGeometry x="745" y="975" width="110" height="50" as="geometry" />
        </mxCell>
        <mxCell id="j-iSR3cCKwgXwYgSjLxv-39" value="&lt;div style=&quot;font-size: 14px;&quot;&gt;&lt;b&gt;&lt;font style=&quot;font-size: 14px;&quot;&gt;Back-end Framework&lt;/font&gt;&lt;/b&gt;&lt;/div&gt;&lt;div style=&quot;font-size: 14px;&quot;&gt;&lt;b&gt;&lt;font style=&quot;font-size: 14px;&quot;&gt;&lt;font style=&quot;font-size: 14px;&quot;&gt;Nest.js&lt;/font&gt;&lt;br&gt;&lt;/font&gt;&lt;/b&gt;&lt;/div&gt;" style="text;html=1;align=center;verticalAlign=middle;resizable=0;points=[];autosize=1;strokeColor=none;fillColor=none;" vertex="1" parent="1">
          <mxGeometry x="264.6" y="880" width="170" height="50" as="geometry" />
        </mxCell>
        <mxCell id="j-iSR3cCKwgXwYgSjLxv-42" style="edgeStyle=orthogonalEdgeStyle;rounded=0;orthogonalLoop=1;jettySize=auto;html=1;entryX=0.481;entryY=0.04;entryDx=0;entryDy=0;entryPerimeter=0;fontFamily=Helvetica;fontSize=12;fontColor=default;" edge="1" parent="1" source="j-iSR3cCKwgXwYgSjLxv-13" target="j-iSR3cCKwgXwYgSjLxv-39">
          <mxGeometry relative="1" as="geometry" />
        </mxCell>
        <mxCell id="j-iSR3cCKwgXwYgSjLxv-44" value="&lt;font style=&quot;font-size: 14px;&quot;&gt;&lt;b&gt;Database&lt;br&gt;MongoDB&lt;/b&gt;&lt;/font&gt;" style="text;html=1;align=center;verticalAlign=middle;resizable=0;points=[];autosize=1;strokeColor=none;fillColor=none;" vertex="1" parent="1">
          <mxGeometry x="514.6" y="585" width="90" height="50" as="geometry" />
        </mxCell>
        <mxCell id="j-iSR3cCKwgXwYgSjLxv-45" style="edgeStyle=orthogonalEdgeStyle;rounded=0;orthogonalLoop=1;jettySize=auto;html=1;entryX=0.056;entryY=0.6;entryDx=0;entryDy=0;entryPerimeter=0;fontFamily=Helvetica;fontSize=12;fontColor=default;" edge="1" parent="1" source="j-iSR3cCKwgXwYgSjLxv-14" target="j-iSR3cCKwgXwYgSjLxv-44">
          <mxGeometry relative="1" as="geometry" />
        </mxCell>
        <mxCell id="j-iSR3cCKwgXwYgSjLxv-46" value="&lt;div style=&quot;font-size: 14px;&quot; align=&quot;center&quot;&gt;&lt;b&gt;API Communication&lt;/b&gt;&lt;br&gt;&lt;/div&gt;" style="rounded=1;whiteSpace=wrap;html=1;dashed=0;strokeColor=default;align=center;verticalAlign=top;fontFamily=Helvetica;fontSize=12;fontColor=default;fillColor=default;gradientColor=#DFDEDE;" vertex="1" parent="1">
          <mxGeometry x="465" y="850" width="120" height="60" as="geometry" />
        </mxCell>
        <mxCell id="j-iSR3cCKwgXwYgSjLxv-47" style="edgeStyle=orthogonalEdgeStyle;rounded=0;orthogonalLoop=1;jettySize=auto;html=1;entryX=0.167;entryY=0.983;entryDx=0;entryDy=0;entryPerimeter=0;fontFamily=Helvetica;fontSize=12;fontColor=default;" edge="1" parent="1" source="j-iSR3cCKwgXwYgSjLxv-26" target="j-iSR3cCKwgXwYgSjLxv-46">
          <mxGeometry relative="1" as="geometry" />
        </mxCell>
      </root>
    </mxGraphModel>
  </diagram>
</mxfile>
